<svg width="340" height="116" fill="none" xmlns="http://www.w3.org/2000/svg"><path d="M0 29h340v44H0V29z" fill="#fff"/><mask id="a" style="mask-type:luminance" maskUnits="userSpaceOnUse" x="0" y="29" width="340" height="44"><path d="M0 29h340v44H0V29z" fill="#E7E7E7"/></mask><g mask="url(#a)"><path d="M0 30h340v-2H0v2zm340 42H0v2h340v-2z" fill="#E7E7E7"/></g><path d="M0 72h340v44H0V72z" fill="#fff"/><mask id="b" style="mask-type:luminance" maskUnits="userSpaceOnUse" x="0" y="72" width="340" height="44"><path d="M0 72h340v44H0V72z" fill="#E7E7E7"/></mask><g mask="url(#b)"><path d="M0 73h340v-2H0v2zm340 42H0v2h340v-2z" fill="#E7E7E7"/></g><mask id="c" style="mask-type:luminance" maskUnits="userSpaceOnUse" x="5" y="29" width="48" height="87"><path d="M5 29h48v87H5V29z" fill="#E7E7E7"/></mask><g mask="url(#c)"><path d="M53 29h1v-1h-1v1zm0 87v1h1v-1h-1zM5 30h48v-2H5v2zm47-1v87h2V29h-2zm1 86H5v2h48v-2z" fill="#E7E7E7"/></g><path d="M99.5 29.5h-47v86h47v-86zm47 0h-47v86h47v-86zm47 0h-47v86h47v-86zm47 0h-47v86h47v-86zm47 0h-47v86h47v-86z" stroke="#E7E7E7"/><mask id="d" style="mask-type:luminance" maskUnits="userSpaceOnUse" x="287" y="29" width="48" height="87"><path d="M287 29h48v87h-48V29z" fill="#E7E7E7"/></mask><g mask="url(#d)"><path d="M287 29v-1h-1v1h1zm0 87h-1v1h1v-1zm0-86h48v-2h-48v2zm48 85h-48v2h48v-2zm-47 1V29h-2v87h2z" fill="#E7E7E7"/></g><path d="M24.332 14.532h9.348v1.416h-9.348v-1.416zm-.792 5.628h10.932v1.416H23.54V20.16zm4.656-9.324h1.548V21.12h-1.548V10.836zM19.801 45.12a3.266 3.266 0 01-1.074-.205 2.572 2.572 0 01-.98-.66c-.295-.313-.532-.735-.711-1.267-.18-.534-.269-1.204-.269-2.01 0-.774.073-1.458.218-2.055.144-.6.355-1.104.63-1.513.276-.411.608-.724.997-.937a2.73 2.73 0 011.326-.32c.488 0 .923.098 1.304.294.383.194.696.463.937.81.242.347.398.746.469 1.197h-1.04a1.928 1.928 0 00-.562-.975c-.279-.259-.648-.388-1.108-.388-.676 0-1.21.294-1.598.882-.387.588-.581 1.413-.584 2.476h.068a2.564 2.564 0 011.3-1.019c.267-.093.55-.14.848-.14.5 0 .957.125 1.372.375.415.247.747.59.997 1.027.25.434.375.933.375 1.495 0 .54-.12 1.035-.362 1.483a2.759 2.759 0 01-1.019 1.066c-.434.261-.946.389-1.534.383zm0-.938c.358 0 .68-.09.963-.269a1.92 1.92 0 00.678-.72c.168-.301.251-.636.251-1.006 0-.36-.08-.688-.243-.984a1.853 1.853 0 00-.66-.712 1.747 1.747 0 00-.955-.264c-.27 0-.521.054-.754.162-.233.105-.437.25-.614.435a2.1 2.1 0 00-.409.635 2.02 2.02 0 00.767 2.446c.287.184.613.277.976.277zm7.753-8.319l-2.812 10.45h-.92l2.812-10.45h.92zm4.303.41V45h-1.056v-7.62h-.052l-2.13 1.415v-1.074l2.181-1.448h1.057zM34.7 45l3.903-7.722v-.068h-4.5v-.937h5.591v.988L35.808 45H34.7zM19.801 87.12a3.266 3.266 0 01-1.074-.205 2.572 2.572 0 01-.98-.66c-.295-.313-.532-.735-.711-1.266-.18-.535-.269-1.205-.269-2.012 0-.773.073-1.457.218-2.054.144-.6.355-1.103.63-1.513.276-.411.608-.724.997-.937a2.73 2.73 0 011.326-.32c.488 0 .923.098 1.304.294.383.194.696.463.937.81.242.347.398.746.469 1.197h-1.04a1.928 1.928 0 00-.562-.975c-.279-.259-.648-.388-1.108-.388-.676 0-1.21.294-1.598.882-.387.588-.581 1.413-.584 2.476h.068a2.564 2.564 0 011.3-1.019c.267-.094.55-.14.848-.14.5 0 .957.125 1.372.375.415.247.747.59.997 1.027.25.434.375.933.375 1.495 0 .54-.12 1.035-.362 1.483a2.759 2.759 0 01-1.019 1.066c-.434.261-.946.389-1.534.383zm0-.938c.358 0 .68-.09.963-.269a1.92 1.92 0 00.678-.72c.168-.301.251-.636.251-1.006 0-.36-.08-.688-.243-.984a1.853 1.853 0 00-.66-.712 1.747 1.747 0 00-.955-.264c-.27 0-.521.054-.754.162-.233.105-.437.25-.614.435a2.1 2.1 0 00-.409.635 2.02 2.02 0 00.767 2.446c.287.184.613.277.976.277zm7.753-8.319l-2.812 10.45h-.92l2.812-10.45h.92zM28.79 87v-.767l2.88-3.154c.339-.369.617-.69.836-.963.219-.275.38-.534.486-.775.108-.244.162-.5.162-.767 0-.307-.074-.573-.222-.797a1.439 1.439 0 00-.596-.52 1.934 1.934 0 00-.853-.183c-.335 0-.627.07-.877.209a1.437 1.437 0 00-.576.575c-.133.247-.2.537-.2.87h-1.006c0-.512.118-.961.354-1.347.236-.387.557-.688.963-.904.41-.216.868-.324 1.376-.324.512 0 .965.108 1.36.324.395.216.704.507.929.874.224.366.336.774.336 1.223 0 .32-.058.635-.174.942-.114.303-.313.643-.597 1.018-.281.372-.672.827-1.172 1.364l-1.96 2.096v.068h4.057V87H28.79zm6.934-1.79v-.87l3.835-6.067h.63v1.346h-.425l-2.898 4.585v.069h5.164v.937h-6.306zM39.83 87v-8.727h1.005V87H39.83z" fill="#0075FF"/><path d="M71.836 11.532h8.376v10.392h-1.548v-8.94h-5.34v8.952h-1.488V11.532zm1.02 4.032h6.456v1.428h-6.456v-1.428zm-.012 4.14h6.468v1.452h-6.468v-1.452zM66.801 45.12a3.266 3.266 0 01-1.074-.205 2.572 2.572 0 01-.98-.66c-.295-.313-.532-.735-.711-1.267-.18-.534-.269-1.204-.269-2.01 0-.774.073-1.458.217-2.055.145-.6.356-1.104.631-1.513.276-.411.608-.724.997-.937a2.73 2.73 0 011.326-.32c.488 0 .923.098 1.304.294.383.194.696.463.937.81.242.347.398.746.469 1.197h-1.04a1.928 1.928 0 00-.562-.975c-.279-.259-.648-.388-1.108-.388-.677 0-1.21.294-1.598.882-.387.588-.581 1.413-.584 2.476h.068a2.564 2.564 0 011.3-1.019c.267-.093.55-.14.848-.14.5 0 .957.125 1.372.375.415.247.747.59.997 1.027.25.434.375.933.375 1.495 0 .54-.12 1.035-.362 1.483a2.759 2.759 0 01-1.019 1.066c-.434.261-.946.389-1.534.383zm0-.938c.358 0 .68-.09.963-.269a1.92 1.92 0 00.678-.72c.168-.301.251-.636.251-1.006 0-.36-.08-.688-.243-.984a1.853 1.853 0 00-.66-.712 1.747 1.747 0 00-.955-.264c-.27 0-.521.054-.754.162-.233.105-.437.25-.614.435a2.1 2.1 0 00-.409.635 2.02 2.02 0 00.767 2.446c.287.184.613.277.976.277zm7.753-8.319l-2.812 10.45h-.92l2.812-10.45h.92zm4.303.41V45h-1.056v-7.62h-.052l-2.13 1.415v-1.074l2.181-1.448h1.057zm5.366 8.846c-.585 0-1.103-.103-1.551-.31a2.541 2.541 0 01-1.044-.866c-.25-.37-.374-.79-.371-1.261a2.32 2.32 0 01.822-1.811 1.86 1.86 0 01.865-.405v-.051a1.685 1.685 0 01-.997-.703 2.13 2.13 0 01-.366-1.24 2.11 2.11 0 01.336-1.19 2.38 2.38 0 01.938-.826 3 3 0 011.368-.303c.505 0 .957.101 1.355.303.398.202.71.477.937.827.23.349.347.745.35 1.188a2.16 2.16 0 01-.38 1.24 1.683 1.683 0 01-.984.704v.05c.316.058.6.193.852.406a2.367 2.367 0 01.835 1.811c-.002.471-.13.892-.383 1.261a2.54 2.54 0 01-1.044.865c-.443.208-.956.311-1.538.311zm0-.937c.395 0 .736-.064 1.022-.192.287-.128.509-.308.665-.541.157-.233.236-.506.239-.818a1.57 1.57 0 00-.256-.874 1.735 1.735 0 00-.686-.597 2.154 2.154 0 00-.984-.217c-.372 0-.705.073-.997.217a1.73 1.73 0 00-.686.597 1.538 1.538 0 00-.243.874 1.43 1.43 0 00.225.818c.157.233.38.413.67.541.29.128.633.192 1.03.192zm0-4.142c.312 0 .59-.063.83-.188.245-.125.437-.3.576-.524.14-.224.21-.487.213-.788a1.454 1.454 0 00-.209-.772 1.354 1.354 0 00-.566-.511 1.845 1.845 0 00-.844-.183c-.327 0-.612.06-.857.183-.244.12-.433.29-.567.511a1.424 1.424 0 00-.196.772 1.46 1.46 0 00.2.788c.14.224.332.4.576.524.244.125.525.188.844.188zM66.801 87.12a3.266 3.266 0 01-1.074-.205 2.572 2.572 0 01-.98-.66c-.295-.313-.532-.735-.711-1.266-.18-.535-.269-1.205-.269-2.012 0-.773.073-1.457.217-2.054.145-.6.356-1.103.631-1.513.276-.411.608-.724.997-.937a2.73 2.73 0 011.326-.32c.488 0 .923.098 1.304.294.383.194.696.463.937.81.242.347.398.746.469 1.197h-1.04a1.928 1.928 0 00-.562-.975c-.279-.259-.648-.388-1.108-.388-.677 0-1.21.294-1.598.882-.387.588-.581 1.413-.584 2.476h.068a2.564 2.564 0 011.3-1.019c.267-.094.55-.14.848-.14.5 0 .957.125 1.372.375.415.247.747.59.997 1.027.25.434.375.933.375 1.495 0 .54-.12 1.035-.362 1.483a2.759 2.759 0 01-1.019 1.066c-.434.261-.946.389-1.534.383zm0-.938c.358 0 .68-.09.963-.269a1.92 1.92 0 00.678-.72c.168-.301.251-.636.251-1.006 0-.36-.08-.688-.243-.984a1.853 1.853 0 00-.66-.712 1.747 1.747 0 00-.955-.264c-.27 0-.521.054-.754.162-.233.105-.437.25-.614.435a2.1 2.1 0 00-.409.635 2.02 2.02 0 00.767 2.446c.287.184.613.277.976.277zm7.753-8.319l-2.812 10.45h-.92l2.812-10.45h.92zM75.79 87v-.767l2.88-3.154c.339-.369.617-.69.836-.963.219-.275.38-.534.486-.775.108-.244.162-.5.162-.767 0-.307-.074-.573-.222-.797a1.439 1.439 0 00-.596-.52 1.934 1.934 0 00-.853-.183c-.335 0-.627.07-.877.209a1.437 1.437 0 00-.576.575c-.133.247-.2.537-.2.87h-1.006c0-.512.118-.961.354-1.347.236-.387.557-.688.963-.904.41-.216.868-.324 1.376-.324.512 0 .965.108 1.36.324.395.216.704.507.929.874.224.366.336.774.336 1.223 0 .32-.058.635-.174.942-.114.303-.313.643-.597 1.018-.281.372-.672.827-1.172 1.364l-1.96 2.096v.068h4.057V87H75.79zm10.053.12c-.5 0-.95-.1-1.35-.3a2.508 2.508 0 01-.964-.817 2.228 2.228 0 01-.396-1.185h1.022c.04.395.22.722.538.98a1.79 1.79 0 001.15.384c.358 0 .676-.084.955-.252.28-.167.501-.397.66-.69a2.05 2.05 0 00.243-1.001c0-.381-.084-.72-.251-1.019a1.845 1.845 0 00-.682-.712 1.927 1.927 0 00-.993-.264 2.73 2.73 0 00-.823.124 2.287 2.287 0 00-.694.32l-.989-.12.529-4.295h4.534v.937h-3.648l-.307 2.574h.051a2.3 2.3 0 01.674-.354c.27-.094.55-.14.843-.14a2.69 2.69 0 012.417 1.423c.241.44.362.943.362 1.509 0 .556-.125 1.053-.375 1.491a2.741 2.741 0 01-1.023 1.031 2.92 2.92 0 01-1.483.375z" fill="#FF2E00"/><path d="M120.228 11.376h6v1.404h-6v-1.404zm.012 2.868h6.048v1.368h-6.048v-1.368zm-.06 2.844h6.024v1.392h-6.024v-1.392zm-.936-5.712h1.476v3.972c0 2.088-.324 5.028-2.352 6.732-.216-.3-.804-.84-1.116-1.032 1.824-1.548 1.992-3.864 1.992-5.7v-3.972zm6.312 0h1.524v8.88c0 .852-.204 1.284-.756 1.524-.576.252-1.428.276-2.676.276a5.451 5.451 0 00-.6-1.512c.852.048 1.848.036 2.136.036.276-.012.372-.096.372-.348v-8.856zM113.801 45.12a3.267 3.267 0 01-1.074-.205 2.576 2.576 0 01-.98-.66c-.295-.313-.533-.735-.711-1.267-.179-.534-.269-1.204-.269-2.01 0-.774.072-1.458.217-2.055.145-.6.355-1.104.631-1.513.276-.411.608-.724.997-.937a2.73 2.73 0 011.326-.32c.488 0 .923.098 1.303.294.384.194.697.463.938.81.241.347.398.746.469 1.197h-1.04a1.927 1.927 0 00-.563-.975c-.278-.259-.647-.388-1.107-.388-.677 0-1.209.294-1.599.882-.386.588-.58 1.413-.583 2.476h.068a2.557 2.557 0 012.148-1.16c.5 0 .957.126 1.372.376.415.247.747.59.997 1.027.25.434.375.933.375 1.495 0 .54-.121 1.035-.362 1.483a2.76 2.76 0 01-1.019 1.066c-.434.261-.946.389-1.534.383zm0-.938c.358 0 .679-.09.963-.269.287-.179.513-.419.678-.72.167-.301.251-.636.251-1.006 0-.36-.081-.688-.243-.984a1.852 1.852 0 00-.66-.712 1.75 1.75 0 00-.955-.264c-.27 0-.521.054-.754.162a1.94 1.94 0 00-.614.435 2.115 2.115 0 00-.409.635 2.02 2.02 0 00.767 2.446c.287.184.613.277.976.277zm7.753-8.319l-2.813 10.45h-.92l2.813-10.45h.92zm4.303.41V45H124.8v-7.62h-.051l-2.13 1.415v-1.074l2.181-1.448h1.057zm5.349-.12c.358.003.715.071 1.073.205.358.133.685.355.981.665.295.306.532.725.711 1.257.179.531.269 1.197.269 1.998 0 .776-.074 1.465-.222 2.067-.145.6-.355 1.105-.631 1.517a2.79 2.79 0 01-.997.938c-.389.213-.829.32-1.321.32a2.87 2.87 0 01-1.308-.29 2.572 2.572 0 01-.938-.814 2.837 2.837 0 01-.464-1.215h1.04c.094.4.28.732.558.993.281.259.652.388 1.112.388.674 0 1.205-.294 1.594-.882.392-.588.588-1.42.588-2.493h-.068a2.668 2.668 0 01-.567.618 2.503 2.503 0 01-1.581.54c-.5 0-.959-.123-1.376-.37a2.811 2.811 0 01-.997-1.027c-.248-.437-.371-.937-.371-1.5 0-.534.119-1.023.358-1.466a2.761 2.761 0 011.014-1.065c.437-.264.952-.392 1.543-.384zm0 .938a1.8 1.8 0 00-.968.268c-.284.176-.51.415-.677.716-.165.298-.247.63-.247.993 0 .364.079.695.238.993.162.295.382.531.661.707.281.174.601.26.958.26a1.817 1.817 0 001.364-.597c.176-.187.314-.398.413-.634a1.95 1.95 0 00-.098-1.705 1.953 1.953 0 00-.673-.724 1.742 1.742 0 00-.971-.277zm-12.994 22.713c.372.036.996.072 1.68.072h6.576c.6 0 1.02-.048 1.296-.072v1.176c-.252-.012-.756-.048-1.284-.048h-6.588c-.66 0-1.296.024-1.68.048v-1.176zm0 42c.372.036.996.072 1.68.072h6.576c.6 0 1.02-.048 1.296-.072v1.176c-.252-.012-.756-.048-1.284-.048h-6.588c-.66 0-1.296.024-1.68.048v-1.176z" fill="#000"/><path d="M172.335 68.835a8.091 8.091 0 01-4.845-1.58 8.236 8.236 0 01-2.94-4.028 8.077 8.077 0 01-.414-2.59c0-.907.138-1.77.414-2.587a8.18 8.18 0 012.94-4.031 8.089 8.089 0 014.845-1.581 8.129 8.129 0 014.841 1.581 8.102 8.102 0 011.777 1.776 8.14 8.14 0 011.168 2.255c.275.818.413 1.68.413 2.586a8.1 8.1 0 01-.413 2.591 8.154 8.154 0 01-1.168 2.25 8.104 8.104 0 01-1.777 1.777 8.134 8.134 0 01-2.254 1.168 8.054 8.054 0 01-2.587.413zm0-.988c.799 0 1.557-.123 2.276-.367a7.1 7.1 0 001.981-1.027 7.183 7.183 0 001.564-1.56 7.108 7.108 0 001.389-4.257 7.092 7.092 0 00-1.389-4.257 7.141 7.141 0 00-1.564-1.564 7.1 7.1 0 00-4.257-1.389 7.14 7.14 0 00-2.28.362 7.274 7.274 0 00-3.545 2.59 7.2 7.2 0 00-1.023 1.983 7.11 7.11 0 00-.362 2.275 7.136 7.136 0 001.385 4.258 7.317 7.317 0 003.545 2.586 7.065 7.065 0 002.28.367zm-144 42.988a8.104 8.104 0 01-4.845-1.581 8.225 8.225 0 01-2.94-4.027 8.084 8.084 0 01-.413-2.591c0-.906.137-1.768.413-2.586a8.195 8.195 0 012.94-4.031 8.087 8.087 0 014.845-1.581 8.127 8.127 0 014.84 1.581 8.108 8.108 0 011.778 1.776 8.125 8.125 0 011.581 4.841 8.084 8.084 0 01-1.58 4.841 8.102 8.102 0 01-1.778 1.777 8.14 8.14 0 01-2.254 1.168 8.065 8.065 0 01-2.587.413zm0-.988c.799 0 1.557-.123 2.276-.367a7.092 7.092 0 001.981-1.027 7.186 7.186 0 001.564-1.56 7.124 7.124 0 001.39-4.257 7.096 7.096 0 00-1.39-4.257 7.163 7.163 0 00-1.564-1.564 7.1 7.1 0 00-4.257-1.389 7.135 7.135 0 00-4.261 1.39c-.6.44-1.12.961-1.564 1.563a7.164 7.164 0 00-1.385 4.257 7.124 7.124 0 001.385 4.257c.443.6.964 1.12 1.564 1.56a7.17 7.17 0 004.261 1.394zm144 .988a8.105 8.105 0 01-4.845-1.581 8.227 8.227 0 01-2.94-4.027 8.073 8.073 0 01-.414-2.591 8.177 8.177 0 013.354-6.617 8.089 8.089 0 014.845-1.581 8.129 8.129 0 014.841 1.581 8.102 8.102 0 011.777 1.776 8.137 8.137 0 011.168 2.255c.275.818.413 1.68.413 2.586a8.1 8.1 0 01-1.581 4.841 8.095 8.095 0 01-1.777 1.777 8.14 8.14 0 01-2.254 1.168 8.067 8.067 0 01-2.587.413zm0-.988c.799 0 1.557-.123 2.276-.367a7.092 7.092 0 001.981-1.027 7.165 7.165 0 001.564-1.56 7.11 7.11 0 001.389-4.257 7.09 7.09 0 00-1.389-4.257 7.141 7.141 0 00-1.564-1.564 7.1 7.1 0 00-4.257-1.389 7.14 7.14 0 00-2.28.362 7.274 7.274 0 00-3.545 2.59 7.2 7.2 0 00-1.023 1.983 7.11 7.11 0 00-.362 2.275 7.138 7.138 0 001.385 4.257 7.298 7.298 0 003.545 2.587 7.074 7.074 0 002.28.367zm91 .988a8.105 8.105 0 01-4.845-1.581 8.227 8.227 0 01-2.94-4.027 8.073 8.073 0 01-.414-2.591 8.177 8.177 0 013.354-6.617 8.089 8.089 0 014.845-1.581 8.129 8.129 0 014.841 1.581 8.102 8.102 0 011.777 1.776 8.137 8.137 0 011.168 2.255c.275.818.413 1.68.413 2.586a8.1 8.1 0 01-1.581 4.841 8.095 8.095 0 01-1.777 1.777 8.14 8.14 0 01-2.254 1.168 8.067 8.067 0 01-2.587.413zm0-.988c.799 0 1.557-.123 2.276-.367a7.092 7.092 0 001.981-1.027 7.165 7.165 0 001.564-1.56 7.11 7.11 0 001.389-4.257 7.09 7.09 0 00-1.389-4.257 7.141 7.141 0 00-1.564-1.564 7.1 7.1 0 00-4.257-1.389 7.14 7.14 0 00-2.28.362 7.274 7.274 0 00-3.545 2.59 7.2 7.2 0 00-1.023 1.983 7.11 7.11 0 00-.362 2.275 7.138 7.138 0 001.385 4.257 7.298 7.298 0 003.545 2.587 7.074 7.074 0 002.28.367zm-188 .988a8.104 8.104 0 01-4.845-1.581 8.225 8.225 0 01-2.94-4.027 8.084 8.084 0 01-.413-2.591c0-.906.137-1.768.413-2.586a8.195 8.195 0 012.94-4.031 8.087 8.087 0 014.845-1.581 8.127 8.127 0 014.84 1.581 8.108 8.108 0 011.778 1.776 8.125 8.125 0 011.581 4.841 8.084 8.084 0 01-1.58 4.841 8.102 8.102 0 01-1.778 1.777 8.14 8.14 0 01-2.254 1.168 8.065 8.065 0 01-2.587.413zm0-.988c.799 0 1.557-.123 2.276-.367a7.092 7.092 0 001.981-1.027 7.186 7.186 0 001.564-1.56 7.124 7.124 0 001.39-4.257 7.096 7.096 0 00-1.39-4.257 7.163 7.163 0 00-1.564-1.564 7.1 7.1 0 00-4.257-1.389 7.135 7.135 0 00-4.261 1.39c-.6.44-1.12.961-1.564 1.563a7.164 7.164 0 00-1.385 4.257 7.124 7.124 0 001.385 4.257c.443.6.965 1.12 1.564 1.56a7.17 7.17 0 004.261 1.394zm141 .988a8.105 8.105 0 01-4.845-1.581 8.227 8.227 0 01-2.94-4.027 8.073 8.073 0 01-.414-2.591 8.177 8.177 0 013.354-6.617 8.089 8.089 0 014.845-1.581 8.129 8.129 0 014.841 1.581 8.102 8.102 0 011.777 1.776 8.137 8.137 0 011.168 2.255c.275.818.413 1.68.413 2.586a8.1 8.1 0 01-1.581 4.841 8.095 8.095 0 01-1.777 1.777 8.14 8.14 0 01-2.254 1.168 8.067 8.067 0 01-2.587.413zm0-.988c.799 0 1.557-.123 2.276-.367a7.092 7.092 0 001.981-1.027 7.165 7.165 0 001.564-1.56 7.11 7.11 0 001.389-4.257 7.09 7.09 0 00-1.389-4.257 7.141 7.141 0 00-1.564-1.564 7.1 7.1 0 00-4.257-1.389 7.14 7.14 0 00-2.28.362 7.274 7.274 0 00-3.545 2.59 7.2 7.2 0 00-1.023 1.983 7.11 7.11 0 00-.362 2.275 7.138 7.138 0 001.385 4.257 7.298 7.298 0 003.545 2.587 7.074 7.074 0 002.28.367zm94 .988a8.105 8.105 0 01-4.845-1.581 8.227 8.227 0 01-2.94-4.027 8.073 8.073 0 01-.414-2.591 8.177 8.177 0 013.354-6.617 8.089 8.089 0 014.845-1.581 8.129 8.129 0 014.841 1.581 8.102 8.102 0 011.777 1.776 8.137 8.137 0 011.168 2.255c.275.818.413 1.68.413 2.586a8.1 8.1 0 01-1.581 4.841 8.095 8.095 0 01-1.777 1.777 8.14 8.14 0 01-2.254 1.168 8.067 8.067 0 01-2.587.413zm0-.988c.799 0 1.557-.123 2.276-.367a7.092 7.092 0 001.981-1.027 7.165 7.165 0 001.564-1.56 7.11 7.11 0 001.389-4.257 7.09 7.09 0 00-1.389-4.257 7.141 7.141 0 00-1.564-1.564 7.1 7.1 0 00-4.257-1.389 7.14 7.14 0 00-2.28.362 7.274 7.274 0 00-3.545 2.59 7.2 7.2 0 00-1.023 1.983 7.11 7.11 0 00-.362 2.275 7.138 7.138 0 001.385 4.257 7.298 7.298 0 003.545 2.587 7.074 7.074 0 002.28.367zm-94-41.012a8.091 8.091 0 01-4.845-1.58 8.236 8.236 0 01-2.94-4.028 8.077 8.077 0 01-.414-2.59c0-.907.138-1.77.414-2.587a8.18 8.18 0 012.94-4.031 8.089 8.089 0 014.845-1.581 8.129 8.129 0 014.841 1.581 8.102 8.102 0 011.777 1.776 8.14 8.14 0 011.168 2.255c.275.818.413 1.68.413 2.586a8.1 8.1 0 01-.413 2.591 8.154 8.154 0 01-1.168 2.25 8.104 8.104 0 01-1.777 1.777 8.134 8.134 0 01-2.254 1.168 8.054 8.054 0 01-2.587.413zm0-.988c.799 0 1.557-.123 2.276-.367a7.1 7.1 0 001.981-1.027 7.183 7.183 0 001.564-1.56 7.108 7.108 0 001.389-4.257 7.092 7.092 0 00-1.389-4.257 7.141 7.141 0 00-1.564-1.564 7.1 7.1 0 00-4.257-1.389 7.14 7.14 0 00-2.28.362 7.274 7.274 0 00-3.545 2.59 7.2 7.2 0 00-1.023 1.983 7.11 7.11 0 00-.362 2.275 7.136 7.136 0 001.385 4.258 7.317 7.317 0 003.545 2.586 7.065 7.065 0 002.28.367zm47 .988a8.091 8.091 0 01-4.845-1.58 8.236 8.236 0 01-2.94-4.028 8.077 8.077 0 01-.414-2.59c0-.907.138-1.77.414-2.587a8.18 8.18 0 012.94-4.031 8.089 8.089 0 014.845-1.581 8.129 8.129 0 014.841 1.581 8.102 8.102 0 011.777 1.776 8.14 8.14 0 011.168 2.255c.275.818.413 1.68.413 2.586a8.1 8.1 0 01-.413 2.591 8.154 8.154 0 01-1.168 2.25 8.104 8.104 0 01-1.777 1.777 8.134 8.134 0 01-2.254 1.168 8.054 8.054 0 01-2.587.413zm0-.988c.799 0 1.557-.123 2.276-.367a7.1 7.1 0 001.981-1.027 7.183 7.183 0 001.564-1.56 7.108 7.108 0 001.389-4.257 7.092 7.092 0 00-1.389-4.257 7.141 7.141 0 00-1.564-1.564 7.1 7.1 0 00-4.257-1.389 7.14 7.14 0 00-2.28.362 7.274 7.274 0 00-3.545 2.59 7.2 7.2 0 00-1.023 1.983 7.11 7.11 0 00-.362 2.275 7.136 7.136 0 001.385 4.258 7.317 7.317 0 003.545 2.586 7.065 7.065 0 002.28.367zm47 .988a8.091 8.091 0 01-4.845-1.58 8.236 8.236 0 01-2.94-4.028 8.077 8.077 0 01-.414-2.59c0-.907.138-1.77.414-2.587a8.18 8.18 0 012.94-4.031 8.089 8.089 0 014.845-1.581 8.129 8.129 0 014.841 1.581 8.102 8.102 0 011.777 1.776 8.14 8.14 0 011.168 2.255c.275.818.413 1.68.413 2.586a8.1 8.1 0 01-.413 2.591 8.154 8.154 0 01-1.168 2.25 8.104 8.104 0 01-1.777 1.777 8.134 8.134 0 01-2.254 1.168 8.054 8.054 0 01-2.587.413zm0-.988c.799 0 1.557-.123 2.276-.367a7.1 7.1 0 001.981-1.027 7.183 7.183 0 001.564-1.56 7.108 7.108 0 001.389-4.257 7.092 7.092 0 00-1.389-4.257 7.141 7.141 0 00-1.564-1.564 7.1 7.1 0 00-4.257-1.389 7.14 7.14 0 00-2.28.362 7.274 7.274 0 00-3.545 2.59 7.2 7.2 0 00-1.023 1.983 7.11 7.11 0 00-.362 2.275 7.136 7.136 0 001.385 4.258 7.317 7.317 0 003.545 2.586 7.065 7.065 0 002.28.367z" fill="#0075FF"/><path d="M71.212 59.804c.372.036.996.072 1.68.072h6.576c.6 0 1.02-.048 1.296-.072v1.176c-.252-.012-.756-.048-1.284-.048h-6.588c-.66 0-1.296.024-1.68.048v-1.176zm-47 0c.372.036.996.072 1.68.072h6.576c.6 0 1.02-.048 1.296-.072v1.176c-.252-.012-.756-.048-1.284-.048h-6.588c-.66 0-1.296.024-1.68.048v-1.176zm89.589 27.316a3.267 3.267 0 01-1.074-.205 2.576 2.576 0 01-.98-.66c-.295-.313-.533-.735-.711-1.266-.179-.535-.269-1.205-.269-2.012 0-.773.072-1.457.217-2.054.145-.6.355-1.103.631-1.513.276-.411.608-.724.997-.937a2.73 2.73 0 011.326-.32c.488 0 .923.098 1.303.294.384.194.697.463.938.81.241.347.398.746.469 1.197h-1.04a1.927 1.927 0 00-.563-.975c-.278-.259-.647-.388-1.107-.388-.677 0-1.209.294-1.599.882-.386.588-.58 1.413-.583 2.476h.068a2.557 2.557 0 012.148-1.16c.5 0 .957.126 1.372.376.415.247.747.59.997 1.027.25.434.375.933.375 1.495 0 .54-.121 1.035-.362 1.483a2.76 2.76 0 01-1.019 1.066c-.434.261-.946.389-1.534.383zm0-.938c.358 0 .679-.09.963-.269.287-.179.513-.419.678-.72.167-.301.251-.636.251-1.006 0-.36-.081-.688-.243-.984a1.852 1.852 0 00-.66-.712 1.75 1.75 0 00-.955-.264c-.27 0-.521.054-.754.162a1.94 1.94 0 00-.614.435 2.115 2.115 0 00-.409.635 2.02 2.02 0 00.767 2.446c.287.184.613.277.976.277zm7.753-8.319l-2.813 10.45h-.92l2.813-10.45h.92zM122.789 87v-.767l2.881-3.154c.338-.369.616-.69.835-.963.219-.275.381-.534.486-.775.108-.244.162-.5.162-.767 0-.307-.074-.573-.222-.797a1.439 1.439 0 00-.597-.52 1.928 1.928 0 00-.852-.183c-.335 0-.628.07-.878.209a1.435 1.435 0 00-.575.575c-.133.247-.2.537-.2.87h-1.006c0-.512.118-.961.354-1.347a2.46 2.46 0 01.963-.904 2.903 2.903 0 011.376-.324c.512 0 .965.108 1.36.324.395.216.704.507.929.874.224.366.336.774.336 1.223 0 .32-.058.635-.174.942-.114.303-.313.643-.597 1.018-.281.372-.672.827-1.172 1.364l-1.96 2.096v.068h4.057V87h-5.506zm10.223.12a3.256 3.256 0 01-1.073-.205 2.58 2.58 0 01-.981-.66c-.295-.313-.532-.735-.711-1.266-.179-.535-.269-1.205-.269-2.012 0-.773.073-1.457.218-2.054.145-.6.355-1.103.63-1.513.276-.411.608-.724.997-.937.393-.213.834-.32 1.326-.32.488 0 .923.098 1.304.294.383.194.696.463.937.81.242.347.398.746.469 1.197h-1.04a1.926 1.926 0 00-.562-.975c-.279-.259-.648-.388-1.108-.388-.676 0-1.209.294-1.598.882-.387.588-.581 1.413-.584 2.476h.068a2.557 2.557 0 012.148-1.16c.5 0 .957.126 1.372.376.415.247.747.59.997 1.027.25.434.375.933.375 1.495 0 .54-.121 1.035-.362 1.483a2.76 2.76 0 01-1.019 1.066c-.434.261-.946.389-1.534.383zm0-.938c.358 0 .679-.09.963-.269.287-.179.513-.419.678-.72.168-.301.251-.636.251-1.006 0-.36-.081-.688-.242-.984a1.862 1.862 0 00-.661-.712 1.747 1.747 0 00-.955-.264c-.269 0-.521.054-.754.162-.233.105-.437.25-.613.435-.174.184-.31.396-.41.635a2.02 2.02 0 00.768 2.446c.286.184.612.277.975.277zm33.1-72.982l1.464.312c-.204 1.512-.564 2.94-1.596 3.804l-1.308-.816c.876-.732 1.272-1.932 1.44-3.3zm7.368-.024l1.596.612c-.612 1.164-1.344 2.448-1.944 3.288l-1.248-.552a17.573 17.573 0 001.596-3.348zm-3.552-2.196h.792v3.756c0 1.824 1.128 4.608 4.872 5.988-.324.324-.78.936-.996 1.356-2.88-1.176-4.332-3.588-4.668-4.776-.324 1.224-1.644 3.564-4.488 4.776-.192-.324-.696-.936-1.008-1.236 3.624-1.38 4.716-4.296 4.716-6.096V10.98h.78zm-7.127 34.14a3.267 3.267 0 01-1.074-.205 2.576 2.576 0 01-.98-.66c-.295-.313-.533-.735-.711-1.267-.179-.534-.269-1.204-.269-2.01 0-.774.072-1.458.217-2.055.145-.6.355-1.104.631-1.513.276-.411.608-.724.997-.937a2.73 2.73 0 011.326-.32c.488 0 .923.098 1.303.294.384.194.697.463.938.81.241.347.398.746.469 1.197h-1.04a1.927 1.927 0 00-.563-.975c-.278-.259-.647-.388-1.107-.388-.677 0-1.209.294-1.599.882-.386.588-.58 1.413-.583 2.476h.068a2.557 2.557 0 012.148-1.16c.5 0 .957.126 1.372.376.415.247.747.59.997 1.027.25.434.375.933.375 1.495 0 .54-.121 1.035-.362 1.483a2.76 2.76 0 01-1.019 1.066c-.434.261-.946.389-1.534.383zm0-.938c.358 0 .679-.09.963-.269.287-.179.513-.419.678-.72.167-.301.251-.636.251-1.006 0-.36-.081-.688-.243-.984a1.852 1.852 0 00-.66-.712 1.75 1.75 0 00-.955-.264c-.27 0-.521.054-.754.162a1.94 1.94 0 00-.614.435 2.115 2.115 0 00-.409.635 2.02 2.02 0 00.767 2.446c.287.184.613.277.976.277zm7.753-8.319l-2.813 10.45h-.92l2.813-10.45h.92zM171.789 45v-.767l2.881-3.154c.338-.369.616-.69.835-.963.219-.275.381-.534.486-.775.108-.245.162-.5.162-.767 0-.307-.074-.573-.222-.797a1.439 1.439 0 00-.597-.52 1.928 1.928 0 00-.852-.183c-.335 0-.628.07-.878.209a1.435 1.435 0 00-.575.575c-.133.247-.2.537-.2.87h-1.006c0-.512.118-.961.354-1.347a2.46 2.46 0 01.963-.904 2.903 2.903 0 011.376-.324c.512 0 .965.108 1.36.324.395.216.704.507.929.874.224.366.336.774.336 1.223 0 .32-.058.635-.174.942-.114.303-.313.643-.597 1.018-.281.372-.672.827-1.172 1.364l-1.96 2.096v.068h4.057V45h-5.506zm10.172.12c-.642 0-1.189-.175-1.64-.525-.452-.352-.797-.862-1.036-1.53-.239-.67-.358-1.48-.358-2.429 0-.943.119-1.748.358-2.416.242-.67.588-1.182 1.04-1.534.454-.355 1-.533 1.636-.533.637 0 1.181.178 1.632.533.455.352.801.864 1.04 1.534.242.668.362 1.473.362 2.416 0 .95-.119 1.759-.358 2.43-.238.667-.583 1.177-1.035 1.53-.452.349-.999.523-1.641.523zm0-.938c.637 0 1.131-.307 1.483-.92.352-.614.529-1.49.529-2.626 0-.755-.081-1.399-.243-1.93-.159-.531-.389-.936-.691-1.215a1.522 1.522 0 00-1.078-.417c-.63 0-1.123.31-1.478.933-.356.62-.533 1.496-.533 2.63 0 .755.079 1.397.239 1.925.159.529.387.93.686 1.206a1.55 1.55 0 001.086.414zm-19.16 42.938a3.267 3.267 0 01-1.074-.205 2.576 2.576 0 01-.98-.66c-.295-.313-.533-.735-.711-1.266-.179-.535-.269-1.205-.269-2.012 0-.773.072-1.457.217-2.054.145-.6.355-1.103.631-1.513.276-.411.608-.724.997-.937a2.73 2.73 0 011.326-.32c.488 0 .923.098 1.303.294.384.194.697.463.938.81.241.347.398.746.469 1.197h-1.04a1.927 1.927 0 00-.563-.975c-.278-.259-.647-.388-1.107-.388-.677 0-1.209.294-1.599.882-.386.588-.58 1.413-.583 2.476h.068a2.557 2.557 0 012.148-1.16c.5 0 .957.126 1.372.376.415.247.747.59.997 1.027.25.434.375.933.375 1.495 0 .54-.121 1.035-.362 1.483a2.76 2.76 0 01-1.019 1.066c-.434.261-.946.389-1.534.383zm0-.938c.358 0 .679-.09.963-.269.287-.179.513-.419.678-.72.167-.301.251-.636.251-1.006 0-.36-.081-.688-.243-.984a1.852 1.852 0 00-.66-.712 1.75 1.75 0 00-.955-.264c-.27 0-.521.054-.754.162a1.94 1.94 0 00-.614.435 2.115 2.115 0 00-.409.635 2.02 2.02 0 00.767 2.446c.287.184.613.277.976.277zm7.753-8.319l-2.813 10.45h-.92l2.813-10.45h.92zM171.789 87v-.767l2.881-3.154c.338-.369.616-.69.835-.963.219-.275.381-.534.486-.775.108-.244.162-.5.162-.767 0-.307-.074-.573-.222-.797a1.439 1.439 0 00-.597-.52 1.928 1.928 0 00-.852-.183c-.335 0-.628.07-.878.209a1.435 1.435 0 00-.575.575c-.133.247-.2.537-.2.87h-1.006c0-.512.118-.961.354-1.347a2.46 2.46 0 01.963-.904 2.903 2.903 0 011.376-.324c.512 0 .965.108 1.36.324.395.216.704.507.929.874.224.366.336.774.336 1.223 0 .32-.058.635-.174.942-.114.303-.313.643-.597 1.018-.281.372-.672.827-1.172 1.364l-1.96 2.096v.068h4.057V87h-5.506zm7.598 0l3.904-7.722v-.068h-4.5v-.937h5.591v.988L180.495 87h-1.108zm32.225-73.248h3.348v1.452h-3.348v-1.452zm4.668-2.928h1.524v9.396c0 .864-.18 1.296-.684 1.56-.516.252-1.308.312-2.4.312-.06-.444-.348-1.176-.576-1.608.792.036 1.548.036 1.812.036.24-.012.324-.084.324-.312v-9.384zm-1.812 2.928h.3l.252-.048.996.36c-.552 3.276-1.872 5.724-3.588 6.984-.252-.336-.84-.924-1.188-1.14 1.644-1.104 2.82-3.192 3.228-5.844v-.312zm3.252-1.176c.768 3.18 2.34 6.012 5.028 7.296-.36.3-.864.9-1.104 1.344-2.784-1.572-4.212-4.692-5.064-8.4l1.14-.24zm3.36.108l1.356.948c-1.02 1.08-2.304 2.292-3.312 3.048l-1.032-.816c.972-.804 2.244-2.112 2.988-3.18zM209.801 45.12a3.267 3.267 0 01-1.074-.205 2.576 2.576 0 01-.98-.66c-.295-.313-.533-.735-.711-1.267-.179-.534-.269-1.204-.269-2.01 0-.774.072-1.458.217-2.055.145-.6.355-1.104.631-1.513.276-.411.608-.724.997-.937a2.73 2.73 0 011.326-.32c.488 0 .923.098 1.303.294.384.194.697.463.938.81.241.347.398.746.469 1.197h-1.04a1.927 1.927 0 00-.563-.975c-.278-.259-.647-.388-1.107-.388-.677 0-1.209.294-1.599.882-.386.588-.58 1.413-.583 2.476h.068a2.557 2.557 0 012.148-1.16c.5 0 .957.126 1.372.376.415.247.747.59.997 1.027.25.434.375.933.375 1.495 0 .54-.121 1.035-.362 1.483a2.76 2.76 0 01-1.019 1.066c-.434.261-.946.389-1.534.383zm0-.938c.358 0 .679-.09.963-.269.287-.179.513-.419.678-.72.167-.301.251-.636.251-1.006 0-.36-.081-.688-.243-.984a1.852 1.852 0 00-.66-.712 1.75 1.75 0 00-.955-.264c-.27 0-.521.054-.754.162a1.94 1.94 0 00-.614.435 2.115 2.115 0 00-.409.635 2.02 2.02 0 00.767 2.446c.287.184.613.277.976.277zm7.753-8.319l-2.813 10.45h-.92l2.813-10.45h.92zM218.789 45v-.767l2.881-3.154c.338-.369.616-.69.835-.963.219-.275.381-.534.486-.775.108-.245.162-.5.162-.767 0-.307-.074-.573-.222-.797a1.439 1.439 0 00-.597-.52 1.928 1.928 0 00-.852-.183c-.335 0-.628.07-.878.209a1.435 1.435 0 00-.575.575c-.133.247-.2.537-.2.87h-1.006c0-.512.118-.961.354-1.347a2.46 2.46 0 01.963-.904 2.903 2.903 0 011.376-.324c.512 0 .965.108 1.36.324.395.216.704.507.929.874.224.366.336.774.336 1.223 0 .32-.058.635-.174.942-.114.303-.313.643-.597 1.018-.281.372-.672.827-1.172 1.364l-1.96 2.096v.068h4.057V45h-5.506zm10.394-8.727V45h-1.057v-7.62h-.051l-2.131 1.415v-1.074l2.182-1.448h1.057zM209.801 87.12a3.267 3.267 0 01-1.074-.205 2.576 2.576 0 01-.98-.66c-.295-.313-.533-.735-.711-1.266-.179-.535-.269-1.205-.269-2.012 0-.773.072-1.457.217-2.054.145-.6.355-1.103.631-1.513.276-.411.608-.724.997-.937a2.73 2.73 0 011.326-.32c.488 0 .923.098 1.303.294.384.194.697.463.938.81.241.347.398.746.469 1.197h-1.04a1.927 1.927 0 00-.563-.975c-.278-.259-.647-.388-1.107-.388-.677 0-1.209.294-1.599.882-.386.588-.58 1.413-.583 2.476h.068a2.557 2.557 0 012.148-1.16c.5 0 .957.126 1.372.376.415.247.747.59.997 1.027.25.434.375.933.375 1.495 0 .54-.121 1.035-.362 1.483a2.76 2.76 0 01-1.019 1.066c-.434.261-.946.389-1.534.383zm0-.938c.358 0 .679-.09.963-.269.287-.179.513-.419.678-.72.167-.301.251-.636.251-1.006 0-.36-.081-.688-.243-.984a1.852 1.852 0 00-.66-.712 1.75 1.75 0 00-.955-.264c-.27 0-.521.054-.754.162a1.94 1.94 0 00-.614.435 2.115 2.115 0 00-.409.635 2.02 2.02 0 00.767 2.446c.287.184.613.277.976.277zm7.753-8.319l-2.813 10.45h-.92l2.813-10.45h.92zM218.789 87v-.767l2.881-3.154c.338-.369.616-.69.835-.963.219-.275.381-.534.486-.775.108-.244.162-.5.162-.767 0-.307-.074-.573-.222-.797a1.439 1.439 0 00-.597-.52 1.928 1.928 0 00-.852-.183c-.335 0-.628.07-.878.209a1.435 1.435 0 00-.575.575c-.133.247-.2.537-.2.87h-1.006c0-.512.118-.961.354-1.347a2.46 2.46 0 01.963-.904 2.903 2.903 0 011.376-.324c.512 0 .965.108 1.36.324.395.216.704.507.929.874.224.366.336.774.336 1.223 0 .32-.058.635-.174.942-.114.303-.313.643-.597 1.018-.281.372-.672.827-1.172 1.364l-1.96 2.096v.068h4.057V87h-5.506zm10.121.12c-.585 0-1.102-.105-1.551-.312a2.54 2.54 0 01-1.044-.865c-.25-.37-.374-.79-.371-1.261a2.314 2.314 0 01.823-1.811c.258-.213.547-.348.865-.405v-.051a1.683 1.683 0 01-.997-.704 2.123 2.123 0 01-.367-1.24 2.1 2.1 0 01.337-1.188c.227-.35.539-.625.937-.827a3.003 3.003 0 011.368-.303c.506 0 .958.101 1.355.303.398.202.71.477.938.827.23.349.346.745.349 1.189a2.162 2.162 0 01-.379 1.24c-.247.36-.575.595-.984.703v.05a1.8 1.8 0 01.852.406 2.378 2.378 0 01.835 1.811 2.211 2.211 0 01-.383 1.261c-.25.367-.599.655-1.045.865-.443.207-.955.311-1.538.311zm0-.938c.395 0 .736-.064 1.023-.192.287-.128.508-.308.665-.541.156-.233.235-.506.238-.818a1.575 1.575 0 00-.255-.874 1.739 1.739 0 00-.687-.597 2.15 2.15 0 00-.984-.217 2.23 2.23 0 00-.997.217 1.73 1.73 0 00-.686.597 1.536 1.536 0 00-.243.874c-.003.312.072.585.226.818.156.233.379.413.669.541.29.128.633.192 1.031.192zm0-4.142c.313 0 .59-.063.831-.188.244-.125.436-.3.575-.524.14-.224.211-.487.213-.788a1.45 1.45 0 00-.208-.772 1.362 1.362 0 00-.567-.511 1.848 1.848 0 00-.844-.183c-.327 0-.612.06-.856.183-.245.12-.434.29-.567.511a1.418 1.418 0 00-.196.772c-.003.3.064.564.2.788.139.224.331.4.575.524.245.125.526.188.844.188zm29.81-68.432h10.56v1.428h-10.56v-1.428zm4.5-2.796h1.536V22.08h-1.536V10.812zm-.312 3.588l1.272.42c-1.08 2.532-2.856 4.824-4.92 6.132a8.138 8.138 0 00-1.08-1.236c1.98-1.08 3.804-3.204 4.728-5.316zm2.124.06c.948 2.04 2.82 4.128 4.776 5.184a6.111 6.111 0 00-1.092 1.26c-2.004-1.296-3.78-3.588-4.884-6.024l1.2-.42zm-8.231 30.66a3.267 3.267 0 01-1.074-.205 2.576 2.576 0 01-.98-.66c-.295-.313-.533-.735-.711-1.267-.179-.534-.269-1.204-.269-2.01 0-.774.072-1.458.217-2.055.145-.6.355-1.104.631-1.513.276-.411.608-.724.997-.937a2.73 2.73 0 011.326-.32c.488 0 .923.098 1.303.294.384.194.697.463.938.81.241.347.398.746.469 1.197h-1.04a1.927 1.927 0 00-.563-.975c-.278-.259-.647-.388-1.107-.388-.677 0-1.209.294-1.599.882-.386.588-.58 1.413-.583 2.476h.068a2.557 2.557 0 012.148-1.16c.5 0 .957.126 1.372.376.415.247.747.59.997 1.027.25.434.375.933.375 1.495 0 .54-.121 1.035-.362 1.483a2.76 2.76 0 01-1.019 1.066c-.434.261-.946.389-1.534.383zm0-.938c.358 0 .679-.09.963-.269.287-.179.513-.419.678-.72.167-.301.251-.636.251-1.006 0-.36-.081-.688-.243-.984a1.852 1.852 0 00-.66-.712 1.75 1.75 0 00-.955-.264c-.27 0-.521.054-.754.162a1.94 1.94 0 00-.614.435 2.115 2.115 0 00-.409.635 2.02 2.02 0 00.767 2.446c.287.184.613.277.976.277zm7.753-8.319l-2.813 10.45h-.92l2.813-10.45h.92zM265.789 45v-.767l2.881-3.154c.338-.369.616-.69.835-.963.219-.275.381-.534.486-.775.108-.245.162-.5.162-.767 0-.307-.074-.573-.222-.797a1.439 1.439 0 00-.597-.52 1.928 1.928 0 00-.852-.183c-.335 0-.628.07-.878.209a1.435 1.435 0 00-.575.575c-.133.247-.2.537-.2.87h-1.006c0-.512.118-.961.354-1.347a2.46 2.46 0 01.963-.904 2.903 2.903 0 011.376-.324c.512 0 .965.108 1.36.324.395.216.704.507.929.874.224.366.336.774.336 1.223 0 .32-.058.635-.174.942-.114.303-.313.643-.597 1.018-.281.372-.672.827-1.172 1.364l-1.96 2.096v.068h4.057V45h-5.506zm7.326 0v-.767l2.88-3.154c.338-.369.617-.69.836-.963a3.58 3.58 0 00.485-.775c.108-.245.162-.5.162-.767a1.42 1.42 0 00-.221-.797 1.439 1.439 0 00-.597-.52 1.934 1.934 0 00-.852-.183c-.335 0-.628.07-.878.209a1.435 1.435 0 00-.575.575 1.796 1.796 0 00-.201.87h-1.005c0-.512.118-.961.353-1.347.236-.387.557-.688.964-.904a2.9 2.9 0 011.376-.324c.511 0 .964.108 1.359.324.395.216.705.507.929.874.225.366.337.774.337 1.223 0 .32-.058.635-.175.942-.113.303-.312.643-.596 1.018a18.39 18.39 0 01-1.172 1.364l-1.96 2.096v.068h4.056V45h-5.505zm-16.314 42.12a3.267 3.267 0 01-1.074-.205 2.576 2.576 0 01-.98-.66c-.295-.313-.533-.735-.711-1.266-.179-.535-.269-1.205-.269-2.012 0-.773.072-1.457.217-2.054.145-.6.355-1.103.631-1.513.276-.411.608-.724.997-.937a2.73 2.73 0 011.326-.32c.488 0 .923.098 1.303.294.384.194.697.463.938.81.241.347.398.746.469 1.197h-1.04a1.927 1.927 0 00-.563-.975c-.278-.259-.647-.388-1.107-.388-.677 0-1.209.294-1.599.882-.386.588-.58 1.413-.583 2.476h.068a2.557 2.557 0 012.148-1.16c.5 0 .957.126 1.372.376.415.247.747.59.997 1.027.25.434.375.933.375 1.495 0 .54-.121 1.035-.362 1.483a2.76 2.76 0 01-1.019 1.066c-.434.261-.946.389-1.534.383zm0-.938c.358 0 .679-.09.963-.269.287-.179.513-.419.678-.72.167-.301.251-.636.251-1.006 0-.36-.081-.688-.243-.984a1.852 1.852 0 00-.66-.712 1.75 1.75 0 00-.955-.264c-.27 0-.521.054-.754.162a1.94 1.94 0 00-.614.435 2.115 2.115 0 00-.409.635 2.02 2.02 0 00.767 2.446c.287.184.613.277.976.277zm7.753-8.319l-2.813 10.45h-.92l2.813-10.45h.92zM265.789 87v-.767l2.881-3.154c.338-.369.616-.69.835-.963.219-.275.381-.534.486-.775.108-.244.162-.5.162-.767 0-.307-.074-.573-.222-.797a1.439 1.439 0 00-.597-.52 1.928 1.928 0 00-.852-.183c-.335 0-.628.07-.878.209a1.435 1.435 0 00-.575.575c-.133.247-.2.537-.2.87h-1.006c0-.512.118-.961.354-1.347a2.46 2.46 0 01.963-.904 2.903 2.903 0 011.376-.324c.512 0 .965.108 1.36.324.395.216.704.507.929.874.224.366.336.774.336 1.223 0 .32-.058.635-.174.942-.114.303-.313.643-.597 1.018-.281.372-.672.827-1.172 1.364l-1.96 2.096v.068h4.057V87h-5.506zm10.104-8.847a3.12 3.12 0 011.074.205c.358.133.685.355.98.665.296.306.533.726.712 1.257.179.531.268 1.197.268 1.998 0 .776-.074 1.465-.221 2.067-.145.6-.356 1.105-.631 1.517a2.799 2.799 0 01-.997.938c-.389.213-.83.32-1.321.32-.489 0-.925-.097-1.309-.29a2.569 2.569 0 01-.937-.814 2.838 2.838 0 01-.465-1.215h1.04c.094.4.28.732.558.993.282.258.652.388 1.113.388.673 0 1.204-.294 1.593-.882.393-.588.589-1.42.589-2.493h-.069a2.686 2.686 0 01-.566.618 2.503 2.503 0 01-1.581.54c-.5 0-.959-.123-1.377-.37a2.811 2.811 0 01-.997-1.027c-.247-.437-.371-.937-.371-1.5 0-.534.12-1.023.358-1.466.242-.446.58-.801 1.014-1.065.438-.264.952-.392 1.543-.384zm0 .938c-.358 0-.68.09-.967.268-.284.176-.51.415-.678.716a2.02 2.02 0 00-.247.993c0 .364.08.695.239.993.162.295.382.531.66.707.281.174.601.26.959.26.27 0 .521-.052.754-.157.233-.108.436-.255.61-.44.176-.187.314-.398.413-.634a1.955 1.955 0 00-.098-1.705 1.961 1.961 0 00-.673-.724 1.743 1.743 0 00-.972-.277zm35.059-66.911c-.996 1.404-2.832 2.976-4.8 4.02-.18-.336-.588-.864-.9-1.164 2.064-1.008 3.996-2.808 4.884-4.26h1.5c1.296 1.824 3.228 3.336 5.136 4.116-.348.36-.684.852-.948 1.296-1.836-.972-3.84-2.592-4.872-4.008zm-3.012 2.232h6.048v1.26h-6.048v-1.26zm-1.428 2.448h8.892v1.236h-8.892V16.86zm-.612 3.648h10.2v1.236h-10.2v-1.236zm4.26-5.592h1.536v6.204h-1.536v-6.204zm-2.904 3.636l1.164-.48c.456.612.936 1.44 1.116 2.004l-1.248.54c-.156-.552-.6-1.428-1.032-2.064zm6.108-.468l1.368.516c-.492.732-1.02 1.512-1.44 2.016l-1.08-.444c.384-.564.888-1.44 1.152-2.088zm-9.563 27.036a3.267 3.267 0 01-1.074-.205 2.576 2.576 0 01-.98-.66c-.295-.313-.533-.735-.711-1.267-.179-.534-.269-1.204-.269-2.01 0-.774.072-1.458.217-2.055.145-.6.355-1.104.631-1.513.276-.411.608-.724.997-.937a2.73 2.73 0 011.326-.32c.488 0 .923.098 1.303.294.384.194.697.463.938.81.241.347.398.746.469 1.197h-1.04a1.927 1.927 0 00-.563-.975c-.278-.259-.647-.388-1.107-.388-.677 0-1.209.294-1.599.882-.386.588-.58 1.413-.583 2.476h.068a2.557 2.557 0 012.148-1.16c.5 0 .957.126 1.372.376.415.247.747.59.997 1.027.25.434.375.933.375 1.495 0 .54-.121 1.035-.362 1.483a2.76 2.76 0 01-1.019 1.066c-.434.261-.946.389-1.534.383zm0-.938c.358 0 .679-.09.963-.269.287-.179.513-.419.678-.72.167-.301.251-.636.251-1.006 0-.36-.081-.688-.243-.984a1.852 1.852 0 00-.66-.712 1.75 1.75 0 00-.955-.264c-.27 0-.521.054-.754.162a1.94 1.94 0 00-.614.435 2.115 2.115 0 00-.409.635 2.02 2.02 0 00.767 2.446c.287.184.613.277.976.277zm7.753-8.319l-2.813 10.45h-.92l2.813-10.45h.92zM312.789 45v-.767l2.881-3.154c.338-.369.616-.69.835-.963.219-.275.381-.534.486-.775.108-.245.162-.5.162-.767 0-.307-.074-.573-.222-.797a1.439 1.439 0 00-.597-.52 1.928 1.928 0 00-.852-.183c-.335 0-.628.07-.878.209a1.435 1.435 0 00-.575.575c-.133.247-.2.537-.2.87h-1.006c0-.512.118-.961.354-1.347a2.46 2.46 0 01.963-.904 2.903 2.903 0 011.376-.324c.512 0 .965.108 1.36.324.395.216.704.507.929.874.224.366.336.774.336 1.223 0 .32-.058.635-.174.942-.114.303-.313.643-.597 1.018-.281.372-.672.827-1.172 1.364l-1.96 2.096v.068h4.057V45h-5.506zm10.275.12c-.563 0-1.064-.097-1.505-.29a2.582 2.582 0 01-1.044-.806 2.164 2.164 0 01-.417-1.206h1.073c.023.281.12.524.29.729.171.202.394.358.669.469.276.11.581.166.916.166.375 0 .708-.066.998-.196.289-.131.517-.313.681-.546.165-.233.248-.503.248-.81 0-.32-.08-.603-.239-.847a1.579 1.579 0 00-.699-.58c-.307-.14-.682-.209-1.125-.209h-.699v-.937h.699c.347 0 .651-.063.912-.188a1.414 1.414 0 00.844-1.33c0-.295-.066-.552-.196-.77a1.347 1.347 0 00-.554-.512 1.792 1.792 0 00-.835-.183c-.302 0-.586.055-.853.166-.264.108-.48.266-.647.473a1.228 1.228 0 00-.273.741h-1.023c.017-.457.155-.858.413-1.201a2.605 2.605 0 011.015-.81c.42-.193.882-.29 1.385-.29.539 0 1.002.11 1.389.328.386.216.683.502.89.857.208.355.312.739.312 1.15 0 .492-.13.911-.388 1.258a1.968 1.968 0 01-1.044.72v.068c.551.09.981.325 1.291.703.31.375.464.84.464 1.394 0 .474-.129.9-.387 1.278a2.64 2.64 0 01-1.049.886c-.443.216-.947.324-1.512.324zm-19.263 42a3.267 3.267 0 01-1.074-.205 2.576 2.576 0 01-.98-.66c-.295-.313-.533-.735-.711-1.266-.179-.535-.269-1.205-.269-2.012 0-.773.072-1.457.217-2.054.145-.6.355-1.103.631-1.513.276-.411.608-.724.997-.937a2.73 2.73 0 011.326-.32c.488 0 .923.098 1.303.294.384.194.697.463.938.81.241.347.398.746.469 1.197h-1.04a1.927 1.927 0 00-.563-.975c-.278-.259-.647-.388-1.107-.388-.677 0-1.209.294-1.599.882-.386.588-.58 1.413-.583 2.476h.068a2.557 2.557 0 012.148-1.16c.5 0 .957.126 1.372.376.415.247.747.59.997 1.027.25.434.375.933.375 1.495 0 .54-.121 1.035-.362 1.483a2.76 2.76 0 01-1.019 1.066c-.434.261-.946.389-1.534.383zm0-.938c.358 0 .679-.09.963-.269.287-.179.513-.419.678-.72.167-.301.251-.636.251-1.006 0-.36-.081-.688-.243-.984a1.852 1.852 0 00-.66-.712 1.75 1.75 0 00-.955-.264c-.27 0-.521.054-.754.162a1.94 1.94 0 00-.614.435 2.115 2.115 0 00-.409.635 2.02 2.02 0 00.767 2.446c.287.184.613.277.976.277zm7.753-8.319l-2.813 10.45h-.92l2.813-10.45h.92zm4.184 9.256c-.563 0-1.064-.096-1.504-.29a2.569 2.569 0 01-1.044-.805 2.165 2.165 0 01-.418-1.206h1.074c.023.281.119.524.29.729.17.202.393.358.669.469.275.11.581.166.916.166.375 0 .707-.066.997-.196.29-.131.517-.313.682-.546.165-.233.247-.503.247-.81 0-.32-.08-.603-.239-.847a1.579 1.579 0 00-.699-.58c-.306-.14-.681-.209-1.125-.209h-.698v-.937h.698c.347 0 .651-.063.912-.188a1.414 1.414 0 00.844-1.33c0-.295-.065-.552-.196-.77a1.34 1.34 0 00-.554-.512 1.792 1.792 0 00-.835-.183 2.2 2.2 0 00-.852.166 1.59 1.59 0 00-.648.473 1.228 1.228 0 00-.273.741h-1.023c.018-.457.155-.857.414-1.201a2.595 2.595 0 011.014-.81c.421-.193.882-.29 1.385-.29.54 0 1.003.11 1.389.328.387.216.683.502.891.857.207.355.311.739.311 1.15 0 .492-.129.911-.388 1.258a1.968 1.968 0 01-1.044.72v.068c.551.09.982.325 1.291.703.31.375.465.84.465 1.394 0 .474-.129.9-.388 1.278-.256.375-.605.67-1.048.886-.443.216-.948.324-1.513.324zm7.598 0c-.642 0-1.189-.174-1.64-.524-.452-.352-.797-.862-1.036-1.53-.239-.67-.358-1.48-.358-2.429 0-.943.119-1.748.358-2.416.242-.67.588-1.182 1.04-1.534.454-.355 1-.533 1.636-.533.637 0 1.181.178 1.632.533.455.352.801.864 1.04 1.534.242.668.362 1.473.362 2.416 0 .95-.119 1.759-.358 2.43-.238.667-.583 1.177-1.035 1.53-.452.349-.999.523-1.641.523zm0-.937c.637 0 1.131-.307 1.483-.92.352-.614.529-1.49.529-2.626 0-.755-.081-1.399-.243-1.93-.159-.531-.389-.936-.691-1.215a1.522 1.522 0 00-1.078-.417c-.63 0-1.123.31-1.478.933-.356.62-.533 1.496-.533 2.63 0 .755.079 1.397.239 1.925.159.529.387.93.686 1.206a1.55 1.55 0 001.086.414z" fill="#000"/></svg>