<svg width="25" height="25" fill="none" xmlns="http://www.w3.org/2000/svg"><g clip-path="url(#clip0_1007547_143)"><path d="M12.5 4.166a4.861 4.861 0 10.001 9.722 4.861 4.861 0 000-9.722zm0 8.333a3.473 3.473 0 110-6.945 3.473 3.473 0 010 6.945zm0-12.5C5.598-.001 0 5.597 0 12.5 0 19.404 5.597 25 12.5 25c6.904 0 12.501-5.596 12.501-12.5 0-6.903-5.598-12.5-12.5-12.5v-.001zM5.557 19.7v-.256a2.778 2.778 0 012.778-2.778h8.333a2.778 2.778 0 012.778 2.778v.256a2.74 2.74 0 01-1.311 2.367 11.058 11.058 0 01-11.267 0 2.739 2.739 0 01-1.31-2.367zm15.277.125v-.375c0-2.3-1.865-4.166-4.166-4.166H8.334a4.166 4.166 0 00-4.166 4.166v.375C.108 15.224.548 8.203 5.15 4.143a11.112 11.112 0 0115.683 15.683z" fill="#000"/></g><defs><clipPath id="clip0_1007547_143"><path fill="#fff" d="M0 0h25v25H0z"/></clipPath></defs></svg>