<svg width="23" height="20" fill="none" xmlns="http://www.w3.org/2000/svg"><path d="M14.852 19.99c-.613.03-1.18-.175-1.748-.368-.44-.149-.872-.32-1.329-.403-.505-.092-1-.049-1.491.093-.49.142-.967.332-1.453.488a3.875 3.875 0 01-1.536.186 3.334 3.334 0 01-1.917-.807c-.518-.442-.871-1.012-1.09-1.685a4.006 4.006 0 01-.175-.955c-.06-.842.14-1.613.5-2.342.134-.272.304-.52.49-.752.44-.548.955-1.005 1.464-1.47.433-.394.854-.805 1.234-1.262.447-.538.874-1.097 1.358-1.596.433-.447.907-.828 1.497-.985.664-.176 1.288-.054 1.871.329.535.35.967.833 1.38 1.34.161.198.323.397.488.592.25.294.496.593.763.87.291.301.6.58.907.862.244.226.485.456.723.689.335.327.644.68.895 1.09.31.506.52 1.057.619 1.66.038.234.068.47.063.706-.02.922-.278 1.745-.838 2.444a3.324 3.324 0 01-2.674 1.276zM11.99 4.088c-.007-.995.228-1.838.69-2.604A3.294 3.294 0 0113.86.299c.291-.167.602-.264.934-.291.58-.049 1.092.136 1.545.52.413.35.69.814.877 1.348.18.517.27 1.053.247 1.605-.041.96-.3 1.84-.837 2.608-.37.53-.832.925-1.408 1.142a1.993 1.993 0 01-1.71-.114c-.462-.248-.812-.637-1.064-1.129a3.956 3.956 0 01-.454-1.9zm10.469 4.636c-.005 1.022-.28 1.948-.849 2.753-.42.594-.954 1.02-1.632 1.185-.72.176-1.366-.008-1.934-.528-.558-.511-.846-1.193-.99-1.96a4.162 4.162 0 01-.07-.986c.03-.571.14-1.123.348-1.649a4.07 4.07 0 01.816-1.314c.418-.44.906-.745 1.482-.843.626-.105 1.196.069 1.697.496.59.505.905 1.195 1.06 1.986.054.283.082.57.072.86zM0 8.888c.006-1.053.206-1.851.7-2.535.397-.55.908-.9 1.557-.978.74-.088 1.363.202 1.914.716.683.637 1.063 1.472 1.232 2.426.166.944.076 1.858-.332 2.719-.303.637-.745 1.109-1.365 1.352-.575.225-1.145.18-1.699-.1-.864-.438-1.4-1.202-1.737-2.158C.088 9.81-.007 9.234 0 8.888zm10.472-4.94c.009.934-.201 1.72-.678 2.403-.39.56-.904.905-1.548.994-.685.095-1.282-.146-1.813-.6-.739-.628-1.151-1.483-1.346-2.477a4.442 4.442 0 01-.089-.933c.016-.855.205-1.655.697-2.336C6.113.42 6.65.069 7.33.01c.686-.06 1.271.205 1.791.673.69.622 1.078 1.447 1.27 2.392.062.31.099.627.08.873z" fill="#fff"/></svg>