<svg width="22" height="20" fill="none" xmlns="http://www.w3.org/2000/svg"><g clip-path="url(#clip0_1007552_322)" fill="#BDBF12"><path d="M14.547 19.99c-.6.03-1.155-.175-1.712-.368-.43-.15-.854-.32-1.302-.404a3.087 3.087 0 00-1.46.094c-.48.142-.947.332-1.423.488a3.724 3.724 0 01-1.504.186 3.232 3.232 0 01-1.878-.807c-.507-.443-.854-1.012-1.069-1.685a4.04 4.04 0 01-.17-.956c-.058-.842.136-1.612.49-2.341.13-.272.297-.52.48-.752.43-.548.935-1.006 1.433-1.47a12.62 12.62 0 001.209-1.263c.438-.538.856-1.097 1.33-1.596.424-.447.888-.828 1.467-.984.65-.176 1.26-.054 1.832.328.524.351.947.833 1.351 1.34.159.199.317.398.479.593.245.294.486.593.747.87.285.3.588.58.888.862.24.225.476.455.71.688.326.328.63.681.876 1.091a4.63 4.63 0 01.605 1.66 3.9 3.9 0 01.062.706c-.02.921-.272 1.745-.82 2.444a3.244 3.244 0 01-2.01 1.228c-.205.04-.41.052-.61.048zM11.745 4.088c-.007-.996.222-1.839.674-2.605A3.262 3.262 0 0113.577.3a2.15 2.15 0 01.915-.292c.568-.048 1.069.137 1.513.521.404.35.676.814.859 1.347a4.37 4.37 0 01.242 1.606c-.04.96-.294 1.84-.82 2.607-.362.53-.815.926-1.38 1.143a1.916 1.916 0 01-1.675-.115c-.452-.247-.794-.636-1.041-1.128a4.025 4.025 0 01-.445-1.9zm10.253 4.636c-.005 1.022-.274 1.947-.831 2.753-.412.594-.935 1.02-1.6 1.185-.705.176-1.337-.009-1.893-.528-.547-.512-.829-1.193-.97-1.96a4.246 4.246 0 01-.068-.986 5.31 5.31 0 01.34-1.65 4.07 4.07 0 01.8-1.313c.409-.44.887-.746 1.45-.843.614-.105 1.173.069 1.663.496.579.504.887 1.195 1.038 1.986.054.282.081.57.07.86zM0 8.888c.005-1.054.202-1.852.685-2.535.39-.551.89-.9 1.526-.978.725-.089 1.335.202 1.875.716.668.637 1.04 1.472 1.206 2.426.163.943.075 1.858-.326 2.719-.296.636-.729 1.109-1.336 1.351-.564.226-1.122.18-1.664-.1C1.12 12.05.595 11.285.265 10.33.085 9.811-.007 9.233 0 8.888zm10.257-4.941c.008.935-.197 1.72-.664 2.404-.382.56-.886.904-1.517.994-.67.095-1.255-.147-1.776-.6-.723-.628-1.127-1.483-1.318-2.478a4.531 4.531 0 01-.086-.932c.015-.856.2-1.656.682-2.337C5.988.42 6.513.07 7.18.01c.672-.06 1.245.204 1.754.673.675.622 1.055 1.447 1.243 2.392.061.31.097.626.079.872z"/></g><defs><clipPath id="clip0_1007552_322"><path fill="#fff" d="M0 0h22v20H0z"/></clipPath></defs></svg>