<svg width="101" height="25" fill="none" xmlns="http://www.w3.org/2000/svg"><path d="M29.004 19.6l-4.62 4.796C20.093 20.89 15.67 16.1 11.63 9.87L5.384 22.54 0 19.424 8.753 2.272h5.315c4.585 7 9.552 12.777 14.936 17.328zm1.562-14.158c0 1.591-.628 2.847-1.674 3.894-1.13 1.047-2.386 1.549-3.977 1.549-1.59 0-2.804-.503-3.977-1.55-1.046-1.046-1.548-2.302-1.548-3.893 0-1.59.503-2.804 1.548-3.851C22.111.544 23.366 0 24.915 0s2.847.544 3.977 1.591c1.047 1.047 1.674 2.303 1.674 3.851zm-3.738-.355c0-.921-.419-1.34-1.381-1.34-.963 0-1.34.419-1.34 1.34 0 .922.418 1.381 1.34 1.381.921 0 1.38-.418 1.38-1.38zm3.542 10.531V9.579h4.69v6.039h-4.69zm6.027 0V8.422h4.719v7.196h-4.719zm6.898 9.184l-3.51-3.173c1.825-1.545 2.724-3.202 2.724-5.028V7.264h4.999v9.337c0 3.343-1.405 6.095-4.213 8.201zm6.2-.059V.569h6.43v24.175h-6.43v-.001zm17.225-10.63c-2.843-1.197-4.913-1.73-8.577-1.73H57.06v-5.35h1.23c4.632 0 7.2.692 10.131 2.108l-1.7 4.972zm14.134 10.283c-2.248 0-4.06-.677-5.372-2.032-1.342-1.354-2.03-3.217-2.03-5.586v-1.693h-3.278V10.57h3.279V6.62h-3.279V.55h18.253v6.072h-9.041v3.95H90.49v4.514H79.386v1.693c0 1.185.468 1.795 1.468 1.795h11.179v5.823h-11.18v-.001zM101 19.92h-5.657a.249.249 0 01-.224-.358c.826-1.687 3.154-9.052-2.474-15.55-1.119-1.292-.785-2.333-.377-2.933.212-.313.707-.56 1.084-.56h7.647V19.92H101zm-6.007 4.764v-3.829H101v3.83h-6.007z" fill="#131313"/></svg>