<svg width="72" height="20" fill="none" xmlns="http://www.w3.org/2000/svg"><path d="M13.96 9.18c0 4.94-1.2 7.96-6.04 10.1l-2.14-2.02c3.88-1.34 5.56-3.08 5.56-8V3.94c0-.8-.04-1.46-.12-1.84h2.86c-.04.4-.12 1.04-.12 1.84v5.24zM6.72 2.26c-.04.38-.12 1.02-.12 1.82v7.14c0 .9.06 1.72.1 2.1H3.9c.04-.38.1-1.2.1-2.1V4.06c0-.56-.04-1.18-.12-1.8h2.84zM.14 5.86c.36.06 1.18.2 2.16.2h13.12c1.06 0 1.66-.06 2.22-.14v2.66c-.44-.06-1.16-.06-2.2-.06H2.3c-1 0-1.7.04-2.16.06V5.86zm18.68 2.88c.74.06 2.18.14 3.22.14h10.74c.94 0 1.82-.1 2.36-.14v3.16c-.48-.02-1.5-.12-2.34-.12H22.04c-1.12 0-2.46.06-3.22.12V8.74zM49.76 1.8c.5.74 1.2 2 1.58 2.74l-1.6.7c-.42-.82-1.02-2-1.56-2.78l1.58-.66zm2.36-.9c.52.76 1.26 2.02 1.62 2.72l-1.6.7c-.4-.84-1.06-2-1.6-2.76L52.12.9zm-11 1.78c-.08.6-.14 1.5-.14 2.08v10.08c0 .88.4 1.1 1.3 1.26.6.1 1.42.12 2.3.12 2.1 0 5.32-.24 6.98-.68v2.92c-1.9.28-4.92.4-7.12.4-1.3 0-2.52-.08-3.38-.22-1.72-.32-2.74-1.26-2.74-3V4.76c0-.46-.06-1.48-.14-2.08h2.94zM39.8 8.82c2.58-.56 6-1.64 8.1-2.5.7-.3 1.38-.62 2.18-1.08l1.06 2.52c-.76.32-1.66.7-2.32.96-2.36.9-6.28 2.08-9 2.72l-.02-2.62zm29.86-4.36c-.16.22-.52.82-.7 1.24-.82 1.9-2.3 4.62-4.02 6.62-2.24 2.58-5.26 5.06-8.36 6.52l-2.08-2.16c3.24-1.2 6.32-3.64 8.2-5.72 1.32-1.5 2.54-3.48 3-4.9h-6.8c-.82 0-1.92.1-2.36.14V3.34c.54.08 1.78.14 2.36.14h7.06c.88 0 1.66-.1 2.08-.24l1.62 1.22zm-4.46 6.2c2.06 1.68 4.9 4.66 6.2 6.26l-2.28 1.98c-1.48-2.06-3.66-4.44-5.8-6.38l1.88-1.86z" fill="#000"/></svg>