<svg width="107" height="47" fill="none" xmlns="http://www.w3.org/2000/svg"><g clip-path="url(#clip0_1007500_25360)" fill="#F24E1E"><path d="M19.062 0c12.454 0 19.062 7.1 19.062 20.319 0 8.904-2.84 15.02-8.302 18.078l7.101 7.7H23.376l-4.969-5.462C6.39 40.365 0 33.32 0 20.32S6.61 0 19.062 0zm0 31.625c5.025 0 7.374-3.442 7.374-11.306 0-7.865-2.35-11.306-7.374-11.306-5.025 0-7.374 3.441-7.374 11.306 0 7.864 2.403 11.306 7.374 11.306zm29.216-11.008c0 1.736 1.233 2.623 2.932 2.623h13.695v5.284h-3.703l3.395 11.688h-7.522l-.694-2.354c-1.465 1.002-4.242 2.817-8.524 2.817-4.9 0-8.872-2.97-8.872-7.83 0-2.97 1.465-5.363 4.398-6.983-1.852-1.544-3.125-3.548-3.125-6.25 0-4.357 3.201-7.637 11.612-7.637 2.662 0 5.016.347 7.714 1.002v5.863c-1.428-.308-4.205-1.002-6.48-1.002-2.933 0-4.822.655-4.822 2.777l-.004.002zm2.083 7.83c-2.275 0-3.24 1.544-3.24 3.164 0 2.238 1.543 3.317 3.356 3.317 1.543 0 3.164-.694 4.358-1.967l-1.197-4.514h-3.28.003zM78.808.833h15.239l12.563 39.381H94.649l-1.912-7.045H80.174l-1.912 7.045H66.301L78.808.833zm3.715 23.432h7.703L86.62 9.845h-.49l-3.605 14.42h-.002z"/></g><defs><clipPath id="clip0_1007500_25360"><path fill="#fff" d="M0 0h106.61v46.1H0z"/></clipPath></defs></svg>