<svg width="284" height="380" fill="none" xmlns="http://www.w3.org/2000/svg"><circle cx="142" cy="120" r="120" fill="#E6E74B"/><g clip-path="url(#clip0_1007528_25590)"><path d="M218.781 78.668c-.499-4.573-4.295-8.649-8.869-9.316-2.044-.291-4.137-.328-6.217-.34-18.761-.024-37.534-.012-56.306-.012-18.773 0-37.4 0-56.1.012-1.654 0-3.309-.012-4.951.134-4.392.364-7.592 2.51-9.478 6.502-.937 1.977-1.07 4.1-1.07 6.223v45.914a16.69 16.69 0 015.097 2.73h.012c0-16.098 0-32.183.013-48.268 0-1.007.036-2.014.182-2.996.402-2.803 2.665-4.865 5.487-5.023 1.691-.084 3.382-.12 5.061-.12 37.169-.013 74.337-.013 111.493 0 1.898 0 3.796 0 5.67.23 2.749.327 4.769 2.632 4.963 5.41.061.946.11 1.904.11 2.85.012 21.472.012 42.943 0 64.402 0 1.007-.049 2.014-.195 3.009-.389 2.753-2.664 4.828-5.462 4.985a102.37 102.37 0 01-5.463.122c-18.469.012-36.925.012-55.394.012-14.709 0-29.406 0-44.127-.012a5.07 5.07 0 01-.341.376l-4.587 4.719c35.088.012 70.152.012 105.24 0 1.63 0 3.272.012 4.903-.134 4.38-.364 7.579-2.511 9.477-6.502.937-1.965 1.059-4.1 1.059-6.223.012-21.738.012-43.476 0-65.227 0-1.152-.085-2.304-.207-3.457z" fill="#B0CFBF"/><path d="M213.769 79.748c-.195-2.778-2.215-5.083-4.964-5.41-1.874-.231-3.772-.231-5.67-.231-37.156-.012-74.324-.012-111.493 0-1.678 0-3.37.036-5.06.121-2.823.158-5.086 2.22-5.488 5.022-.146.983-.182 1.99-.182 2.997-.013 16.085-.013 32.17-.013 48.256 2.872-2.269 6.522-3.555 10.293-3.555h.049v-.788h39.127v5.64H102.86a16.675 16.675 0 014.124 7.097h38.142v5.653h-37.485a16.928 16.928 0 01-4.404 10.566c14.721.012 29.418.012 44.127.012 18.469 0 36.925 0 55.394-.012 1.825 0 3.65-.025 5.463-.122 2.798-.157 5.073-2.232 5.462-4.985.146-.995.195-2.002.195-3.009.012-21.459.012-42.93 0-64.401 0-.947-.049-1.905-.109-2.851zm-29.65 6.926c7.02.049 12.714 5.799 12.665 12.798-.048 7-5.767 12.64-12.787 12.616-7.056-.024-12.738-5.713-12.701-12.737a12.72 12.72 0 0112.823-12.677zm-33.603 32.365H91.253v-5.641h59.263v5.641zm0-12.761H91.253v-5.629h59.263v5.629zm0-12.107H91.253v-9.498h59.263v9.498zm53.045 48.341h-38.969c0-1.019-.073-2.014.012-3.009.341-4.185 1.18-8.261 2.835-12.142 1.691-3.943 3.978-7.473 7.397-10.166 2.665-2.111 5.67-3.36 9.113-3.384 3.674-.025 6.837 1.346 9.623 3.663 3.37 2.79 5.646 6.369 7.251 10.384 1.813 4.525 2.677 9.244 2.738 14.12v.534z" fill="#CEBAD9"/><path d="M164.58 142.524c0-1.019-.073-2.026 0-3.008.34-4.185 1.192-8.261 2.847-12.143 1.691-3.943 3.978-7.473 7.385-10.166 2.664-2.11 5.669-3.36 9.112-3.384 3.675-.024 6.85 1.346 9.624 3.651 3.37 2.79 5.633 6.381 7.251 10.396 1.813 4.525 2.677 9.244 2.738 14.12v.534h-38.982.025zm-14.065-57.839v9.486H91.253v-9.486h59.262zm20.781 14.665a12.72 12.72 0 0112.823-12.676c7.02.049 12.714 5.799 12.665 12.798-.049 7-5.767 12.64-12.787 12.616-7.056-.024-12.738-5.726-12.701-12.737zm-20.781 14.06v5.641H91.241v-5.641h59.274zm0-12.761v5.629H91.253v-5.629h59.262zm-5.389 38.248v5.653h-37.485a17.089 17.089 0 00-.657-5.653h38.142zm-14.758-12.737v5.64H102.86a16.999 16.999 0 00-.463-.473c-.219-.206-.45-.412-.681-.606l-.109-.097a16.604 16.604 0 00-10.366-3.676v-.788h39.127zm-27.606 18.39a12.143 12.143 0 01-3.37 7.581l-2.895 2.985-4.952 5.094-8.711 8.965s-.06.061-.097.085a2.68 2.68 0 01-3.784-.085l-16.546-17.044a7.203 7.203 0 01-.414-.461c-4.44-5.119-3.869-12.846 1.265-17.274 3.638-2.935 8.541-3.348 12.532-1.395a11.74 11.74 0 013.43 2.56l1.68 1.722 1.69-1.734a11.69 11.69 0 018.65-3.749c2.58.013 5.16.862 7.313 2.596.158.134.316.279.462.425a12.139 12.139 0 013.747 9.729z" fill="#546EAC"/></g><path d="M39.557 264.1h1.792v2.548h-1.792V264.1zm-5.026 1.26h11.97v3.318H44.71v-1.764h-8.47v1.764h-1.708v-3.318zm4.522 1.89l1.764.378c-1.064 2.254-2.492 5.04-3.5 6.79l-1.764-.476c1.05-1.708 2.534-4.536 3.5-6.692zm3.528 3.206l1.904.252c-1.232 4.298-4.172 5.866-8.974 6.566-.154-.406-.644-1.162-.952-1.54 4.592-.448 7.266-1.694 8.022-5.278zm-8.33-1.12h12.502v1.582H34.251v-1.582zm2.352 4.312l1.218-1.162c2.702.742 6.412 2.17 8.372 3.374l-1.358 1.372c-1.764-1.176-5.404-2.744-8.232-3.584zm15.12-5.53h1.75v6.692c0 .686.112.784.77.784h1.918c.686 0 .798-.462.91-2.66.378.308 1.092.616 1.568.728-.196 2.632-.658 3.458-2.338 3.458H54.02c-1.792 0-2.296-.546-2.296-2.31v-6.692zm.056-2.66l1.092-1.302c1.652.588 3.584 1.638 4.704 2.45l-1.12 1.484c-1.064-.896-3.024-1.988-4.676-2.632zm-2.576 3.654l1.652.336c-.21 1.946-.574 4.102-1.498 5.474l-1.568-.896c.826-1.204 1.232-3.038 1.414-4.914zm8.064.224l1.54-.77c1.204 1.54 2.212 3.598 2.548 5.068l-1.708.84c-.28-1.442-1.26-3.598-2.38-5.138zm9.562-4.438a22.334 22.334 0 00-.182 1.876c-.07 1.512-.168 4.634-.168 6.37 0 1.414.84 1.876 1.932 1.876 2.31 0 3.766-1.33 4.788-2.856l1.274 1.554c-.91 1.344-2.898 3.206-6.09 3.206-2.296 0-3.766-1.008-3.766-3.402 0-1.876.126-5.544.126-6.748 0-.672-.056-1.344-.168-1.89l2.254.014zm9.447 1.484a21.759 21.759 0 001.371-.07c1.176-.112 3.472-.308 6.048-.532a94.16 94.16 0 013.963-.252l.013 1.806c-.756 0-1.96.014-2.716.182-1.68.448-2.954 2.268-2.954 3.92 0 2.31 2.156 3.136 4.522 3.262l-.644 1.918c-2.94-.182-5.712-1.764-5.712-4.802 0-2.016 1.135-3.598 2.087-4.312-1.317.14-4.172.434-5.797.798l-.181-1.918zm20.44.714c-.49-.504-1.456-1.442-2.002-1.862l1.287-.896c.49.392 1.54 1.288 2.03 1.806l-1.316.952zm-3.808-1.498c.111.266.391.84.546 1.106.574 1.078 1.204 2.464 1.708 3.64.657 1.526 1.75 4.508 2.212 6.09l-1.932.49c-.434-1.764-1.162-4.13-1.876-5.81-.56-1.302-1.079-2.576-1.653-3.584-.21-.336-.545-.868-.825-1.218l1.82-.714zm-3.025 4.102a10.15 10.15 0 001.386-.448c2.548-.994 5.418-2.632 7.672-2.632 2.157 0 3.473 1.316 3.473 2.94 0 1.96-1.344 3.192-3.487 3.192-.77 0-1.638-.196-2.17-.392l.056-1.75c.63.266 1.33.462 1.933.462 1.05 0 1.82-.574 1.82-1.582 0-.7-.617-1.288-1.666-1.288-2.269 0-6.469 2.506-8.205 3.29l-.811-1.792zm18.593-4.942c-.196.686-.49 2.128-.574 2.912.672-1.078 1.904-2.268 3.472-2.268 1.946 0 3.458 1.918 3.458 4.998 0 3.962-2.422 5.838-6.132 6.524l-1.064-1.624c3.122-.476 5.306-1.512 5.306-4.9 0-2.156-.728-3.36-1.89-3.36-1.652 0-3.108 2.492-3.164 4.326-.028.392-.014.84.056 1.484l-1.722.126c-.084-.546-.168-1.4-.168-2.338 0-1.316.182-3.038.392-4.494a22.71 22.71 0 00.112-1.456l1.918.07zm16.282 1.148h4.774v1.638h-4.774v-1.638zm-6.678-1.008h7.07v1.554h-7.07v-1.554zm1.848 2.898h3.374v1.498h-3.374v-1.498zm0 2.912h3.374v1.498h-3.374v-1.498zm9.142-4.802h.294l.294-.042 1.092.266c-.546 5.67-2.38 9.114-5.544 11.046-.252-.434-.728-1.064-1.106-1.386 2.786-1.456 4.508-4.9 4.97-9.52v-.364zm-2.674 1.68c.686 3.64 2.184 6.734 4.872 8.19-.378.322-.896.966-1.162 1.4-2.94-1.778-4.438-5.054-5.32-9.282l1.61-.308zm-7.35-2.044h1.596v9.156h-1.596v-9.156zm3.598 0h1.624v11.718h-1.624v-11.718zm-4.886 8.54c1.386-.154 3.472-.434 5.446-.714l.098 1.526c-1.82.322-3.766.63-5.236.854l-.308-1.666zm18.858-9.324c-.196.686-.49 2.128-.574 2.912.672-1.078 1.904-2.268 3.472-2.268 1.946 0 3.458 1.918 3.458 4.998 0 3.962-2.422 5.838-6.132 6.524l-1.064-1.624c3.122-.476 5.306-1.512 5.306-4.9 0-2.156-.728-3.36-1.89-3.36-1.652 0-3.108 2.492-3.164 4.326-.028.392-.014.84.056 1.484l-1.722.126c-.084-.546-.168-1.4-.168-2.338 0-1.316.182-3.038.392-4.494a22.71 22.71 0 00.112-1.456l1.918.07zm9.982 1.652a21.759 21.759 0 001.372-.07c1.162-.112 3.472-.308 6.034-.532 1.456-.112 2.982-.21 3.976-.252l.014 1.806c-.756 0-1.96.014-2.716.182-1.68.448-2.954 2.268-2.954 3.934 0 2.296 2.156 3.136 4.522 3.248l-.658 1.918c-2.926-.182-5.698-1.764-5.698-4.802 0-2.002 1.134-3.598 2.072-4.312-1.302.14-4.172.448-5.782.798l-.182-1.918zm9.394 2.324c.336.49.84 1.344 1.106 1.904l-1.05.462c-.364-.756-.658-1.316-1.092-1.932l1.036-.434zm1.554-.644c.364.49.896 1.316 1.19 1.862l-1.05.504c-.378-.756-.7-1.288-1.148-1.904l1.008-.462zm4.452-2.128c2.044.238 3.752.266 5.236.154a15.035 15.035 0 003.584-.672l.224 1.596c-1.008.28-2.226.518-3.444.602-1.442.112-3.374.126-5.502-.084l-.098-1.596zm-.252 2.926c2.52.252 4.788.21 6.468.042a16.004 16.004 0 003.374-.644l.28 1.652c-.84.21-1.876.406-3.01.532-1.764.196-4.494.238-7.014.07l-.098-1.652zm4.676-2.534a20.485 20.485 0 00-.504-1.582l1.876-.21c.168 1.344.518 2.576.882 3.654.336.98 1.022 2.422 1.666 3.402.196.28.378.49.63.728l-.84 1.288c-.784-.168-2.31-.336-3.332-.448l.14-1.344c.588.056 1.358.126 1.764.168a18.715 18.715 0 01-1.61-3.486c-.35-.994-.49-1.498-.672-2.17zm-1.988 5.796c-.336.462-.63.938-.63 1.54 0 1.036.98 1.456 2.842 1.456 1.316 0 2.506-.098 3.514-.294l-.098 1.778c-.98.154-2.268.252-3.416.252-2.786 0-4.522-.826-4.564-2.814-.014-.91.28-1.596.616-2.254l1.736.336zm12.144-6.804c.392.042.868.07 1.26.07.756 0 3.738-.07 4.536-.14.588-.042.91-.098 1.078-.154l.896 1.26c-.322.21-.658.406-.966.644-.756.532-2.226 1.764-3.122 2.464a4.983 4.983 0 011.33-.154c2.38 0 4.186 1.484 4.186 3.514 0 2.212-1.68 3.962-5.068 3.962-1.946 0-3.416-.882-3.416-2.296 0-1.134 1.036-2.17 2.52-2.17 1.918 0 2.982 1.288 3.024 2.828l-1.638.21c-.028-1.008-.56-1.708-1.386-1.708-.518 0-.868.322-.868.686 0 .518.574.868 1.428.868 2.366 0 3.57-.896 3.57-2.394 0-1.274-1.26-2.128-2.898-2.128-2.156 0-3.542 1.148-5.04 2.842l-1.274-1.316c.994-.784 2.688-2.212 3.5-2.898.784-.644 2.254-1.82 2.94-2.436-.714.028-2.646.098-3.402.154-.378.028-.812.056-1.134.112l-.056-1.82zm22.274 1.568c-.07.196-.14.532-.154.644-.182 1.414-.798 5.208-.994 6.482h-2.058c.224-1.26.826-4.858.868-5.866h-4.83c-.574 0-1.092.028-1.596.07v-1.974c.462.056 1.106.098 1.582.098h4.41c.364 0 1.064-.07 1.302-.182l1.47.728zm-10.29 6.552c.448.084.952.112 1.386.112h9.324c.504 0 .952-.056 1.316-.112v2.044c-.392-.056-.98-.084-1.316-.084h-9.324c-.434 0-.924.028-1.386.084v-2.044zm14.35-3.948c.518.042 1.526.098 2.254.098h7.518c.658 0 1.274-.07 1.652-.098v2.212c-.336-.014-1.05-.084-1.638-.084h-7.532c-.784 0-1.722.042-2.254.084v-2.212zm23.961-4.396c.266.546.574 1.358.728 1.904l-.966.322c-.196-.602-.434-1.358-.714-1.932l.952-.294zm1.442-.448c.266.546.588 1.372.756 1.904l-.952.308c-.21-.616-.476-1.358-.756-1.918l.952-.294zm-2.646 5.362c0 3.458-.84 5.586-4.214 7.07l-1.512-1.414c2.716-.938 3.892-2.156 3.892-5.586v-3.724c0-.574-.028-1.036-.07-1.302h1.988c-.028.28-.084.728-.084 1.302v3.654zm-5.068-4.83c-.028.252-.084.7-.084 1.26v5.012c0 .616.042 1.19.07 1.456h-1.96c.028-.266.07-.826.07-1.456v-5.012c0-.406-.028-.84-.084-1.26h1.988zm-4.606 2.52c.252.042.826.126 1.526.126h9.17c.742 0 1.162-.028 1.554-.098v1.862c-.308-.042-.812-.042-1.54-.042h-9.184c-.714 0-1.204.028-1.526.056v-1.904zm14.784 1.792c.518.042 1.526.098 2.254.098h7.518c.658 0 1.274-.07 1.652-.098v2.212c-.336-.014-1.05-.084-1.638-.084h-7.532c-.784 0-1.722.042-2.254.084v-2.212zM6.944 297.262c-1.148 1.708-3.402 3.794-5.768 5.18a4.565 4.565 0 00-.658-.84c2.408-1.33 4.746-3.556 5.824-5.376H7.42c1.456 2.072 3.906 4.116 6.104 5.208a4.869 4.869 0 00-.7.924c-2.17-1.246-4.62-3.332-5.88-5.096zm-4.732 7.28h9.548v.938H2.212v-.938zm.63-3.136h8.372v.952H2.842v-.952zm-1.778 6.384h11.928v.952H1.064v-.952zm5.334-5.992h1.106v6.524H6.398v-6.524zm18.634-2.786a2.2 2.2 0 00-.112.462c-.154 1.414-.812 5.6-1.008 6.832h-1.26c.238-1.218.91-5.474.938-6.51h-5.502c-.532 0-.91.014-1.344.056v-1.246c.42.042.868.084 1.33.084h5.152c.28 0 .714-.056.868-.126l.938.448zm-9.856 6.916c.406.07.84.084 1.232.084h9.436c.434 0 .812-.042 1.176-.084v1.288a9.069 9.069 0 00-1.176-.07h-9.436c-.392 0-.812.028-1.232.07v-1.288zm14.378-3.99c.434.042 1.162.084 1.96.084h7.672c.7 0 1.19-.056 1.512-.084v1.372c-.294-.014-.882-.056-1.498-.056h-7.686c-.77 0-1.512.028-1.96.056v-1.372zm23.527-4.606c.266.504.63 1.372.826 1.932l-.7.238c-.196-.588-.518-1.428-.798-1.96l.672-.21zm1.4-.434c.266.518.63 1.372.84 1.932l-.7.238c-.224-.63-.532-1.428-.826-1.96l.686-.21zm-2.73 4.928c0 3.724-.798 5.642-3.99 7.07l-.952-.882c2.548-.98 3.822-2.184 3.822-6.104v-3.402c0-.546-.042-1.008-.07-1.148h1.26c-.014.14-.07.602-.07 1.148v3.318zm-5.04-4.368c-.014.126-.07.518-.07 1.008v5.138c0 .504.042 1.12.056 1.26h-1.232c.014-.14.056-.728.056-1.26v-5.138c0-.294-.014-.7-.056-1.008h1.246zm-4.102 2.716c.126.014.812.084 1.414.084h9.268c.616 0 1.092-.042 1.288-.07v1.19c-.154-.028-.672-.042-1.288-.042h-9.268c-.616 0-1.246.028-1.414.042v-1.204zm14.812 1.764c.434.042 1.162.084 1.96.084h7.672c.7 0 1.19-.056 1.512-.084v1.372c-.294-.014-.882-.056-1.498-.056H59.38c-.77 0-1.512.028-1.96.056v-1.372zm18.592-4.802c-.056.252-.112.56-.168.826-.098.504-.28 1.652-.476 2.52-.476 1.974-1.47 5.46-3.052 8.008l-1.148-.448c1.596-2.142 2.716-5.88 3.094-7.588.266-1.12.448-2.38.448-3.458l1.302.14zm4.816 1.61c.868 1.134 2.086 3.682 2.562 4.97l-1.092.518c-.406-1.428-1.512-3.864-2.492-5.026l1.022-.462zm-9.856 1.456c.434.028.798.014 1.246 0 1.05-.028 3.892-.336 4.844-.336 1.246 0 2.268.476 2.268 2.366 0 1.666-.224 3.892-.812 5.054-.434.938-1.134 1.176-2.044 1.176a7.37 7.37 0 01-1.638-.21l-.196-1.162c.588.182 1.33.28 1.722.28.518 0 .938-.112 1.218-.714.448-.952.672-2.772.672-4.284 0-1.288-.588-1.526-1.484-1.526-.938 0-3.57.322-4.424.406-.322.042-.896.112-1.26.168l-.112-1.218zm10.01-3.486c.35.504.854 1.358 1.148 1.932l-.756.336c-.28-.574-.756-1.414-1.148-1.946l.756-.322zm1.54-.56c.378.518.91 1.4 1.19 1.918l-.77.336c-.294-.616-.756-1.414-1.162-1.932l.742-.322zm2.982 11.438a484.72 484.72 0 009.982-.364l-.042.966c-3.528.182-7.322.35-9.8.434l-.14-1.036zm-.126-4.326h11.606v.994H85.379v-.994zm2.394-2.674h6.692v.98h-6.692v-.98zm1.442 3.304l1.176.336c-.644 1.344-1.456 2.982-2.142 4.032l-.938-.308c.658-1.092 1.484-2.828 1.904-4.06zm3.332 1.484l.896-.476c1.288 1.106 2.66 2.618 3.318 3.682l-.952.574c-.63-1.05-2.016-2.66-3.262-3.78zm-1.456-8.106c-1.148 1.708-3.444 3.626-5.824 4.816a3.871 3.871 0 00-.616-.854c2.408-1.148 4.746-3.178 5.838-4.97h1.078c1.484 2.072 3.934 3.906 6.16 4.816-.252.252-.504.63-.686.938-2.184-1.05-4.648-2.926-5.95-4.746zm10.822.364v1.442h6.65v-1.442h-6.65zm-1.05-.854h8.806v3.164h-8.806v-3.164zm.448 6.482v.994h7.84v-.994h-7.84zm0 1.736v1.008h7.84v-1.008h-7.84zm0-3.458v.98h7.84v-.98h-7.84zm-1.05-.784h9.968v6.02h-9.968v-6.02zm2.674 6.006l.98.644c-1.12.686-2.94 1.358-4.382 1.722a6.824 6.824 0 00-.784-.77c1.47-.35 3.304-1.022 4.186-1.596zm3.416.728l.91-.686a49.295 49.295 0 014.424 1.582l-.91.756c-1.036-.49-2.94-1.218-4.424-1.652zm10.332-7.35h5.194v.91h-5.194v-.91zm-3.486 7.77h12.194v.882h-12.194v-.882zm.84-11.13h4.144v.882h-4.144v-.882zm3.808 0h.182l.196-.056.672.35c-1.05 2.688-3.388 4.69-5.614 5.726-.14-.224-.42-.588-.63-.77 2.058-.868 4.326-2.828 5.194-5.054v-.196zm2.366-.504c1.078 2.38 3.22 4.55 5.642 5.488-.252.21-.546.588-.714.868-2.478-1.12-4.62-3.402-5.81-6.062l.882-.294zm-6.552 2.478l.56-.574c.742.42 1.61 1.064 2.016 1.568l-.588.644c-.42-.49-1.26-1.19-1.988-1.638zm9.366-2.394l.798.56a20.892 20.892 0 01-2.422 1.932l-.644-.504c.714-.518 1.708-1.372 2.268-1.988zm1.568 1.652l.784.56c-.742.7-1.75 1.456-2.52 1.932l-.644-.504c.756-.504 1.792-1.358 2.38-1.988zm-8.162 5.054v1.848h5.67v-1.848h-5.67zm-1.036-.868h7.784v3.584h-7.784v-3.584zm.812 3.808l.966-.266c.392.602.756 1.428.896 1.974l-.994.308c-.14-.546-.49-1.4-.868-2.016zm5.208-.308l1.022.28c-.378.742-.798 1.512-1.148 2.058l-.896-.266c.35-.546.798-1.456 1.022-2.072zm17.444-3.318l.826.532a20.38 20.38 0 01-1.792 1.932l-.672-.462c.518-.532 1.246-1.386 1.638-2.002zm-6.258.7l.714-.462c.602.56 1.26 1.33 1.554 1.876l-.77.504c-.266-.532-.91-1.344-1.498-1.918zm.434-6.272h5.614v4.69h-.98v-3.808h-4.634v-.882zm.28 2.086h4.914v.854h-4.914v-.854zm-1.008 2.072h7.49v.924h-7.49v-.924zm3.15.434h.98v6.622c0 .504-.084.784-.434.938-.336.154-.854.168-1.624.168a4.25 4.25 0 00-.294-.938c.532.028 1.008.014 1.176.014.154 0 .196-.042.196-.21v-6.594zm-3.444 5.88c.728-.434 1.806-1.162 2.856-1.89l.322.812a60.123 60.123 0 01-2.688 1.946l-.49-.868zm4.382-5.25c.42 1.862 1.498 4.242 3.654 5.376-.21.196-.532.602-.686.868-2.114-1.288-3.136-3.822-3.57-5.544l.602-.7zm-8.526-2.324h3.99v.91h-3.99v-.91zm-.756 2.394h5.124v.924h-5.124v-.924zm.322 1.848l.728-.182c.28.854.504 1.932.56 2.66l-.784.196c-.014-.728-.238-1.82-.504-2.674zm-.448 3.766c1.316-.224 3.29-.616 5.194-1.008l.084.896c-1.806.378-3.668.798-5.068 1.092l-.21-.98zm4.34-4.074l.812.21c-.238.854-.476 1.862-.714 2.52l-.686-.196c.21-.686.462-1.792.588-2.534zm-2.016-3.598h.924v7.63l-.924.154v-7.784zm-.042-3.794h.546v.224h.308v.266c-.546 1.078-1.456 2.562-2.842 3.78a3.659 3.659 0 00-.658-.658c1.274-1.064 2.17-2.492 2.646-3.612zm.168 0h.784c.826.742 1.862 1.82 2.352 2.52l-.7.798c-.476-.714-1.428-1.876-2.24-2.576h-.196v-.742zm16.884 1.666h7v.924h-7v-.924zm-.602 2.716h8.204v.938h-8.204v-.938zm.07 2.534h7.98v.938h-7.98v-.938zm3.472-6.93h1.036v4.97h-1.036v-4.97zm1.848 5.194h1.022v6.44c0 .602-.14.91-.574 1.064-.434.154-1.148.168-2.268.168-.042-.28-.21-.7-.364-.98.868.028 1.652.028 1.876.014.238-.014.308-.07.308-.28v-6.426zm-4.466 3.654l.84-.504c.728.728 1.512 1.722 1.848 2.408l-.91.56c-.308-.686-1.064-1.736-1.778-2.464zm-4.662-7.924h3.5v9.198h-3.5v-.952h2.52v-7.294h-2.52v-.952zm.042 4.074h2.94v.938h-2.94v-.938zm-.546-4.074h.994v10.346h-.994v-10.346zm19.39 1.386c1.526.266 4.368.21 5.754 0v1.134c-1.498.168-4.214.168-5.74 0l-.014-1.134zm.546 5.712c-.126.504-.196.896-.196 1.274 0 .644.448 1.274 2.366 1.274 1.246 0 2.338-.112 3.458-.378l.028 1.176c-.868.182-2.044.294-3.5.294-2.338 0-3.388-.784-3.388-2.1 0-.462.07-.966.224-1.638l1.008.098zm-3.206-6.79c-.084.238-.196.686-.252.938-.266 1.302-.7 3.794-.7 5.376 0 .672.042 1.26.126 1.946.238-.63.56-1.47.798-2.044l.588.462c-.35.994-.868 2.464-.994 3.136-.042.196-.07.462-.07.63.014.14.028.336.042.49l-.994.07c-.28-.994-.518-2.604-.518-4.508 0-2.058.462-4.452.63-5.614.042-.322.084-.672.098-.98l1.246.098zm13.758 11.312a24.128 24.128 0 00-3.108-3.108l.91-.798c1.008.812 2.268 2.072 3.15 3.094l-.952.812zm13.86-8.932h6.636v.812h-6.636v-.812zm0 2.114h6.636v.812h-6.636v-.812zm6.174-4.326h1.078v10.024c0 .742-.168 1.092-.686 1.274-.532.182-1.442.196-2.87.196-.056-.308-.238-.798-.392-1.12a31.27 31.27 0 002.464.028c.308 0 .406-.098.406-.378V297.64zm-9.03 6.762c2.31-.112 6.048-.336 9.534-.56l-.014.882c-3.36.28-6.93.56-9.366.728l-.154-1.05zm11.424-3.654l.994.504c-2.66 3.878-6.986 6.328-11.844 7.77a6.501 6.501 0 00-.7-.966c4.886-1.288 9.128-3.682 11.55-7.308zm-5.782-4.536l1.26.196a18.773 18.773 0 01-1.162 1.988l-.938-.224c.308-.56.672-1.386.84-1.96zm-3.444 1.428h7.182v.924h-6.146v6.258h-1.036v-7.182zm13.734 3.906h8.008v1.022h-8.008v-1.022zm7.658 0h1.092s-.014.364-.028.504c-.196 4.34-.392 5.964-.896 6.496-.28.35-.588.448-1.078.49-.462.042-1.344.028-2.226-.014a2.39 2.39 0 00-.35-1.064c.924.084 1.792.098 2.128.098.28 0 .448-.028.588-.182.378-.378.588-1.974.77-6.132v-.196zm-5.74-5.012l1.106.322c-1.008 2.366-2.66 4.452-4.424 5.796a7.438 7.438 0 00-.91-.826c1.792-1.204 3.346-3.136 4.228-5.292zm4.886-.028c.91 1.876 2.716 4.004 4.242 5.082-.28.224-.672.644-.882.938-1.554-1.26-3.318-3.528-4.368-5.614l1.008-.406zm-3.85 5.32h1.12c-.322 3.066-1.05 5.964-4.956 7.364a3.728 3.728 0 00-.672-.91c3.668-1.218 4.228-3.808 4.508-6.454zm14.588-4.732h7.168v1.008h-7.168v-1.008zm-.462 10.556h7.854v.994h-7.854v-.994zm4.312-5.684h3.234v1.008h-3.234v-1.008zm-.588-4.48h1.036v10.724h-1.036v-10.724zm-2.674 3.122h.994v7.49h-.994v-7.49zm-5.488-.042h3.948v.826h-3.948v-.826zm.084-3.822h3.85v.84h-3.85v-.84zm-.084 5.726h3.948v.84h-3.948v-.84zm-.658-3.85h5.096v.868h-5.096v-.868zm1.162 5.768h3.5v4.088h-3.5v-.868h2.576v-2.338h-2.576v-.882zm-.518 0h.91v4.732h-.91v-4.732zm14.588-7.28h4.018v8.358h-4.018v-.98h3.038v-6.412h-3.038v-.966zm.014 3.626h3.444v.952h-3.444v-.952zm5.908-3.892h4.718v.98h-4.718v-.98zm0 3.402h4.718v.966h-4.718v-.966zm-.084 3.444h4.774v.952h-4.774v-.952zm-6.412-6.58h.98v9.66h-.98v-9.66zm10.822-.266h1.05v10.906c0 .658-.168.98-.616 1.162-.448.168-1.218.182-2.422.182a4.321 4.321 0 00-.378-1.022c.896.028 1.778.014 2.03.014.252-.014.336-.098.336-.35v-10.892zm-4.942 0h1.036v4.998c0 2.352-.35 5.446-2.87 7.378a3.734 3.734 0 00-.77-.714c2.366-1.82 2.604-4.48 2.604-6.664v-4.998zm9.632 7.952h9.016v4.34h-1.064v-3.598h-6.93v3.626h-1.022v-4.368zm.532 1.582h7.826v.7h-7.826v-.7zm0 1.596h7.826v.728h-7.826v-.728zm3.318-11.746h1.064v7.602h-1.064v-7.602zm-4.144.98h9.24v3.822h-9.408v-.686h8.358v-2.436h-8.19v-.7zm-1.484 1.512h12.432v.784h-12.432v-.784zm.938 3.094h10.556v.714h-10.556v-.714zm-.966 1.54h12.474v.784h-12.474v-.784zm14.658-4.172c.518.056 1.12.084 1.722.084 1.512 0 3.276-.182 4.886-.714l.028 1.036c-1.372.378-3.206.686-4.914.672-.518 0-1.12-.014-1.638-.028l-.084-1.05zm4.97-2.282c-.182.686-.476 2.002-.812 2.996-.672 2.016-1.96 4.564-3.122 6.132l-1.078-.56c1.246-1.456 2.548-3.948 3.122-5.6.308-.882.616-2.114.658-3.094l1.232.126zm3.304 4.326c-.042.574-.042.994-.028 1.498.028.91.154 3.038.154 3.962 0 1.12-.714 2.03-2.45 2.03-1.54 0-2.786-.616-2.786-2.016 0-1.288 1.218-2.1 2.786-2.1 2.352 0 4.158 1.176 5.306 2.17l-.588.952c-1.078-.98-2.688-2.226-4.746-2.226-1.036 0-1.736.476-1.736 1.12 0 .644.546 1.092 1.638 1.092 1.162 0 1.554-.616 1.554-1.372 0-1.064-.154-3.57-.21-5.11h1.106zm2.8.364c-.756-.644-2.282-1.498-3.206-1.932l.56-.84c1.022.434 2.604 1.344 3.276 1.848l-.63.924zm12.292-1.568c-.322.196-.672.378-1.078.588-.952.49-2.506 1.218-3.878 2.128-1.302.854-2.086 1.778-2.086 2.828 0 1.162 1.106 1.89 3.318 1.89 1.526 0 3.402-.196 4.494-.476l-.014 1.26c-1.05.182-2.674.336-4.424.336-2.632 0-4.536-.784-4.536-2.884 0-1.512 1.022-2.702 2.66-3.794 1.428-.952 3.066-1.722 3.976-2.226.406-.238.714-.42 1.008-.672l.56 1.022zm-6.706-2.73c.644 1.792 1.498 3.542 2.156 4.662l-.966.588c-.7-1.148-1.54-3.038-2.296-4.774l1.106-.476zm6.944-.14c.35.518.854 1.358 1.134 1.932l-.756.35c-.28-.574-.742-1.428-1.134-1.96l.756-.322zm1.54-.56c.364.518.91 1.4 1.176 1.918l-.756.336c-.308-.602-.756-1.414-1.162-1.932l.742-.322zM7.882 320.452c-.182 1.456-.462 3.094-.896 4.592-.854 2.87-1.974 4.354-3.262 4.354-1.26 0-2.506-1.428-2.506-3.752 0-3.038 2.702-5.684 6.132-5.684 3.276 0 5.362 2.31 5.362 5.152 0 2.926-1.932 4.886-5.264 5.32l-.644-1.036a11.36 11.36 0 001.204-.168c1.792-.406 3.556-1.75 3.556-4.172 0-2.24-1.554-4.088-4.242-4.088-3.08 0-4.998 2.534-4.998 4.592 0 1.764.798 2.548 1.428 2.548.658 0 1.414-.952 2.128-3.318.406-1.33.7-2.912.84-4.368l1.162.028zm10.962-1.358h8.19v11.914h-1.008v-10.976h-6.202v11.088h-.98v-12.026zm1.554 2.968h5.152v.826h-5.152v-.826zm-1.022 7.28h7.21v.938h-7.21v-.938zm3.15-8.862h.854v4.438h-.854v-4.438zm-.728 4.732v2.17h2.366v-2.17h-2.366zm-.812-.784h4.018v3.752h-4.018v-3.752zm-3.598-6.118l.966.28c-.798 2.394-2.1 4.802-3.5 6.412a5.668 5.668 0 00-.56-1.078c1.26-1.372 2.408-3.486 3.094-5.614zm-1.162 3.43l.98-.994.014.014v10.388h-.994v-9.408zm18.186-3.066h1.162c-.112 2.198-.322 9.184-6.118 12.334-.182-.266-.532-.588-.854-.826 5.712-2.912 5.712-9.646 5.81-11.508zm1.12.28c.042 1.092.448 8.526 6.216 11.172-.308.238-.63.588-.798.882-5.936-2.842-6.328-10.668-6.426-11.956l1.008-.098zm12.656 7.308h5.572v.812h-5.572v-.812zm-1.302-6.916h8.316v.798h-8.316v-.798zm.336 1.694h7.63v.77h-7.63v-.77zm-.77 1.75h9.156v.798h-9.156v-.798zm1.736 5.348h5.614v.784h-5.614v-.784zm-.714-3.724h6.286v.812h-5.306v5.88h-.98v-6.692zm6.034 0h1.008v5.53c0 .532-.112.812-.504.966-.392.154-1.022.168-2.016.154a4.108 4.108 0 00-.308-.91c.7.028 1.372.028 1.568.014.196 0 .252-.056.252-.238v-5.516zm-3.038-6.174h1.036v4.802H50.47v-4.802zm-6.146 0h.966v12.866h-.966V318.24zm-1.106 2.702l.784.112c-.042 1.092-.28 2.716-.602 3.766l-.812-.266c.322-.966.546-2.506.63-3.612zm2.198-.364l.7-.28c.308.644.644 1.47.77 1.988l-.728.35c-.14-.532-.462-1.4-.742-2.058zm18.648 3.08h4.578v.868h-4.578v-.868zm-.532-4.76h5.012v.938h-4.046v11.298h-.966v-12.236zm4.508 0h.98v2.702c0 .518-.112.798-.546.952-.434.154-1.134.168-2.212.168a3.303 3.303 0 00-.322-.924c.868.028 1.596.028 1.82.014.224-.014.28-.07.28-.224v-2.688zm-2.604 5.334c.756 2.618 2.338 5.012 4.438 6.034-.238.21-.56.588-.728.854-2.156-1.218-3.71-3.766-4.536-6.678l.826-.21zm2.884-.574h.196l.182-.056.644.238c-.546 3.038-1.932 5.796-4.172 7.308-.154-.238-.462-.532-.7-.714 2.1-1.372 3.416-3.99 3.85-6.552v-.224zm-10.962-3.976h5.194v.91h-5.194v-.91zm-.168 7.658h5.544v.91H57.19v-.91zm-.336-5.348h6.23v.91h-6.23v-.91zm.196 2.912h5.866v.91H57.05v-.91zm2.464-6.636h.98v4.046h-.98v-4.046zm0 7.014h.98v5.81h-.98v-5.81zm1.89-2.436l.896.238c-.28.672-.546 1.4-.812 1.89l-.784-.238c.238-.518.546-1.344.7-1.89zm-3.57.224l.798-.196c.308.588.588 1.386.658 1.876l-.84.238c-.07-.504-.336-1.302-.616-1.918zm18.956-4.13c-.126.546-.28 1.316-.644 2.254-.35.854-.868 1.792-1.428 2.52.546-.322 1.344-.518 1.96-.518 1.078 0 1.918.644 1.918 1.778 0 .728.028 2.338.042 3.206H77.56c.056-.742.07-2.184.056-2.912-.014-.812-.574-1.19-1.302-1.19-.896 0-1.778.448-2.422 1.022-.406.392-.798.896-1.26 1.47l-.966-.714c2.016-1.932 2.954-3.556 3.43-4.746.308-.77.504-1.61.546-2.268l1.148.098zm-4.802 1.512c.756.098 1.722.14 2.366.14 1.89 0 4.312-.112 6.286-.462v1.036c-1.96.294-4.564.42-6.342.42-.602 0-1.526-.028-2.31-.084v-1.05zm10.696 3.374c-.35.112-.854.308-1.232.448-.994.392-2.324.924-3.682 1.624-1.386.728-2.366 1.484-2.366 2.45 0 1.092 1.078 1.26 2.52 1.26 1.092 0 2.604-.126 3.836-.35l-.042 1.134a36.39 36.39 0 01-3.836.238c-1.988 0-3.598-.434-3.598-2.128 0-1.708 1.736-2.758 3.402-3.612 1.33-.686 2.464-1.12 3.388-1.554.42-.196.77-.35 1.162-.546l.448 1.036zm8.428-2.464v1.12h4.676v-1.12h-4.676zm0-1.862v1.12h4.676v-1.12h-4.676zm-.966-.798h6.65v4.592h-6.65v-4.592zm-.644 5.6h8.064v.882h-8.064v-.882zm3.444.434h.98v5.726l-.98-.406v-5.32zm-1.876 2.576c.714 2.324 2.254 2.674 4.2 2.674.35 0 2.24 0 2.73-.014-.14.224-.28.672-.308.938h-2.464c-2.338 0-3.948-.504-4.802-3.36l.644-.238zm2.548-.49h3.248v.868h-3.248v-.868zm-3.192-.98l.952.112c-.28 2.31-1.008 4.046-2.268 5.166-.168-.168-.574-.476-.784-.63 1.246-.994 1.876-2.576 2.1-4.648zm-5.614-.154c1.092-.294 2.716-.798 4.284-1.302l.154.966c-1.456.476-2.982.98-4.172 1.358l-.266-1.022zm.154-4.62h4.27v.98h-4.27v-.98zm1.736-2.814h.98v11.564c0 .574-.126.854-.476 1.022-.322.168-.868.196-1.75.196a4.352 4.352 0 00-.308-.98c.616.014 1.148.014 1.316.014.182 0 .238-.056.238-.266v-11.55zm18.228 4.984h1.134v6.524c0 .672-.168.994-.658 1.176-.504.154-1.33.168-2.562.168a4.47 4.47 0 00-.392-1.092c.952.028 1.876.028 2.142.014.266 0 .336-.07.336-.294v-6.496zm-3.178 1.862l1.092.28c-.686 1.722-1.792 3.402-2.912 4.48-.21-.196-.686-.49-.966-.644 1.148-.994 2.184-2.534 2.786-4.116zm6.3.42l.966-.406c1.036 1.316 2.128 3.094 2.534 4.284l-1.05.462c-.378-1.162-1.428-2.996-2.45-4.34zm-7.476-6.23h9.842v1.036h-9.842v-1.036zm-1.26 3.388h12.348v1.05H99.316v-1.05zm22.022-3.766c-.028.168-.07.714-.07.882-.042.91-.014 3.612 0 4.732l-1.064-.546c0-.616-.014-3.402-.056-4.172a9.46 9.46 0 00-.098-.896h1.288zm-7.448 1.96c1.904-.028 5.404-.154 7.56-.154 1.708 0 3.444 0 4.102.014l-.014 1.036c-.784-.042-2.044-.07-4.102-.07-2.408 0-5.404.098-7.518.252l-.028-1.078zm7.35 4.06c0 1.876-.868 2.814-2.142 2.814-1.176 0-2.31-.826-2.31-2.352 0-1.386 1.148-2.422 2.478-2.422 1.624 0 2.45 1.204 2.45 2.814 0 1.904-.924 4.004-4.172 4.97l-.938-.91c2.548-.602 4.032-1.848 4.032-4.158 0-1.26-.616-1.792-1.372-1.792-.742 0-1.428.574-1.428 1.484 0 .882.658 1.386 1.428 1.386.868 0 1.428-.728 1.204-2.226l.77.392zm8.722-5.236c.308.028.7.042.98.042.742 0 4.06-.098 4.802-.168.42-.042.616-.07.77-.126l.644.826c-.252.168-.532.35-.798.56-.686.532-2.59 2.17-3.682 3.066.644-.21 1.316-.28 1.946-.28 2.324 0 3.99 1.386 3.99 3.276 0 2.254-1.862 3.724-4.83 3.724-1.904 0-3.066-.826-3.066-2.002 0-.952.868-1.82 2.156-1.82 1.862 0 2.8 1.316 2.898 2.73l-1.008.168c-.084-1.19-.77-2.044-1.89-2.044-.644 0-1.134.392-1.134.882 0 .686.77 1.092 1.876 1.092 2.38 0 3.878-.98 3.878-2.73 0-1.386-1.316-2.408-3.15-2.408-2.324 0-3.584.98-5.348 2.786l-.812-.812a271.08 271.08 0 003.766-3.15c.784-.644 2.548-2.114 3.248-2.744-.742.042-3.542.154-4.27.196-.322.028-.63.042-.938.084l-.028-1.148zm15.036 1.946h1.092v7.532c0 .658.168.784.952.784h2.716c.812 0 .938-.462 1.05-2.688.266.196.714.392 1.022.462-.168 2.52-.49 3.276-2.016 3.276h-2.856c-1.526 0-1.96-.392-1.96-1.862v-7.504zm.028-2.618l.686-.742a49.298 49.298 0 013.542 2.59l-.7.854c-.812-.714-2.352-1.89-3.528-2.702zm-2.268 3.458l.98.252c-.308 1.554-.826 3.57-1.61 4.802l-.994-.406c.798-1.218 1.344-3.122 1.624-4.648zm8.274.91l.938-.434c.98 1.4 1.918 3.234 2.31 4.466l-1.008.504c-.35-1.246-1.302-3.136-2.24-4.536zm.742-4.312l1.036.434c-2.296 4.368-5.992 8.4-10.976 10.78a5.369 5.369 0 00-.686-.826c4.83-2.198 8.596-6.244 10.626-10.388zm3.626 6.818h12.74v.882H155.4v-.882zm.336-7.042h12.054v.924h-12.054v-.924zm4.522 5.572l1.022.28a59.204 59.204 0 01-3.094 4.438l-.994-.336c.896-1.134 2.198-3.01 3.066-4.382zm4.2 1.778l1.008.294c-1.232 3.08-4.214 4.228-9.464 4.62a2.902 2.902 0 00-.406-.924c4.998-.266 7.742-1.26 8.862-3.99zm-6.51 2.464l.532-.77c3.458.616 7.056 1.554 9.226 2.408l-.63.854c-2.142-.882-5.572-1.834-9.128-2.492zm1.61-9.464h.994v4.886h-.994v-4.886zm3.262 0h.994v4.886h-.994v-4.886zm-5.404 2.632v1.904h8.736v-1.904h-8.736zm-.98-.854h10.766v3.626h-10.766v-3.626zm18.34-1.848c-.056.252-.112.56-.168.826-.098.504-.28 1.652-.476 2.52-.476 1.974-1.47 5.46-3.052 8.008l-1.148-.448c1.596-2.142 2.716-5.88 3.094-7.588.266-1.12.448-2.38.448-3.458l1.302.14zm4.816 1.61c.868 1.134 2.086 3.682 2.562 4.97l-1.092.518c-.406-1.428-1.512-3.864-2.492-5.026l1.022-.462zm-9.856 1.456c.434.028.798.014 1.246 0 1.05-.028 3.892-.336 4.844-.336 1.246 0 2.268.476 2.268 2.366 0 1.666-.224 3.892-.812 5.054-.434.938-1.134 1.176-2.044 1.176a7.37 7.37 0 01-1.638-.21l-.196-1.162c.588.182 1.33.28 1.722.28.518 0 .938-.112 1.218-.714.448-.952.672-2.772.672-4.284 0-1.288-.588-1.526-1.484-1.526-.938 0-3.57.322-4.424.406-.322.042-.896.112-1.26.168l-.112-1.218zm10.01-3.486c.35.504.854 1.358 1.148 1.932l-.756.336c-.28-.574-.756-1.414-1.148-1.946l.756-.322zm1.54-.56c.378.518.91 1.4 1.19 1.918l-.77.336c-.294-.616-.756-1.414-1.162-1.932l.742-.322zm8.218.77c-.056.168-.112.42-.154.616-.238 1.176-.476 3.388-.476 5.306 0 1.82.392 3.5.826 4.816l-1.022.308c-.406-1.246-.784-3.234-.784-5.012 0-1.918.28-4.186.406-5.39.028-.252.042-.504.042-.686l1.162.042zm-2.254 1.722c2.464 0 4.9-.196 6.832-.63l.014 1.036c-2.016.35-4.774.56-6.86.56-.602 0-1.694-.056-2.268-.084l-.028-1.05c.49.084 1.708.168 2.31.168zm5.838 1.652c-.084.182-.21.56-.294.784-.826 2.59-2.226 4.536-3.696 5.67-.896.686-2.016 1.204-3.01 1.204-.924 0-1.652-.56-1.652-1.75 0-1.918 1.778-3.892 3.85-4.69.938-.364 2.072-.574 2.982-.574 2.646 0 4.312 1.54 4.312 3.5 0 2.002-1.33 3.752-4.578 4.27l-.602-.938c2.52-.28 4.088-1.582 4.088-3.388 0-1.358-1.148-2.548-3.234-2.548-1.176 0-2.212.336-2.926.658-1.582.7-2.842 2.24-2.842 3.528 0 .574.28.854.798.854.7 0 1.61-.392 2.506-1.176 1.246-1.092 2.394-2.604 3.038-4.872.056-.21.126-.588.14-.812l1.12.28zm7.224-2.604c.308.028.7.042.98.042.742 0 4.06-.098 4.802-.168.42-.042.616-.07.77-.126l.644.826c-.252.168-.532.35-.798.56-.686.532-2.59 2.17-3.682 3.066.644-.21 1.316-.28 1.946-.28 2.324 0 3.99 1.386 3.99 3.276 0 2.254-1.862 3.724-4.83 3.724-1.904 0-3.066-.826-3.066-2.002 0-.952.868-1.82 2.156-1.82 1.862 0 2.8 1.316 2.898 2.73l-1.008.168c-.084-1.19-.77-2.044-1.89-2.044-.644 0-1.134.392-1.134.882 0 .686.77 1.092 1.876 1.092 2.38 0 3.878-.98 3.878-2.73 0-1.386-1.316-2.408-3.15-2.408-2.324 0-3.584.98-5.348 2.786l-.812-.812a271.08 271.08 0 003.766-3.15c.784-.644 2.548-2.114 3.248-2.744-.742.042-3.542.154-4.27.196-.322.028-.63.042-.938.084l-.028-1.148zm16.926-.7c-.084.308-.182.84-.238 1.106-.21 1.008-.504 2.59-.896 3.99-.504 1.988-1.442 4.886-2.184 6.412l-1.218-.406c.84-1.456 1.82-4.298 2.352-6.272.336-1.288.7-3.052.798-3.78.056-.392.084-.868.056-1.162l1.33.112zm-3.094 2.338c1.54 0 3.598-.252 5.334-.686v1.092c-1.736.392-3.85.63-5.362.63-.616 0-1.106-.014-1.624-.056l-.028-1.092c.658.084 1.162.112 1.68.112zm4.424 1.918c.728-.07 1.666-.112 2.562-.112.812 0 1.666.028 2.422.112l-.028 1.064c-.728-.084-1.54-.168-2.366-.168-.868 0-1.736.056-2.59.154v-1.05zm.28 3.402c-.112.462-.196.896-.196 1.26 0 .658.378 1.302 2.366 1.302.924 0 1.876-.098 2.744-.266l-.042 1.12c-.756.112-1.694.196-2.716.196-2.198 0-3.402-.672-3.402-2.058 0-.532.084-1.064.21-1.652l1.036.098zm15.638-7.49c-.098.35-.182.84-.252 1.106-.504 2.31-1.484 5.236-2.604 6.776-1.064 1.484-2.086 2.534-3.36 2.534-1.064 0-1.96-.882-1.96-2.52 0-1.764 1.078-3.626 2.562-4.62 1.386-.938 2.758-1.302 4.2-1.302 2.744 0 4.732 1.848 4.732 4.578 0 2.8-2.002 4.494-5.012 4.914l-.644-.994c2.926-.266 4.536-1.792 4.536-3.962 0-2.058-1.484-3.57-3.738-3.57-1.358 0-2.576.462-3.668 1.274-1.19.854-1.946 2.352-1.946 3.612 0 .924.406 1.484 1.036 1.484.91 0 1.89-1.19 2.604-2.324.924-1.428 1.862-3.99 2.212-6.034.056-.28.098-.742.084-1.064l1.218.112zm-5.74.644c.07.378.182.84.294 1.232.364 1.372 1.148 3.528 1.736 4.508.476.812 1.134 1.736 1.806 2.38l-.882.714a12.742 12.742 0 01-1.61-2.212c-.686-1.092-1.498-3.234-2.03-4.984-.14-.448-.294-.91-.476-1.274l1.162-.364zm14.266 10.976a24.128 24.128 0 00-3.108-3.108l.91-.798c1.008.812 2.268 2.072 3.15 3.094l-.952.812zm16.66-12.544h1.106v2.254h-1.106v-2.254zm-5.222 1.484h11.69v3.024h-1.106v-2.03h-9.52v2.03h-1.064v-3.024zm4.662 1.624l1.092.238c-1.036 2.128-2.506 4.956-3.5 6.65l-1.078-.294c1.022-1.68 2.534-4.536 3.486-6.594zm3.71 2.898l1.162.168c-1.148 4.34-4.144 5.964-8.974 6.734-.112-.252-.434-.714-.63-.952 4.746-.588 7.532-2.058 8.442-5.95zm-8.778-.63h12.432v.994h-12.432v-.994zm2.394 3.836l.714-.742c2.94.812 6.692 2.324 8.652 3.57l-.784.868c-1.862-1.246-5.572-2.828-8.582-3.696zm15.148-5.292h1.078v7.028c0 .658.168.784.938.784h2.59c.826 0 .952-.518 1.064-2.94.252.21.686.406.994.476-.154 2.646-.476 3.43-2.002 3.43h-2.744c-1.484 0-1.918-.378-1.918-1.75v-7.028zm.112-3.052l.658-.798c1.694.574 3.724 1.582 4.83 2.338l-.672.924c-1.078-.812-3.122-1.862-4.816-2.464zm-2.45 4.172l1.008.21c-.21 1.876-.644 4.116-1.652 5.46l-.952-.574c.938-1.232 1.4-3.276 1.596-5.096zm8.162.014l.938-.462c1.26 1.596 2.31 3.71 2.66 5.194l-1.05.504c-.308-1.47-1.358-3.654-2.548-5.236zm-272.65 17.8c-.07.462-.112.952-.14 1.414-.056 1.582-.168 4.9-.168 6.986 0 1.54.966 2.072 2.296 2.072 2.562 0 4.018-1.428 5.026-2.884l.784.952c-.952 1.33-2.772 3.08-5.838 3.08-2.016 0-3.402-.826-3.402-3.122 0-2.072.14-5.614.14-7.084 0-.518-.042-1.008-.126-1.414H4.76zm10.062 1.61c.532-.014.98-.042 1.26-.07.91-.098 3.542-.35 6.132-.574a77.097 77.097 0 013.766-.238l.014 1.12c-.812-.014-2.03.014-2.744.21-2.002.644-3.22 2.786-3.22 4.438 0 2.73 2.562 3.598 4.83 3.696l-.392 1.148c-2.604-.098-5.544-1.47-5.544-4.606 0-2.184 1.33-3.962 2.618-4.718-1.512.154-5.068.504-6.594.826l-.126-1.232zm21.56-2.436h.994v9.73h-.994v-9.73zm-4.872 5.768l8.414-3.262.406.91-8.428 3.276-.392-.924zm1.764-4.396h1.036v9.366c0 .798.196.98 1.19.98h3.598c.854 0 1.008-.392 1.12-2.044.252.182.672.364.98.434-.182 1.932-.518 2.562-2.072 2.562h-3.668c-1.694 0-2.184-.392-2.184-1.946v-9.352zm6.3 1.372h-.126l.252-.21.182-.168.728.308-.042.168c-.014 2.548-.042 4.564-.182 5.166-.112.644-.406.91-.84 1.022-.378.098-.994.112-1.414.098-.028-.294-.14-.728-.266-.966.392.014.896.014 1.078.014.238 0 .392-.056.49-.42.112-.448.14-2.282.14-5.012zm-8.134-2.716l.966.308c-.91 2.352-2.352 4.732-3.85 6.3-.112-.238-.406-.784-.588-1.022 1.386-1.358 2.688-3.458 3.472-5.586zm-1.484 3.612l1.008-1.022.014.014v10.206h-1.022v-9.198zm22.792-.896a2.2 2.2 0 00-.112.462c-.154 1.414-.812 5.6-1.008 6.832h-1.26c.238-1.218.91-5.474.938-6.51h-5.502c-.532 0-.91.014-1.344.056v-1.246c.42.042.868.084 1.33.084h5.152c.28 0 .714-.056.868-.126l.938.448zm-9.856 6.916c.406.07.84.084 1.232.084h9.436c.434 0 .812-.042 1.176-.084v1.288a9.069 9.069 0 00-1.176-.07h-9.436c-.392 0-.812.028-1.232.07v-1.288zm14.378-3.99c.434.042 1.162.084 1.96.084h7.672c.7 0 1.19-.056 1.512-.084v1.372c-.294-.014-.882-.056-1.498-.056H59.23c-.77 0-1.512.028-1.96.056v-1.372zm23.527-4.606c.266.504.63 1.372.826 1.932l-.7.238c-.196-.588-.518-1.428-.798-1.96l.672-.21zm1.4-.434c.266.518.63 1.372.84 1.932l-.7.238c-.224-.63-.532-1.428-.826-1.96l.686-.21zm-2.73 4.928c0 3.724-.798 5.642-3.99 7.07l-.952-.882c2.548-.98 3.822-2.184 3.822-6.104v-3.402c0-.546-.042-1.008-.07-1.148h1.26c-.014.14-.07.602-.07 1.148v3.318zm-5.04-4.368c-.014.126-.07.518-.07 1.008v5.138c0 .504.042 1.12.056 1.26H73.18c.014-.14.056-.728.056-1.26v-5.138c0-.294-.014-.7-.056-1.008h1.246zm-4.102 2.716c.126.014.812.084 1.414.084h9.268c.616 0 1.092-.042 1.288-.07v1.19c-.154-.028-.672-.042-1.288-.042h-9.268c-.616 0-1.246.028-1.414.042v-1.204zm14.812 1.764c.434.042 1.162.084 1.96.084h7.672c.7 0 1.19-.056 1.512-.084v1.372c-.294-.014-.882-.056-1.498-.056h-7.686c-.77 0-1.512.028-1.96.056v-1.372zm24.038-2.282c-.308.182-.658.378-1.078.588-.938.49-2.884 1.414-4.256 2.31-1.302.854-2.086 1.778-2.086 2.828 0 1.162 1.12 1.89 3.332 1.89 1.512 0 3.388-.196 4.48-.476l-.014 1.26c-1.05.182-2.674.336-4.424.336-2.632 0-4.536-.784-4.536-2.884 0-1.512 1.022-2.702 2.674-3.794 1.428-.952 3.388-1.89 4.298-2.408.406-.238.714-.42 1.008-.658l.602 1.008zm-7.084-2.548a31.887 31.887 0 002.156 4.676l-.952.574c-.714-1.148-1.554-3.038-2.31-4.774l1.106-.476zm12.166 1.302c.476.042 1.078.084 1.54.084h6.888c.35 0 .756-.014 1.036-.028-.014.308-.028.756-.028 1.078v7.238c0 .504.042 1.134.056 1.344h-1.26c0-.21.028-.728.028-1.232V343.6h-6.72c-.518 0-1.204.028-1.54.056v-1.246zm-.168 7.728c.35.028.966.07 1.54.07h7.518v1.148h-7.476c-.574 0-1.204.014-1.582.056v-1.274zm15.862-8.736c1.82.238 5.572 1.022 7.336 1.638l-.448 1.078c-1.694-.63-5.362-1.428-7.294-1.68l.406-1.036zm-.644 3.696c1.918.336 5.32 1.05 7.056 1.68l-.434 1.078c-1.624-.63-5.054-1.4-7.042-1.708l.42-1.05zm-.756 4.074c2.338.378 6.412 1.33 8.33 2.1l-.49 1.078c-1.848-.812-6.02-1.75-8.274-2.1l.434-1.078zm21.756-3.822a1.587 1.587 0 00-.084.434c-.126 1.05-.63 4.41-.798 5.39h-1.176c.154-.756.672-4.186.714-5.082h-4.438c-.406 0-.784.014-1.134.042v-1.176c.336.042.77.07 1.12.07h4.256c.224 0 .574-.028.686-.098l.854.42zm-8.232 5.376c.336.042.742.07 1.162.07h7.644c.308 0 .812-.028 1.106-.056v1.134c-.266-.014-.77-.014-1.078-.014h-7.672c-.42 0-.742.014-1.162.028v-1.162zm14.49-7.84c.448.042.91.07 1.372.07h6.006c.504 0 .994-.028 1.372-.07v1.26c-.378-.014-.91-.028-1.372-.028h-6.006c-.476 0-.952.014-1.372.028v-1.26zm-1.204 6.944c.476.028.952.07 1.47.07h8.386c.406 0 .868-.028 1.274-.07v1.344c-.42-.042-.91-.07-1.274-.07h-8.386c-.518 0-1.008.028-1.47.07v-1.344zm18.55-8.652c-.126.322-.252.7-.364.994-.21.63-.532 1.484-.924 2.254-.546 1.092-1.582 2.506-2.45 3.248l-1.106-.672c1.008-.714 2.002-2.156 2.492-3.01.378-.7.63-1.414.784-1.96.112-.35.182-.742.21-1.106l1.358.252zm-1.764 2.408h7.49c.336 0 .896-.014 1.302-.084v1.204c-.434-.028-.98-.028-1.302-.028h-7.63l.14-1.092zm5.138.588c-.126 4.312-1.722 6.79-4.228 8.372l-1.19-.798a4.3 4.3 0 001.134-.658c1.442-1.078 3.024-3.038 3.108-6.916h1.176zm6.342 1.764c.434.042 1.162.084 1.96.084h7.672c.7 0 1.19-.056 1.512-.084v1.372c-.294-.014-.882-.056-1.498-.056h-7.686c-.77 0-1.512.028-1.96.056v-1.372zm16.582-4.69c.826.462 2.436 1.54 3.052 1.988l-.658.952c-.672-.518-2.198-1.526-3.01-1.988l.616-.952zm-2.1 10.01c1.54-.266 3.276-.826 4.704-1.624 2.324-1.33 4.172-3.164 5.292-5.138l.686 1.162c-1.218 1.876-3.15 3.682-5.39 4.998-1.414.826-3.346 1.47-4.634 1.736l-.658-1.134zm0-6.86c.826.448 2.464 1.456 3.066 1.89l-.644.98c-.686-.504-2.198-1.47-3.052-1.918l.63-.952zm15.078-.07c.266.028 1.064.042 1.442.042h5.404c.322 0 .672-.014.868-.014-.014.154-.014.448-.014.714v6.972c0 .224.014.546.014.756h-1.106c.014-.168.014-.504.014-.798v-6.622h-5.18c-.378 0-1.176.028-1.442.028v-1.078zm.308 3.318c.28.028.784.056 1.26.056h5.6v1.008h-5.6c-.476 0-.98 0-1.26.028v-1.092zm-.462 3.486c.224.028.658.056 1.148.056h6.188v1.036h-6.188c-.434 0-.924.028-1.148.028v-1.12zm14.294-9.38c.98.658 2.786 2.114 3.556 2.884l-.868.896c-.714-.728-2.45-2.24-3.5-2.926l.812-.854zm-1.204 9.38a14.468 14.468 0 005.586-2.044c2.17-1.358 3.864-3.43 4.676-5.166l.672 1.204a14.021 14.021 0 01-4.69 4.97c-1.414.882-3.178 1.75-5.516 2.184l-.728-1.148zm18.536-10.192c-.126.546-.28 1.316-.644 2.254-.35.854-.868 1.792-1.428 2.52.546-.322 1.344-.518 1.96-.518 1.078 0 1.918.644 1.918 1.778 0 .728.028 2.338.042 3.206h-1.078c.056-.742.07-2.184.056-2.912-.014-.812-.574-1.19-1.302-1.19-.896 0-1.778.448-2.422 1.022-.406.392-.798.896-1.26 1.47l-.966-.714c2.016-1.932 2.954-3.556 3.43-4.746.308-.77.504-1.61.546-2.268l1.148.098zm-4.802 1.512c.756.098 1.722.14 2.366.14 1.89 0 4.312-.112 6.286-.462v1.036c-1.96.294-4.564.42-6.342.42-.602 0-1.526-.028-2.31-.084v-1.05zm10.696 3.374c-.35.112-.854.308-1.232.448-.994.392-2.324.924-3.682 1.624-1.386.728-2.366 1.484-2.366 2.45 0 1.092 1.078 1.26 2.52 1.26 1.092 0 2.604-.126 3.836-.35l-.042 1.134a36.39 36.39 0 01-3.836.238c-1.988 0-3.598-.434-3.598-2.128 0-1.708 1.736-2.758 3.402-3.612 1.33-.686 2.464-1.12 3.388-1.554.42-.196.77-.35 1.162-.546l.448 1.036zm13.118-2.17c-.308.182-.658.378-1.078.588-.938.49-2.884 1.414-4.256 2.31-1.302.854-2.086 1.778-2.086 2.828 0 1.162 1.12 1.89 3.332 1.89 1.512 0 3.388-.196 4.48-.476l-.014 1.26c-1.05.182-2.674.336-4.424.336-2.632 0-4.536-.784-4.536-2.884 0-1.512 1.022-2.702 2.674-3.794 1.428-.952 3.388-1.89 4.298-2.408.406-.238.714-.42 1.008-.658l.602 1.008zm-7.084-2.548a31.887 31.887 0 002.156 4.676l-.952.574c-.714-1.148-1.554-3.038-2.31-4.774l1.106-.476zm13.104.588c.308.028.7.042.98.042.742 0 4.06-.098 4.802-.168.42-.042.616-.07.77-.126l.644.826c-.252.168-.532.35-.798.56-.686.532-2.59 2.17-3.682 3.066.644-.21 1.316-.28 1.946-.28 2.324 0 3.99 1.386 3.99 3.276 0 2.254-1.862 3.724-4.83 3.724-1.904 0-3.066-.826-3.066-2.002 0-.952.868-1.82 2.156-1.82 1.862 0 2.8 1.316 2.898 2.73l-1.008.168c-.084-1.19-.77-2.044-1.89-2.044-.644 0-1.134.392-1.134.882 0 .686.77 1.092 1.876 1.092 2.38 0 3.878-.98 3.878-2.73 0-1.386-1.316-2.408-3.15-2.408-2.324 0-3.584.98-5.348 2.786l-.812-.812a271.08 271.08 0 003.766-3.15c.784-.644 2.548-2.114 3.248-2.744-.742.042-3.542.154-4.27.196-.322.028-.63.042-.938.084l-.028-1.148zM3.276 364.186c1.008.112 2.296.168 3.71.168 1.344 0 2.758-.084 3.766-.196v1.148c-.952.07-2.478.168-3.766.168-1.4 0-2.604-.056-3.71-.154v-1.134zm.56 5.642c-.168.546-.28 1.064-.28 1.582 0 1.078 1.092 1.806 3.332 1.806 1.918 0 3.724-.21 4.788-.546l.014 1.204c-1.008.266-2.786.476-4.774.476-2.842 0-4.494-.924-4.494-2.688 0-.728.154-1.386.28-1.946l1.134.112zm21.616-4.172c-.308.182-.658.378-1.078.588-.938.49-2.884 1.414-4.256 2.31-1.302.854-2.086 1.778-2.086 2.828 0 1.162 1.12 1.89 3.332 1.89 1.512 0 3.388-.196 4.48-.476l-.014 1.26c-1.05.182-2.674.336-4.424.336-2.632 0-4.536-.784-4.536-2.884 0-1.512 1.022-2.702 2.674-3.794 1.428-.952 3.388-1.89 4.298-2.408.406-.238.714-.42 1.008-.658l.602 1.008zm-7.084-2.548a31.887 31.887 0 002.156 4.676l-.952.574c-.714-1.148-1.554-3.038-2.31-4.774l1.106-.476zm15.708.028c-.056.252-.112.56-.168.826-.098.504-.28 1.652-.476 2.52-.476 1.974-1.47 5.46-3.052 8.008l-1.148-.448c1.596-2.142 2.716-5.88 3.094-7.588.266-1.12.448-2.38.448-3.458l1.302.14zm4.816 1.61c.868 1.134 2.086 3.682 2.562 4.97l-1.092.518c-.406-1.428-1.512-3.864-2.492-5.026l1.022-.462zm-9.856 1.456c.434.028.798.014 1.246 0 1.05-.028 3.892-.336 4.844-.336 1.246 0 2.268.476 2.268 2.366 0 1.666-.224 3.892-.812 5.054-.434.938-1.134 1.176-2.044 1.176a7.37 7.37 0 01-1.638-.21l-.196-1.162c.588.182 1.33.28 1.722.28.518 0 .938-.112 1.218-.714.448-.952.672-2.772.672-4.284 0-1.288-.588-1.526-1.484-1.526-.938 0-3.57.322-4.424.406-.322.042-.896.112-1.26.168l-.112-1.218zm10.01-3.486c.35.504.854 1.358 1.148 1.932l-.756.336c-.28-.574-.756-1.414-1.148-1.946l.756-.322zm1.54-.56c.378.518.91 1.4 1.19 1.918l-.77.336c-.294-.616-.756-1.414-1.162-1.932l.742-.322zm2.716 2.632c.532-.014.98-.042 1.26-.07.896-.098 3.542-.35 6.118-.574 1.54-.126 2.842-.21 3.78-.238l.014 1.12c-.812-.014-2.03.014-2.744.21-2.002.644-3.22 2.786-3.22 4.438 0 2.73 2.562 3.612 4.83 3.696l-.406 1.148c-2.59-.098-5.53-1.47-5.53-4.606 0-2.17 1.33-3.962 2.604-4.718-1.498.154-5.068.504-6.58.826l-.126-1.232zm9.142 1.946c.322.462.854 1.33 1.162 1.96l-.728.322c-.322-.672-.714-1.386-1.134-1.974l.7-.308zm1.526-.588c.35.462.896 1.316 1.218 1.932l-.714.35a13.784 13.784 0 00-1.19-1.96l.686-.322zm4.816-1.736c1.946.238 3.78.266 5.208.126a14.555 14.555 0 003.304-.672l.154 1.022c-.91.266-2.1.504-3.22.602-1.414.14-3.374.14-5.376-.056l-.07-1.022zm-.28 2.87c2.394.252 4.774.21 6.412.014a17.73 17.73 0 003.206-.644l.182 1.036c-.77.21-1.834.42-3.01.56-1.722.224-4.312.266-6.72.084l-.07-1.05zm4.788-3.052c-.112-.406-.238-.84-.392-1.246l1.19-.154c.14 1.176.574 2.59.924 3.584.378 1.092.994 2.436 1.722 3.514.154.224.322.42.532.602l-.588.854c-.784-.196-2.086-.336-3.052-.434l.084-.854c.756.07 1.666.168 2.1.224-.77-1.204-1.358-2.548-1.764-3.682-.35-.966-.56-1.708-.756-2.408zm-2.744 6.076c-.336.476-.588.952-.588 1.582 0 1.148 1.022 1.736 3.22 1.736 1.302 0 2.324-.098 3.346-.294l-.056 1.106c-.98.168-2.072.252-3.276.252-2.73 0-4.27-.812-4.298-2.618 0-.798.238-1.386.56-2.002l1.092.238zm17.808-7.406c-.028.238-.056.518-.07.938-.028.56-.028 2.436-.028 3.612 0 1.848.21 4.298.21 5.236 0 .98-.644 1.974-2.464 1.974-2.016 0-3.122-.714-3.122-2.072 0-1.274 1.218-2.128 3.234-2.128 2.954 0 5.264 1.596 6.342 2.478l-.644.994c-1.26-1.162-3.332-2.562-5.824-2.562-1.344 0-2.058.518-2.058 1.162 0 .658.546 1.134 1.932 1.134.812 0 1.498-.238 1.498-1.218 0-1.078-.14-3.766-.14-4.998v-3.71c0-.238-.014-.658-.056-.84h1.19zm-5.348 1.512c.896.168 2.646.308 3.57.308 1.778 0 3.654-.126 5.474-.42v1.022c-1.582.182-3.584.364-5.46.364-.966 0-2.688-.126-3.57-.238l-.014-1.036zm-.07 2.982c.994.154 2.59.252 3.514.252 2.03 0 3.892-.14 5.712-.406v1.05c-1.904.238-3.612.336-5.712.336-.966 0-2.506-.07-3.5-.182l-.014-1.05zm20.258-4.48c-.028.168-.07.714-.07.882-.042.91-.014 3.612 0 4.732l-1.064-.546c0-.616-.014-3.402-.056-4.172a9.46 9.46 0 00-.098-.896h1.288zm-7.448 1.96c1.904-.028 5.404-.154 7.56-.154 1.708 0 3.444 0 4.102.014l-.014 1.036c-.784-.042-2.044-.07-4.102-.07-2.408 0-5.404.098-7.518.252l-.028-1.078zm7.35 4.06c0 1.876-.868 2.814-2.142 2.814-1.176 0-2.31-.826-2.31-2.352 0-1.386 1.148-2.422 2.478-2.422 1.624 0 2.45 1.204 2.45 2.814 0 1.904-.924 4.004-4.172 4.97l-.938-.91c2.548-.602 4.032-1.848 4.032-4.158 0-1.26-.616-1.792-1.372-1.792-.742 0-1.428.574-1.428 1.484 0 .882.658 1.386 1.428 1.386.868 0 1.428-.728 1.204-2.226l.77.392zm6.712 1.666a2.127 2.127 0 110 4.256 2.139 2.139 0 01-2.142-2.128c0-1.176.965-2.128 2.141-2.128zm0 3.542a1.41 1.41 0 001.413-1.414 1.41 1.41 0 00-1.413-1.414c-.784 0-1.428.63-1.428 1.414 0 .784.644 1.414 1.427 1.414z" fill="#000"/><defs><clipPath id="clip0_1007528_25590"><path fill="#fff" transform="translate(59 69)" d="M0 0h160v101H0z"/></clipPath></defs></svg>