<svg width="327" height="41" fill="none" xmlns="http://www.w3.org/2000/svg"><g clip-path="url(#clip0_1007500_25321)" fill="#F24E1E"><path d="M27.123 20.483h-.606l-3.89 19.006h-14.1L.847 2.802h11.268l4.548 24.916h.305l4.747-24.916h10.864l5.002 24.916h.304L41.98 2.802h10.662L44.96 39.487H31.164l-4.043-19.006.003.002zm44.014 19.004V21.094c0-1.63-.506-2.446-2.022-2.446-1.212 0-2.98.866-4.346 1.783v19.056h-10.36V.611h10.36v13.043c2.627-1.783 5.61-2.956 8.286-2.956 4.8 0 8.439 2.293 8.439 8.662v20.127h-10.36.003zm28.399-17.221v-1.172c0-1.63-.859-2.956-4.852-2.956-2.326 0-6.418.51-8.944 1.274V11.87c3.89-.764 8.439-1.172 11.623-1.172 7.732 0 12.532 3.515 12.532 10.648v18.139h-8.944l-.606-2.6h-.252c-2.88 2.09-5.458 3.006-7.885 3.006-5.102 0-8.843-3.058-8.843-9.07 0-5.096 3.437-8.561 10.764-8.561h5.407v.006zm0 5.452h-2.931c-1.921 0-2.78.866-2.78 2.394 0 1.732.96 2.548 2.326 2.548 1.212 0 2.374-.458 3.385-1.172v-3.77zm24.457 1.63c0 2.192 1.465 2.803 3.233 2.803 1.112 0 2.274-.255 3.336-.458v7.49c-2.578.51-6.368.865-8.843.865-3.689 0-8.085-1.172-8.085-7.846v-13.35h-3.032v-6.114l8.892-7.744h4.497v6.317h7.681v7.542h-7.681v10.495h.002zm9.754-28.329h8.843c.253 1.07.304 2.446.304 3.465 0 4.688-2.475 9.12-4.749 12.637h-4.396V1.02h-.002zm28.247 10.495l-.304 7.591c-1.87-.356-5.255-.816-7.529-.816-2.578 0-3.537.51-3.537 1.63 0 3.466 13.087-.356 13.087 10.495 0 6.778-4.852 9.682-13.139 9.682-2.627 0-7.275-.255-10.006-.663l.305-7.693c2.526.458 6.77.918 9.196.918s3.133-.765 3.133-1.987c0-3.312-12.935.154-12.935-9.936 0-7.234 4.8-10.037 12.733-10.037 2.78 0 6.418.307 8.996.816zm32.088 20.179c1.163 0 2.122-.154 3.437-.458v-11.82h10.156V37.45c-3.689 1.326-9.248 2.65-15.109 2.65-13.038 0-17.787-7.542-17.787-19.158 0-10.75 6.621-18.752 20.314-18.752 3.991 0 8.439.458 11.522 1.274l-.051 8.712c-2.932-.866-7.782-1.529-10.409-1.529-5.154 0-10.561 2.293-10.561 10.547 0 7.184 3.032 10.495 8.49 10.495l-.002.003zM224.3 10.7c8.995 0 14.806 4.994 14.806 14.725 0 9.73-5.811 14.675-14.806 14.675-8.996 0-14.704-4.84-14.704-14.675S215.306 10.7 224.3 10.7zm.051 21.858c3.233 0 4.195-2.446 4.195-7.133 0-4.687-.96-7.183-4.195-7.183-3.235 0-4.195 2.446-4.195 7.183s1.011 7.134 4.195 7.134zM255.832 10.7c8.995 0 14.806 4.994 14.806 14.725 0 9.73-5.811 14.675-14.806 14.675-8.996 0-14.704-4.84-14.704-14.675s5.71-14.725 14.704-14.725zm.051 21.858c3.233 0 4.195-2.446 4.195-7.133 0-4.687-.96-7.183-4.195-7.183-3.235 0-4.195 2.446-4.195 7.183s1.011 7.134 4.195 7.134zm31.835-21.808c.91 0 1.821.153 2.728.307V.61h10.36v38.876h-8.54l-.657-1.58c-2.223 1.325-4.953 2.09-7.985 2.09-5.154 0-10.864-3.211-10.864-13.96 0-11.619 6.417-15.287 14.956-15.287h.002zm-.758 21.705c.96 0 2.174-.408 3.486-1.172V18.34a10.132 10.132 0 00-2.072-.203c-3.739 0-5.054 1.784-5.054 7.591 0 4.688 1.315 6.726 3.638 6.726h.002zm28.299-21.042c0-1.732-1.768-2.75-4.749-2.75-2.325 0-5.254.56-7.528 1.171V1.222C306.924.406 310.814 0 313.947 0c7.126 0 12.329 3.72 12.329 9.528 0 8.254-8.439 9.936-8.439 16.61 0 .712.101 1.476.253 2.394h-10.259c-.1-.713-.152-1.477-.152-2.192 0-9.22 7.58-11.31 7.58-14.93v.003zm-7.327 20.89h10.409v7.184h-10.409v-7.183z"/></g><defs><clipPath id="clip0_1007500_25321"><path fill="#fff" transform="translate(.846)" d="M0 0h325.428v40.1H0z"/></clipPath></defs></svg>