<svg width="179" height="19" fill="none" xmlns="http://www.w3.org/2000/svg"><path d="M14.44 4.76c0 .7.58 1.28 1.28 1.28.7 0 1.26-.58 1.26-1.28 0-.7-.56-1.26-1.26-1.26s-1.28.56-1.28 1.26zm-1.32 0c0-1.44 1.16-2.6 2.6-2.6 1.44 0 2.6 1.16 2.6 2.6 0 1.44-1.16 2.6-2.6 2.6-1.44 0-2.6-1.16-2.6-2.6zM.7 11.32c.58-.5 1.02-.92 1.64-1.54.9-.9 2.46-2.86 3.84-4.5 1.2-1.42 2.38-1.64 3.92-.18 1.36 1.28 2.88 2.86 4.08 4.16 1.34 1.44 3.4 3.64 4.94 5.28l-2.22 2.38c-1.34-1.66-3.02-3.74-4.2-5.12-1.18-1.38-2.94-3.32-3.66-4.06-.66-.64-1.08-.6-1.64.12-.8 1.02-2.2 2.98-3.02 4.08-.46.62-.92 1.34-1.28 1.86L.7 11.32zm27.38-6.18c.38.84 1.36 3.46 1.64 4.38l-2.38.82c-.26-.96-1.14-3.38-1.62-4.42l2.36-.78zm7.38 1.44c-.22.66-.34 1.08-.46 1.48-.52 2.02-1.38 4.1-2.74 5.84-1.86 2.42-4.34 4.08-6.68 4.98l-2.1-2.14c2.18-.6 4.98-2.12 6.62-4.2 1.36-1.68 2.34-4.34 2.56-6.86l2.8.9zm-12.02-.4c.5 1.02 1.48 3.46 1.86 4.58l-2.44.9c-.32-1.06-1.34-3.74-1.82-4.6l2.4-.88zm18.82 8.92V3.6c0-.72-.06-1.7-.2-2.42h3.12C45.1 1.9 45 2.76 45 3.6c0 2.2.02 10.02.02 11.5 0 .56.08 1.96.18 2.78h-3.14c.14-.78.2-2 .2-2.78zm2.16-8.74c2.66.74 6.98 2.32 8.94 3.28l-1.12 2.78c-2.28-1.18-5.64-2.46-7.82-3.18V6.36zm13-4.04c.58.04 1.22.08 1.94.08H69c.66 0 1.32-.04 1.78-.08V4.8c-.52-.02-1.06-.04-1.78-.04h-9.64c-.72 0-1.36.02-1.94.04V2.32zm6.88 7.04v4.28c0 1.08.66 1.48 2.28 1.48 1.78 0 3.54-.1 5.16-.28l-.18 2.72c-1.3.08-3.58.14-5.44.14-3.66 0-4.56-1.24-4.56-3.26V4.16h2.74v5.2zm-8.2-1.32c.56.04 1.58.12 2.18.12h12.04c.42 0 1.44-.06 1.96-.1v2.58c-.54-.08-1.44-.06-1.88-.06H58.28c-.56 0-1.58.04-2.18.08V8.04zm24.86 3.82l-.52-6.84-.1-2.98h3.3l-.1 2.98-.52 6.84h-2.06zM82 17.2c-1.04 0-1.78-.74-1.78-1.78s.76-1.76 1.78-1.76c1 0 1.76.72 1.76 1.76S83 17.2 82 17.2zm19.82-13.9c-.28 2.04-.68 4.38-1.38 6.74-1.2 4.04-2.92 6.52-5.1 6.52-2.24 0-4.08-2.46-4.08-5.84 0-4.6 4.02-8.56 9.2-8.56 4.94 0 8.08 3.44 8.08 7.82 0 4.2-2.58 7.18-7.62 7.96l-1.52-2.36c.78-.1 1.34-.2 1.88-.32 2.54-.62 4.54-2.44 4.54-5.38 0-3.14-1.96-5.38-5.42-5.38-4.24 0-6.56 3.46-6.56 5.98 0 2.02.8 3 1.56 3 .86 0 1.62-1.28 2.46-3.98.58-1.88 1.02-4.18 1.22-6.28l2.74.08zm7.42 5.94c3.58-.92 6.5-2.22 8.74-3.6 2.04-1.26 4.32-3.26 5.62-4.84l2.16 2.04c-1.82 1.84-4.26 3.72-6.62 5.14-2.26 1.34-5.5 2.84-8.66 3.78l-1.24-2.52zm8.32-2.3l2.84-.68v9.02c0 .88.04 2.12.18 2.62h-3.18c.08-.48.16-1.74.16-2.62V6.94zm9.68 2.3c3.58-.92 6.5-2.22 8.74-3.6 2.04-1.26 4.32-3.26 5.62-4.84l2.16 2.04c-1.82 1.84-4.26 3.72-6.62 5.14-2.26 1.34-5.5 2.84-8.66 3.78l-1.24-2.52zm8.32-2.3l2.84-.68v9.02c0 .88.04 2.12.18 2.62h-3.18c.08-.48.16-1.74.16-2.62V6.94zm25.1-1.6c-.62.36-1.26.72-2 1.08-1.24.62-3.74 1.8-5.58 2.98-1.66 1.08-2.78 2.24-2.78 3.62 0 1.44 1.4 2.22 4.18 2.22 2.04 0 4.74-.32 6.52-.74l-.02 2.88c-1.72.28-3.82.5-6.42.5-4 0-7.02-1.12-7.02-4.56 0-2.54 1.86-4.32 4.24-5.88 1.9-1.26 4.42-2.5 5.64-3.2.76-.44 1.32-.78 1.84-1.2l1.4 2.3zM150.6 1.06c.96 2.66 2.22 5.06 3.16 6.74l-2.28 1.32c-1.1-1.82-2.3-4.44-3.4-7.02l2.52-1.04zm15.74 1.42c1.48.16 3.34.24 5.46.24 1.96 0 4.26-.12 5.78-.28V5.1c-1.4.12-3.86.24-5.78.24-2.08 0-3.82-.1-5.46-.22V2.48zm1.68 8.46c-.18.72-.34 1.36-.34 2.04 0 1.26 1.24 2.2 4.12 2.2 2.68 0 5.24-.3 7.02-.8l.02 2.82c-1.76.4-4.16.66-6.96.66-4.56 0-6.88-1.52-6.88-4.28 0-1.14.26-2.12.4-2.88l2.62.24z" fill="#000"/></svg>