<svg width="341" height="331" fill="none" xmlns="http://www.w3.org/2000/svg"><path stroke="#000" stroke-opacity=".3" stroke-dasharray="4 4" d="M1 .5h340M0 66.5h340"/><path d="M6.328 34.488h1.5v4.032c0 .744-.18 1.128-.744 1.32-.564.204-1.344.228-2.376.228-.084-.408-.324-1.008-.528-1.392.708.036 1.608.036 1.848.024.228-.012.3-.048.3-.228v-3.984zm-3.612-5.004h7.368v1.32H2.716v-1.32zm6.828 0h.384l.324-.084 1.032.816c-1.02 1.008-2.436 2.148-3.72 2.856-.192-.288-.624-.732-.864-.96 1.044-.588 2.304-1.632 2.844-2.316v-.312zm-7.992 3.912h9.804v1.368H1.552v-1.368zm2.844-1.056l.72-1.08c1.308.444 3.372 1.2 4.416 1.668l-.768 1.236c-.972-.48-2.988-1.308-4.368-1.824zm6.48 1.056h.276l.252-.096 1.176.504c-.528 1.128-1.248 2.34-1.932 3.144l-1.224-.708c.504-.672 1.116-1.728 1.452-2.604v-.24zm8.04.852l1.152-.588c.624.828 1.308 1.944 1.572 2.712l-1.26.648c-.216-.744-.852-1.908-1.464-2.772zm.396-3.396h4.308v1.356h-4.308v-1.356zm3.696 0H24.4s0 .48-.012.66c-.18 5.292-.336 7.2-.84 7.836-.336.456-.66.588-1.164.672-.444.06-1.176.06-1.884.024-.024-.408-.216-1.032-.48-1.44.756.06 1.452.06 1.764.06.24 0 .384-.036.516-.204.396-.408.564-2.436.708-7.32v-.288zM19.384 28.8l1.488.324c-.504 1.788-1.332 3.552-2.244 4.644-.288-.24-.924-.672-1.284-.876.912-.948 1.644-2.52 2.04-4.092zm-4.224.024l1.272.444c-.492.936-1.056 2.004-1.524 2.664l-.972-.396c.432-.72.948-1.872 1.224-2.712zm1.44 1.416l1.212.504c-.888 1.38-2.064 3.048-2.988 4.068l-.876-.444c.924-1.08 2.016-2.844 2.652-4.128zm-3.288 1.428l.672-.996c.648.552 1.392 1.32 1.704 1.848l-.732 1.128c-.3-.576-1.032-1.404-1.644-1.98zm2.988 1.464l1.02-.444c.48.804.96 1.848 1.116 2.544l-1.092.504c-.144-.684-.588-1.776-1.044-2.604zm-3 .972c1.116-.036 2.772-.108 4.38-.192v1.14c-1.512.12-3.072.228-4.26.3l-.12-1.248zm3.216 2.04l1.056-.348c.312.72.636 1.656.78 2.268l-1.128.408c-.108-.624-.42-1.596-.708-2.328zm-2.7-.276l1.188.204c-.12 1.152-.384 2.352-.732 3.12a9.208 9.208 0 00-1.092-.528c.348-.708.54-1.776.636-2.796zm1.392-1.128h1.284v5.352h-1.284V34.74zm15.24-5.124c-.072.312-.144.696-.204.996-.12.54-.264 1.284-.396 1.896-.396 1.692-1.356 5.112-2.616 7.14l-1.572-.624c1.428-1.92 2.328-5.088 2.664-6.6.228-1.08.36-2.1.348-3l1.776.192zm4.14 1.2c.732 1.044 1.74 3.276 2.112 4.416l-1.524.708c-.312-1.332-1.164-3.444-2.028-4.512l1.44-.612zm-9 1.26c.432.024.84.012 1.284 0 .96-.024 3.24-.288 4.128-.288 1.272 0 2.172.564 2.172 2.304 0 1.416-.18 3.36-.684 4.392-.396.84-1.068 1.104-1.968 1.104a6.863 6.863 0 01-1.44-.168l-.264-1.584c.468.132 1.152.252 1.464.252.408 0 .72-.12.9-.516.336-.672.492-2.136.492-3.312 0-.96-.408-1.104-1.164-1.104-.708 0-2.784.264-3.444.348-.348.048-.972.132-1.332.192l-.144-1.62zm8.784-2.916c.3.432.72 1.2.948 1.644l-.96.408c-.252-.492-.624-1.2-.948-1.668l.96-.384zm1.416-.552c.312.456.756 1.224.972 1.644l-.96.408c-.24-.504-.636-1.2-.96-1.656l.948-.396zm4.068 3.612h6.228v1.296h-6.228V32.22zm-2.232 2.16h10.752v1.356H37.624V34.38zm2.904 1.08h1.56c-.228 2.232-.804 3.816-3.972 4.656-.144-.384-.516-.984-.84-1.284 2.748-.612 3.072-1.728 3.252-3.372zm3.096-.228h1.452v2.928c0 .384.072.444.492.444h1.2c.396 0 .468-.204.516-1.464.288.228.912.456 1.284.552-.144 1.752-.528 2.208-1.668 2.208h-1.536c-1.404 0-1.74-.42-1.74-1.716v-2.952zm-1.428-6.408h1.536v2.172h-1.536v-2.172zm-4.356 1.152h10.308v2.856H46.6v-1.5h-7.296v1.5H37.84v-2.856zm16.464 2.94h1.524v5.496c0 .816-.204 1.212-.804 1.428-.588.216-1.452.24-2.604.24-.084-.42-.36-1.068-.588-1.464.852.036 1.836.036 2.112.036.264 0 .36-.072.36-.276v-5.46zM50.2 29.652h8.388v1.416H50.2v-1.416zm7.848 0h.384l.348-.096 1.128.84c-1.08 1.32-2.664 2.844-4.14 3.768a6.615 6.615 0 00-.984-1.02c1.248-.792 2.664-2.232 3.264-3.144v-.348zm7.404-.168a19.144 19.144 0 00-.156 1.608c-.06 1.296-.144 3.972-.144 5.46 0 1.212.72 1.608 1.656 1.608 1.98 0 3.228-1.14 4.104-2.448l1.092 1.332c-.78 1.152-2.484 2.748-5.22 2.748-1.968 0-3.228-.864-3.228-2.916 0-1.608.108-4.752.108-5.784 0-.576-.048-1.152-.144-1.62l1.932.012zm13.224-.06c-.084.336-.192.876-.252 1.14-.168.816-.468 2.28-.792 3.504-.432 1.68-1.236 4.128-1.896 5.556l-1.668-.564c.708-1.212 1.62-3.72 2.076-5.4.3-1.128.576-2.448.66-3.156.06-.444.072-.936.036-1.224l1.836.144zm-3.06 1.8c1.464 0 3.156-.228 4.716-.6v1.5c-1.488.348-3.372.552-4.728.552-.588 0-1.032-.024-1.452-.048l-.048-1.5c.624.072 1.02.096 1.512.096zm3.768 1.836c.672-.072 1.536-.12 2.316-.12.684 0 1.404.036 2.1.108l-.024 1.44c-.612-.072-1.344-.156-2.064-.156-.828 0-1.572.036-2.328.132V33.06zm.648 3.012c-.084.348-.156.732-.156.996 0 .528.348.924 1.644.924.804 0 1.632-.084 2.484-.24l-.06 1.524c-.672.096-1.476.168-2.436.168-2.028 0-3.108-.684-3.108-1.896 0-.564.108-1.14.204-1.608l1.428.132zm11.532-2.28l1.296.408c-.792 1.428-2.112 2.7-3.432 3.492-.192-.276-.648-.828-.936-1.08 1.248-.624 2.436-1.656 3.072-2.82zm.156-5.028l1.248.648c-.636.756-1.368 1.56-1.944 2.088l-.984-.564c.564-.576 1.284-1.488 1.68-2.172zm2.244.888l1.284.708c-1.284 1.356-2.976 2.892-4.32 3.864l-.948-.624c1.332-1.02 2.988-2.652 3.984-3.948zM88.9 31.008l.864-.936c.876.552 2.004 1.368 2.52 1.992l-.912 1.032c-.492-.612-1.572-1.5-2.472-2.088zm4.932 1.332l1.116-.6c.708.78 1.512 1.872 1.836 2.628l-1.212.684c-.288-.732-1.032-1.884-1.74-2.712zm-5.172.852c1.74-.012 4.44-.048 6.972-.096l-.048 1.152a974.01 974.01 0 01-6.816.216l-.108-1.272zm2.496 2.58c.972 1.62 3 2.712 5.628 3.12-.3.3-.672.852-.852 1.224-2.76-.552-4.74-1.872-5.94-3.972l1.164-.372zm.3-.72h3.228v1.08h-4.188l.96-1.08zm2.76 0h.276l.228-.048.9.396c-1.068 2.7-3.528 4.08-6.444 4.74-.12-.36-.432-.924-.684-1.212 2.64-.456 4.932-1.68 5.724-3.672v-.204zm-6.348-3.66l1.272.468c-.78 1.464-2.028 3-3.204 3.972-.132-.312-.516-1.032-.756-1.344 1.02-.744 2.064-1.908 2.688-3.096zm-.216-2.58l1.272.504c-.744 1.044-1.872 2.208-2.88 2.952-.18-.288-.528-.792-.756-1.056.864-.6 1.872-1.608 2.364-2.4zm-.768 5.172l1.224-1.224.12.06v7.284h-1.344v-6.12zm15.48-3.372c1.476.204 3.876.144 5.16-.012v1.548c-1.464.144-3.648.144-5.148 0l-.012-1.536zm.96 5.124c-.096.408-.144.696-.144 1.008 0 .54.468.864 1.692.864 1.068 0 1.956-.096 3-.324l.036 1.62c-.78.156-1.752.24-3.108.24-2.064 0-3.06-.744-3.06-1.968 0-.48.072-.948.216-1.56l1.368.12zm-2.808-5.928c-.084.252-.24.864-.288 1.08-.168.792-.588 3.192-.588 4.392 0 .24.012.54.048.78.18-.408.372-.816.552-1.224l.744.588c-.348 1.008-.744 2.304-.864 2.94-.036.18-.072.444-.072.564.012.132.012.336.024.504l-1.38.084c-.24-.816-.468-2.28-.468-3.912 0-1.812.36-3.828.492-4.764.048-.324.108-.78.12-1.164l1.68.132zm12.852.624a7.406 7.406 0 00-.252-.9l1.704-.276c.024.228.072.636.12.924.12.792 1.308 6.864 1.56 8.088.084.348.192.78.3 1.176l-1.728.3c-.06-.444-.084-.852-.168-1.212-.18-1.08-1.344-7.128-1.536-8.1zm-3.276 1.536a18.28 18.28 0 001.116-.096c1.02-.12 5.22-.768 6.3-.984.372-.06.828-.168 1.116-.252l.3 1.584c-.264.012-.756.084-1.116.132-1.272.204-5.4.864-6.3 1.02-.372.072-.684.144-1.092.252l-.324-1.656zm.012 3.516c.312-.012.864-.072 1.236-.132 1.284-.18 5.664-.888 7.044-1.152.468-.084.912-.192 1.236-.276l.312 1.584c-.324.024-.816.108-1.26.18-1.524.228-5.844.936-7.032 1.164-.516.096-.936.168-1.2.24l-.336-1.608zM125.8 31.38c.036.288.12.6.192.912.408 1.44 1.536 5.568 1.836 6.564.06.216.228.744.312.984l-1.62.408a8.685 8.685 0 00-.216-1.056c-.3-1.044-1.392-5.328-1.776-6.576a4.52 4.52 0 00-.348-.852l1.62-.384zm5.76 1.86c-.516 1.044-1.716 2.856-2.556 3.744l-1.332-.66c.624-.552 1.452-1.56 1.776-2.148-.624.108-5.508 1.128-6.492 1.344l-.372-1.428c.372-.036.708-.072 1.104-.144.648-.096 5.448-1.008 6.3-1.2.204-.048.444-.12.6-.192l.972.684zm4.332-3.36c.828.564 2.388 1.812 3.096 2.544l-1.224 1.248c-.624-.672-2.136-1.98-3.012-2.58l1.14-1.212zm-1.512 7.992c1.884-.264 3.432-.876 4.596-1.56 2.052-1.224 3.612-3.048 4.38-4.668l.924 1.68c-.9 1.632-2.496 3.288-4.428 4.452-1.224.732-2.772 1.392-4.452 1.68l-1.02-1.584zm14.004-.468v-6.492c0-.408-.036-1.02-.096-1.38h1.788c-.06.36-.108.972-.108 1.38v6.072c0 .756.216 1.008 1.524 1.008 1.26 0 2.604-.156 3.792-.396l-.06 1.632c-.984.144-2.424.252-3.72.252-2.724 0-3.12-.648-3.12-2.076zm7.548-5.268c-.108.168-.276.444-.384.648-.528 1.008-1.62 2.652-2.484 3.504l-1.32-.78c.792-.708 1.572-1.812 1.908-2.436-.732.144-6.276 1.248-7.8 1.584l-.288-1.572c1.632-.192 7.272-1.296 8.364-1.56.336-.084.636-.168.852-.288l1.152.9zm7.092 6.6c.06-.228.096-.552.096-.876v-6.996c0-.54-.084-1.008-.084-1.032h1.776c0 .024-.084.504-.084 1.044v6.264c.984-.42 2.16-1.368 2.976-2.532l.912 1.332c-.996 1.296-2.712 2.592-4.068 3.276-.252.132-.396.264-.516.348l-1.008-.828zm-5.556-.168c1.068-.744 1.716-1.848 2.04-2.88.348-1.02.36-3.3.36-4.74 0-.492-.048-.804-.12-1.104h1.764c0 .048-.084.588-.084 1.08 0 1.428-.036 3.96-.348 5.172a7.111 7.111 0 01-2.148 3.444l-1.464-.972zm12.36-7.788a18.65 18.65 0 001.176-.06c.996-.096 2.976-.264 5.172-.456 1.248-.096 2.556-.18 3.408-.216l.012 1.548c-.648 0-1.68.012-2.328.156-1.44.384-2.532 1.944-2.532 3.372 0 1.968 1.848 2.688 3.876 2.784l-.564 1.644c-2.508-.156-4.884-1.512-4.884-4.116 0-1.716.972-3.084 1.776-3.696-1.116.12-3.576.384-4.956.684l-.156-1.644zm8.052 1.992c.288.42.72 1.152.948 1.632l-.9.396c-.312-.648-.564-1.128-.936-1.656l.888-.372zm1.332-.552c.312.42.768 1.128 1.02 1.596l-.9.432c-.324-.648-.6-1.104-.984-1.632l.864-.396zm3.756-1.824c1.752.204 3.216.228 4.488.132a12.887 12.887 0 003.072-.576l.192 1.368c-.864.24-1.908.444-2.952.516a27.578 27.578 0 01-4.716-.072l-.084-1.368zm-.216 2.508c2.16.216 4.104.18 5.544.036a13.717 13.717 0 002.892-.552l.24 1.416c-.72.18-1.608.348-2.58.456-1.512.168-3.852.204-6.012.06l-.084-1.416zm4.008-2.172c-.12-.444-.264-.888-.432-1.356l1.608-.18c.144 1.152.444 2.208.756 3.132.288.84.876 2.076 1.428 2.916.168.24.324.42.54.624l-.72 1.104c-.672-.144-1.98-.288-2.856-.384l.12-1.152c.504.048 1.164.108 1.512.144a16.041 16.041 0 01-1.38-2.988 22.3 22.3 0 01-.576-1.86zm-1.704 4.968c-.288.396-.54.804-.54 1.32 0 .888.84 1.248 2.436 1.248 1.128 0 2.148-.084 3.012-.252l-.084 1.524c-.84.132-1.944.216-2.928.216-2.388 0-3.876-.708-3.912-2.412-.012-.78.24-1.368.528-1.932l1.488.288zm15.108-6.396c-.036.24-.072.54-.084.852-.024.612-.036 2.316-.036 3.324 0 1.32.192 3.492.192 4.44 0 1.032-.78 1.824-2.352 1.824-1.92 0-2.928-.732-2.928-2.004 0-1.212 1.116-2.064 2.952-2.064 2.64 0 4.608 1.296 5.604 2.136l-.864 1.344c-1.14-1.08-2.88-2.244-4.932-2.244-.84 0-1.308.324-1.308.744 0 .456.42.732 1.248.732.636 0 1.068-.18 1.068-.876 0-.72-.132-2.868-.132-4.032 0-1.152.012-2.676.012-3.36 0-.216-.024-.588-.072-.816h1.632zm-4.98 1.116c.852.144 2.232.264 2.964.264 1.632 0 3.204-.084 4.956-.36l-.012 1.368c-1.224.168-3.132.312-4.932.312-.768 0-2.16-.108-2.952-.204l-.024-1.38zm-.072 2.592c.792.144 2.256.228 2.892.228 2.22 0 3.768-.144 5.244-.336l-.012 1.416c-1.656.192-2.964.264-5.244.264-.708 0-2.064-.06-2.856-.156l-.024-1.416zm17.724-3.684c-.036.204-.072.84-.084 1.032-.036.792-.012 3.24 0 4.2l-1.5-.504c0-.744 0-3.048-.048-3.684-.036-.48-.084-.888-.108-1.044h1.74zm-6.792 1.5c1.788 0 4.956-.096 6.456-.096 1.224 0 3.048-.012 3.72 0l-.024 1.416a79.942 79.942 0 00-3.732-.072c-2.184 0-4.572.096-6.384.192l-.036-1.44zm6.504 3.552c0 1.956-.72 2.928-2.1 2.928-.924 0-2.076-.732-2.076-2.196 0-1.356 1.104-2.244 2.4-2.244 1.584 0 2.412 1.164 2.412 2.652 0 1.572-.924 3.552-3.852 4.38l-1.272-1.272c2.04-.444 3.636-1.248 3.636-3.348 0-.78-.42-1.152-.948-1.152-.468 0-.936.324-.936.96 0 .54.444.888.936.888.564 0 1.056-.48.672-1.908l1.128.312zm9.984-4.848c-.072.312-.144.696-.216.996-.108.54-.264 1.284-.384 1.896-.396 1.692-1.368 5.112-2.616 7.14l-1.572-.624c1.428-1.92 2.328-5.088 2.664-6.6.228-1.08.36-2.1.348-3l1.776.192zm4.14 1.116c.732 1.044 1.74 3.324 2.112 4.476l-1.524.708c-.312-1.344-1.164-3.504-2.028-4.572l1.44-.612zm-9 1.344c.432.024.84.012 1.284 0 .96-.024 3.228-.288 4.128-.288 1.26 0 2.16.564 2.16 2.304 0 1.416-.168 3.36-.672 4.392-.408.84-1.068 1.104-1.968 1.104a7.076 7.076 0 01-1.452-.168l-.252-1.584c.468.132 1.152.252 1.464.252.408 0 .708-.12.9-.516.336-.672.492-2.136.492-3.312 0-.96-.42-1.104-1.164-1.104-.72 0-2.784.264-3.444.348-.348.048-.972.132-1.332.192l-.144-1.62zm16.404 3.924c-.252-1.884 2.304-2.304 2.304-3.468 0-.732-.576-1.14-1.524-1.14-.732 0-1.332.336-1.92.948l-.984-.9c.768-.888 1.824-1.476 3.108-1.476 1.74 0 3.012.816 3.012 2.412 0 1.752-2.628 1.968-2.436 3.624h-1.56zm.792 3.204c-.624 0-1.068-.444-1.068-1.068 0-.624.456-1.056 1.068-1.056.6 0 1.056.432 1.056 1.056 0 .624-.456 1.068-1.056 1.068zm103.948-3.08h-4.656v4.944h-2.412V36.04h-4.632v-2.196h4.632v-4.92h2.412v4.92h4.656v2.196z" fill="#000"/><path stroke="#000" stroke-opacity=".3" stroke-dasharray="4 4" d="M0 132.5h340"/><path d="M4.948 100.524c1.236 2.364 3.852 3.744 7.716 4.176-.324.336-.72.996-.924 1.404-4.044-.576-6.588-2.184-8.148-5.112l1.356-.468zm-2.532-1.308h7.692v1.404H2.416v-1.404zm-.588-2.82h10.284v1.428H1.828v-1.428zm4.38-1.584h1.5v5.04h-1.5v-5.04zm3.432 4.404h.312l.252-.048 1.008.576c-1.44 3.888-4.932 5.64-9.096 6.336-.132-.384-.504-1.068-.78-1.392 4.032-.528 7.212-1.944 8.304-5.208v-.264zm10.284-4.092l1.584.252c-.492 3.252-1.344 7.044-2.1 9.516l-1.368-.288c.744-2.496 1.548-6.408 1.884-9.48zm-3.036 9.192c1.596-.132 4.152-.42 6.528-.708l.048 1.344c-2.196.336-4.56.648-6.252.876l-.324-1.512zm4.392-3.648l1.284-.444c.9 1.68 1.86 3.876 2.208 5.304l-1.428.54c-.276-1.404-1.176-3.66-2.064-5.4zm-7.812-3.564h4.656v1.344h-4.656v-1.344zm1.704-2.304h1.416v9.696c0 .732-.144 1.104-.564 1.32-.444.228-1.068.264-1.98.264a5.79 5.79 0 00-.42-1.344c.54.024 1.128.012 1.308.012.18-.012.24-.072.24-.252V94.8zm-1.884 6.06c1.224-.192 3.108-.552 4.872-.9l.108 1.272c-1.62.372-3.36.756-4.68 1.044l-.3-1.416zm14.82-4.428a9.563 9.563 0 00-.144 1.464c0 .78 0 1.668.072 2.544.168 1.728.528 2.916 1.284 2.916.576 0 1.044-1.416 1.272-2.364l1.212 1.452c-.804 2.1-1.548 2.82-2.508 2.82-1.332 0-2.472-1.176-2.808-4.392-.12-1.104-.132-2.52-.132-3.252 0-.324-.012-.84-.096-1.212l1.848.024zm6 .264c1.14 1.38 2.064 4.38 2.196 6.216l-1.584.624c-.18-1.944-.828-4.848-2.136-6.336l1.524-.504zm3.444.036h10.884v1.38H37.552v-1.38zm4.008 2.94h4.596v1.368H41.56v-1.368zm4.068 0h1.488s-.012.432-.048.624c-.216 3.288-.468 4.644-.948 5.172-.36.384-.744.504-1.296.564-.456.036-1.26.024-2.064 0-.024-.42-.24-1.02-.516-1.416.828.072 1.68.072 2.028.072.264 0 .432-.012.588-.144.36-.312.588-1.68.756-4.644l.012-.228zm-4.608-2.124h1.62c-.18 3.216-.504 6.72-4.272 8.616-.216-.384-.648-.912-1.032-1.212 3.492-1.62 3.564-4.668 3.684-7.404zm1.164-2.796h1.488v2.52h-1.488v-2.52zm10.524 4.872h7.788v1.368h-7.788v-1.368zm.6-3.084h6.612v1.368h-6.612V96.54zm2.496-1.728h1.5v5.808h-1.5v-5.808zm-3.096 9.336c1.608-.06 4.14-.204 6.504-.336v1.296c-2.244.192-4.62.372-6.312.492l-.192-1.452zm4.596-1.656l1.248-.66c.888 1.068 1.86 2.484 2.232 3.504l-1.368.756c-.324-.984-1.236-2.496-2.112-3.6zm-2.424-1.908l1.596.42c-.528 1.392-1.212 2.928-1.764 3.924l-1.284-.408c.54-1.056 1.14-2.7 1.452-3.936zm-4.86-4.668l.792-1.056c.78.288 1.8.804 2.304 1.224l-.84 1.176c-.468-.432-1.464-1.008-2.256-1.344zm-.684 3.276l.744-1.092c.78.264 1.812.732 2.34 1.128l-.804 1.2c-.48-.396-1.488-.936-2.28-1.236zm.336 5.796c.6-.9 1.464-2.4 2.124-3.78l1.092.912a49.236 49.236 0 01-1.968 3.804l-1.248-.936zm16.008-7.356c.696.072 1.38.108 2.112.108 1.464 0 2.964-.12 4.212-.384v1.488c-1.26.192-2.772.288-4.212.3-.708 0-1.392-.024-2.1-.072l-.012-1.44zm4.572-2.016a7.59 7.59 0 00-.072.768 40.671 40.671 0 00-.048 2.088c0 2.208.192 3.768.192 4.908 0 1.26-.624 2.172-2.352 2.172-1.668 0-2.7-.684-2.7-1.944 0-1.224 1.032-2.064 2.676-2.064 2.256 0 3.708 1.128 4.644 1.992l-.816 1.26c-1.38-1.284-2.592-2.088-3.948-2.088-.684 0-1.152.276-1.152.732 0 .492.48.708 1.128.708.732 0 .984-.384.984-1.092 0-.828-.156-2.844-.156-4.572 0-.912-.012-1.716-.024-2.076 0-.192-.036-.564-.072-.792h1.716zm-5.856.12c-.096.24-.24.864-.288 1.08-.18.804-.576 3.444-.576 4.644 0 .228.012.54.048.78.168-.42.372-.828.54-1.236l.744.588c-.336.996-.732 2.208-.864 2.868-.036.168-.072.432-.06.552 0 .132 0 .336.012.504l-1.356.096c-.24-.828-.48-2.208-.48-3.828 0-1.812.36-4.08.504-5.004.048-.336.096-.804.108-1.176l1.668.132zm12.816.108h7.428v1.38h-7.428v-1.38zm5.256.504h1.452v8.04c0 .828-.18 1.212-.696 1.452-.516.216-1.332.264-2.448.252-.06-.408-.288-1.056-.492-1.464.792.036 1.62.036 1.872.024.24 0 .312-.06.312-.288v-8.016zm-5.112 2.172H78.7v5.16h-1.344v-5.16zm.588 0h3.42v4.368h-3.42v-1.236h2.088v-1.884h-2.088V98.52zm-1.968-3.732l1.344.432c-.744 2.028-1.98 4.176-3.276 5.52-.12-.336-.516-1.14-.756-1.488 1.068-1.068 2.088-2.772 2.688-4.464zm-1.08 3.372l1.428-1.428v9.324h-1.428V98.16zm15.552-2.544c-.072.312-.144.696-.204.996-.12.54-.264 1.284-.396 1.896-.396 1.692-1.356 5.112-2.616 7.14l-1.572-.624c1.428-1.92 2.328-5.088 2.664-6.6.228-1.08.36-2.1.348-3l1.776.192zm4.14 1.2c.732 1.044 1.74 3.276 2.112 4.416l-1.524.708c-.312-1.332-1.164-3.444-2.028-4.512l1.44-.612zm-9 1.26c.432.024.84.012 1.284 0 .96-.024 3.24-.288 4.128-.288 1.272 0 2.172.564 2.172 2.304 0 1.416-.18 3.36-.684 4.392-.396.84-1.068 1.104-1.968 1.104a6.863 6.863 0 01-1.44-.168l-.264-1.584c.468.132 1.152.252 1.464.252.408 0 .72-.12.9-.516.336-.672.492-2.136.492-3.312 0-.96-.408-1.104-1.164-1.104-.708 0-2.784.264-3.444.348-.348.048-.972.132-1.332.192l-.144-1.62zm8.784-2.916c.3.432.72 1.2.948 1.644l-.96.408c-.252-.492-.624-1.2-.948-1.668l.96-.384zm1.416-.552c.312.456.756 1.224.972 1.644l-.96.408c-.24-.504-.636-1.2-.96-1.656l.948-.396zm7.164.744c-.072.228-.12.444-.168.636a23.914 23.914 0 00-.432 4.332c0 1.896.348 3.24.744 4.452l-1.38.408c-.36-1.08-.708-2.856-.708-4.62 0-1.572.216-3.336.348-4.524.024-.24.048-.516.036-.732l1.56.048zm-2.148 1.32c2.28 0 4.092-.108 5.928-.552l.012 1.38c-1.644.3-4.164.48-5.976.48-.636 0-1.572-.06-2.136-.084l-.036-1.38c.432.06 1.476.156 2.208.156zm5.184 1.764c-.096.216-.276.768-.36 1.02-.684 2.16-1.92 3.78-3.06 4.62-.78.576-1.824 1.104-2.868 1.104-.876 0-1.608-.528-1.608-1.752 0-1.692 1.512-3.456 3.42-4.152a8.192 8.192 0 012.676-.468c2.244 0 3.9 1.296 3.9 3.168 0 1.704-1.008 3.348-3.948 3.804l-.804-1.272c2.316-.252 3.264-1.416 3.264-2.604 0-1.02-.876-1.884-2.496-1.884-1.092 0-1.956.312-2.544.576-1.2.564-2.052 1.716-2.052 2.52 0 .396.156.6.552.6.564 0 1.368-.396 2.1-1.08.876-.804 1.692-1.872 2.172-3.528.084-.252.168-.768.18-1.032l1.476.36zm7.344-3.072a19.55 19.55 0 00-.492 2.496c.576-.924 1.632-1.944 2.976-1.944 1.668 0 2.964 1.644 2.964 4.284 0 3.396-2.076 5.004-5.256 5.592l-.912-1.392c2.676-.408 4.548-1.296 4.548-4.2 0-1.848-.624-2.88-1.62-2.88-1.416 0-2.664 2.136-2.712 3.708-.024.336-.012.72.048 1.272l-1.476.108c-.072-.468-.144-1.2-.144-2.004 0-1.128.156-2.604.336-3.852.048-.444.084-.924.096-1.248l1.644.06zm14.832-.06c-.036.24-.072.54-.084.852-.024.612-.036 2.316-.036 3.324 0 1.32.192 3.492.192 4.44 0 1.032-.78 1.824-2.352 1.824-1.92 0-2.928-.732-2.928-2.004 0-1.212 1.116-2.064 2.952-2.064 2.64 0 4.608 1.296 5.604 2.136l-.864 1.344c-1.14-1.08-2.88-2.244-4.932-2.244-.84 0-1.308.324-1.308.744 0 .456.42.732 1.248.732.636 0 1.068-.18 1.068-.876 0-.72-.132-2.868-.132-4.032 0-1.152.012-2.676.012-3.36 0-.216-.024-.588-.072-.816h1.632zm-4.98 1.116c.852.144 2.232.264 2.964.264 1.632 0 3.204-.084 4.956-.36l-.012 1.368c-1.224.168-3.132.312-4.932.312-.768 0-2.16-.108-2.952-.204l-.024-1.38zm-.072 2.592c.792.144 2.256.228 2.892.228 2.22 0 3.768-.144 5.244-.336l-.012 1.416c-1.656.192-2.964.264-5.244.264-.708 0-2.064-.06-2.856-.156l-.024-1.416zm17.724-3.684c-.036.204-.072.84-.084 1.032-.036.792-.012 3.24 0 4.2l-1.5-.504c0-.744 0-3.048-.048-3.684-.036-.48-.084-.888-.108-1.044h1.74zm-6.792 1.5c1.788 0 4.956-.096 6.456-.096 1.224 0 3.048-.012 3.72 0l-.024 1.416a79.942 79.942 0 00-3.732-.072c-2.184 0-4.572.096-6.384.192l-.036-1.44zm6.504 3.552c0 1.956-.72 2.928-2.1 2.928-.924 0-2.076-.732-2.076-2.196 0-1.356 1.104-2.244 2.4-2.244 1.584 0 2.412 1.164 2.412 2.652 0 1.572-.924 3.552-3.852 4.38l-1.272-1.272c2.04-.444 3.636-1.248 3.636-3.348 0-.78-.42-1.152-.948-1.152-.468 0-.936.324-.936.96 0 .54.444.888.936.888.564 0 1.056-.48.672-1.908l1.128.312zm9.984-4.848c-.072.312-.144.696-.216.996-.108.54-.264 1.284-.384 1.896-.396 1.692-1.368 5.112-2.616 7.14l-1.572-.624c1.428-1.92 2.328-5.088 2.664-6.6.228-1.08.36-2.1.348-3l1.776.192zm4.14 1.116c.732 1.044 1.74 3.324 2.112 4.476l-1.524.708c-.312-1.344-1.164-3.504-2.028-4.572l1.44-.612zm-9 1.344c.432.024.84.012 1.284 0 .96-.024 3.228-.288 4.128-.288 1.26 0 2.16.564 2.16 2.304 0 1.416-.168 3.36-.672 4.392-.408.84-1.068 1.104-1.968 1.104a7.076 7.076 0 01-1.452-.168l-.252-1.584c.468.132 1.152.252 1.464.252.408 0 .708-.12.9-.516.336-.672.492-2.136.492-3.312 0-.96-.42-1.104-1.164-1.104-.72 0-2.784.264-3.444.348-.348.048-.972.132-1.332.192l-.144-1.62zm16.404 3.924c-.252-1.884 2.304-2.304 2.304-3.468 0-.732-.576-1.14-1.524-1.14-.732 0-1.332.336-1.92.948l-.984-.9c.768-.888 1.824-1.476 3.108-1.476 1.74 0 3.012.816 3.012 2.412 0 1.752-2.628 1.968-2.436 3.624h-1.56zm.792 3.204c-.624 0-1.068-.444-1.068-1.068 0-.624.456-1.056 1.068-1.056.6 0 1.056.432 1.056 1.056 0 .624-.456 1.068-1.056 1.068zm175.948-3.08h-4.656v4.944h-2.412v-4.944h-4.632v-2.196h4.632v-4.92h2.412v4.92h4.656v2.196z" fill="#000"/><path stroke="#000" stroke-opacity=".3" stroke-dasharray="4 4" d="M0 198.5h340"/><path d="M6.52 161.22h4.968v4.752H6.424v-1.212h3.66v-2.328H6.52v-1.212zm-.852 0H7.06v7.764H5.668v-7.764zm.804 1.836h4.056v1.044H6.472v-1.044zm-1.56 5.616c1.02-.168 2.556-.48 4.032-.792l.108 1.236c-1.356.336-2.784.66-3.912.924l-.228-1.368zm4.248-3.192c.504 1.656 1.584 2.892 3.384 3.396-.312.288-.72.852-.912 1.236-1.992-.72-3.072-2.244-3.684-4.404l1.212-.228zm2.148.252l1.104.888c-.756.492-1.584 1.008-2.22 1.32l-.84-.744c.624-.36 1.464-.996 1.956-1.464zm-6.984-.24v4.416H2.92v-3.084H1.516v-1.332h2.808zm0 3.792c.48.792 1.392 1.14 2.64 1.188 1.404.06 4.128.024 5.748-.108-.156.336-.396 1.032-.456 1.464-1.452.072-3.876.096-5.316.036-1.476-.06-2.472-.408-3.252-1.344-.528.468-1.068.924-1.716 1.452l-.708-1.5c.54-.336 1.188-.756 1.74-1.188h1.32zm-2.748-7.308l1.068-.864c.72.504 1.608 1.26 2.016 1.824l-1.14.948c-.36-.564-1.224-1.368-1.944-1.908zm12.528 8.34c2.148-.06 5.484-.18 8.508-.312l-.048 1.32c-2.94.168-6.108.312-8.268.396l-.192-1.404zm-.06-3.576h9.984v1.344h-9.984v-1.344zm2.136-2.304h5.628v1.32H16.18v-1.32zm.804 3.18l1.644.456c-.564 1.128-1.212 2.376-1.752 3.18l-1.26-.42c.492-.876 1.068-2.208 1.368-3.216zm2.976 1.236l1.272-.66c1.08.924 2.196 2.184 2.748 3.096l-1.332.804c-.504-.912-1.656-2.28-2.688-3.24zm-.972-6.636c-.972 1.368-2.844 2.904-4.836 3.852-.168-.348-.552-.888-.852-1.2 2.052-.9 3.972-2.616 4.86-4.032h1.524c1.272 1.764 3.18 3.132 5.088 3.816-.348.36-.672.876-.936 1.308-1.8-.84-3.828-2.352-4.848-3.744zm10.464-.732a19.144 19.144 0 00-.156 1.608c-.06 1.296-.144 3.972-.144 5.46 0 1.212.72 1.608 1.656 1.608 1.98 0 3.228-1.14 4.104-2.448l1.092 1.332c-.78 1.152-2.484 2.748-5.22 2.748-1.968 0-3.228-.864-3.228-2.916 0-1.608.108-4.752.108-5.784 0-.576-.048-1.152-.144-1.62l1.932.012zm13.224-.06c-.084.336-.192.876-.252 1.14-.168.816-.468 2.28-.792 3.504-.432 1.68-1.236 4.128-1.896 5.556l-1.668-.564c.708-1.212 1.62-3.72 2.076-5.4.3-1.128.576-2.448.66-3.156.06-.444.072-.936.036-1.224l1.836.144zm-3.06 1.8c1.464 0 3.156-.228 4.716-.6v1.5c-1.488.348-3.372.552-4.728.552-.588 0-1.032-.024-1.452-.048l-.048-1.5c.624.072 1.02.096 1.512.096zm3.768 1.836c.672-.072 1.536-.12 2.316-.12.684 0 1.404.036 2.1.108l-.024 1.44c-.612-.072-1.344-.156-2.064-.156-.828 0-1.572.036-2.328.132v-1.404zm.648 3.012c-.084.348-.156.732-.156.996 0 .528.348.924 1.644.924.804 0 1.632-.084 2.484-.24l-.06 1.524c-.672.096-1.476.168-2.436.168-2.028 0-3.108-.684-3.108-1.896 0-.564.108-1.14.204-1.608l1.428.132zm8.076-5.64a9.563 9.563 0 00-.144 1.464c0 .78 0 1.668.072 2.544.168 1.728.528 2.916 1.284 2.916.576 0 1.044-1.416 1.272-2.364l1.212 1.452c-.804 2.1-1.548 2.82-2.508 2.82-1.332 0-2.472-1.176-2.808-4.392-.12-1.104-.132-2.52-.132-3.252 0-.324-.012-.84-.096-1.212l1.848.024zm6 .264c1.14 1.38 2.064 4.38 2.196 6.216l-1.584.624c-.18-1.944-.828-4.848-2.136-6.336l1.524-.504zm3.357.084a18.65 18.65 0 001.176-.06c.996-.096 2.976-.264 5.172-.456 1.248-.096 2.556-.18 3.408-.216l.012 1.548c-.648 0-1.68.012-2.328.156-1.44.384-2.532 1.944-2.532 3.372 0 1.968 1.848 2.688 3.876 2.784l-.564 1.644c-2.508-.156-4.884-1.512-4.884-4.116 0-1.716.972-3.084 1.776-3.696-1.116.12-3.576.384-4.956.684l-.156-1.644zm8.052 1.992c.288.42.72 1.152.948 1.632l-.9.396c-.312-.648-.564-1.128-.936-1.656l.888-.372zm1.332-.552c.312.42.768 1.128 1.02 1.596l-.9.432c-.324-.648-.6-1.104-.984-1.632l.864-.396zm9.624-2.892c-.036.204-.072.84-.084 1.032-.036.792-.012 3.24 0 4.2l-1.5-.504c0-.744 0-3.048-.048-3.684-.036-.48-.084-.888-.108-1.044h1.74zm-6.792 1.5c1.788 0 4.956-.096 6.456-.096 1.224 0 3.048-.012 3.72 0l-.024 1.416a79.942 79.942 0 00-3.732-.072c-2.184 0-4.572.096-6.384.192l-.036-1.44zm6.504 3.552c0 1.956-.72 2.928-2.1 2.928-.924 0-2.076-.732-2.076-2.196 0-1.356 1.104-2.244 2.4-2.244 1.584 0 2.412 1.164 2.412 2.652 0 1.572-.924 3.552-3.852 4.38l-1.272-1.272c2.04-.444 3.636-1.248 3.636-3.348 0-.78-.42-1.152-.948-1.152-.468 0-.936.324-.936.96 0 .54.444.888.936.888.564 0 1.056-.48.672-1.908l1.128.312zm258.631 1.66h-4.656v4.944h-2.412v-4.944h-4.632v-2.196h4.632v-4.92h2.412v4.92h4.656v2.196z" fill="#000"/><path stroke="#000" stroke-opacity=".3" stroke-dasharray="4 4" d="M0 264.5h340"/><path d="M1.696 229.14h10.62v1.464H1.696v-1.464zm2.472 5.448h5.568v1.464H4.168v-1.464zm2.052-7.776h1.536v11.268H6.22v-11.268zm-.432 2.856l1.32.42c-1.032 2.616-2.736 4.908-4.836 6.228-.24-.36-.72-.912-1.044-1.2 1.968-1.08 3.708-3.24 4.56-5.448zm2.4.036c.876 2.136 2.628 4.224 4.644 5.268-.36.3-.876.9-1.116 1.308-2.112-1.296-3.792-3.588-4.836-6.144l1.308-.432zm9.804-2.604h1.644c-.108 2.016-.264 7.872-5.172 10.884-.252-.372-.72-.816-1.212-1.152 4.824-2.676 4.656-8.16 4.74-9.732zm1.596.312c.036 1.044.288 7.032 5.208 9.336-.456.348-.888.828-1.104 1.224-5.172-2.568-5.4-9.18-5.496-10.416l1.392-.144zm11.988 5.232h4.5v1.044h-4.5v-1.044zm0 1.896h4.5v1.056h-4.5v-1.056zm-.024 1.896h5.076v1.188h-5.076v-1.188zm-1.764-8.508h6.78v2.196h-1.272v-.984h-4.284v.984h-1.224v-2.196zm3.42 3.708h1.32V237h-1.32v-5.364zm-1.188-.996h4.32v1.2h-4.32v6.252h-1.344v-6.204l1.212-1.248h.132zm.636-3.84l1.368.252c-.648 2.604-1.848 4.68-3.612 5.976-.192-.276-.684-.84-.972-1.08 1.644-1.08 2.712-2.904 3.216-5.148zm1.284 2.628l1.332.276c-.312.66-.636 1.308-.9 1.752l-1.08-.276c.24-.492.516-1.224.648-1.752zm-8.376-1.908h4.332v1.308h-4.332v-1.308zm1.356 3.528h2.784v5.592H26.92v-1.236h1.572v-3.108H26.92v-1.248zm-.12-2.832l1.356.216c-.36 2.592-1.008 5.136-2.232 6.768-.132-.336-.516-1.068-.768-1.392.936-1.32 1.404-3.396 1.644-5.592zm-.444 2.832h1.164v6.516h-1.164v-6.516zm17.82-3.276h1.296c-.228 1.956-.756 3.936-2.964 5.1a3.519 3.519 0 00-.816-1.02c1.944-.924 2.304-2.58 2.484-4.08zm-2.076 2.052l.672-.996c1.188.36 2.592 1.02 3.396 1.536l-.684 1.104c-.78-.564-2.208-1.272-3.384-1.644zm4.812-2.544h1.344s0 .36-.012.528c-.12 2.736-.24 3.864-.564 4.248-.228.3-.456.408-.804.456-.288.048-.78.048-1.308.036a3.202 3.202 0 00-.348-1.284c.408.036.768.036.948.036.156.012.264-.024.36-.144.192-.228.3-1.14.384-3.66v-.216zm-3.492 6.468h1.32v2.628c0 .336.024.372.252.372h.624c.228 0 .276-.144.312-1.26.252.216.816.42 1.176.516-.132 1.584-.48 1.992-1.344 1.992h-.996c-1.116 0-1.344-.396-1.344-1.596v-2.652zm-1.224.468l1.128.3c-.108 1.08-.336 2.22-.912 2.928l-1.056-.648c.492-.6.732-1.596.84-2.58zm1.488-1.296l.828-.828c.768.384 1.716 1.008 2.16 1.512l-.888.936c-.42-.492-1.332-1.176-2.1-1.62zm2.652 1.488l1.164-.468c.624.912 1.152 2.136 1.308 2.988l-1.26.516c-.132-.84-.624-2.112-1.212-3.036zm-4.08-7.128h5.268v1.2h-5.268v-1.2zm-4.356 3.216h3.516v1.08H37.9v-1.08zm.036-3.312h3.444v1.092h-3.444v-1.092zm-.036 4.944h3.516v1.092H37.9v-1.092zm-.552-3.324h4.392v1.14h-4.392v-1.14zm1.176 4.992h2.904v3.648h-2.904v-1.14h1.704v-1.368h-1.704v-1.14zm-.648 0h1.176v4.128h-1.176v-4.128zm15.804-4.164c.696.072 1.38.108 2.112.108 1.464 0 2.964-.12 4.212-.384v1.488c-1.26.192-2.772.288-4.212.3-.708 0-1.392-.024-2.1-.072l-.012-1.44zm4.572-2.016a7.59 7.59 0 00-.072.768 40.671 40.671 0 00-.048 2.088c0 2.208.192 3.768.192 4.908 0 1.26-.624 2.172-2.352 2.172-1.668 0-2.7-.684-2.7-1.944 0-1.224 1.032-2.064 2.676-2.064 2.256 0 3.708 1.128 4.644 1.992l-.816 1.26c-1.38-1.284-2.592-2.088-3.948-2.088-.684 0-1.152.276-1.152.732 0 .492.48.708 1.128.708.732 0 .984-.384.984-1.092 0-.828-.156-2.844-.156-4.572 0-.912-.012-1.716-.024-2.076 0-.192-.036-.564-.072-.792h1.716zm-5.856.12c-.096.24-.24.864-.288 1.08-.18.804-.576 3.444-.576 4.644 0 .228.012.54.048.78.168-.42.372-.828.54-1.236l.744.588c-.336.996-.732 2.208-.864 2.868-.036.168-.072.432-.06.552 0 .132 0 .336.012.504l-1.356.096c-.24-.828-.48-2.208-.48-3.828 0-1.812.36-4.08.504-5.004.048-.336.096-.804.108-1.176l1.668.132zm17.88 2.628c-.372.216-.756.42-1.188.636-.756.384-1.884.9-2.976 1.62-.996.648-1.668 1.344-1.668 2.172 0 .864.828 1.332 2.496 1.332 1.236 0 2.856-.192 3.924-.444l-.024 1.728c-1.02.18-2.292.3-3.852.3-2.4 0-4.2-.672-4.2-2.736 0-1.524 1.104-2.592 2.52-3.528 1.14-.744 2.364-1.344 3.108-1.764.444-.264.792-.468 1.104-.732l.756 1.416zm-5.664-2.748a27.517 27.517 0 001.896 4.032l-1.368.804c-.648-1.092-1.368-2.664-2.04-4.212l1.512-.624zm5.808-.18c.3.444.72 1.2.948 1.644l-.96.42c-.252-.492-.612-1.212-.948-1.668l.96-.396zm1.416-.54c.312.444.756 1.212.972 1.632l-.948.408c-.252-.492-.636-1.2-.972-1.656l.948-.384zm8.256 1.884c-.168 1.224-.408 2.628-.828 4.044-.72 2.424-1.752 3.912-3.06 3.912-1.344 0-2.448-1.476-2.448-3.504 0-2.76 2.412-5.136 5.52-5.136 2.964 0 4.848 2.064 4.848 4.692 0 2.52-1.548 4.308-4.572 4.776l-.912-1.416c.468-.06.804-.12 1.128-.192 1.524-.372 2.724-1.464 2.724-3.228 0-1.884-1.176-3.228-3.252-3.228-2.544 0-3.936 2.076-3.936 3.588 0 1.212.48 1.8.936 1.8.516 0 .972-.768 1.476-2.388.348-1.128.612-2.508.732-3.768l1.644.048zm11.736-1.392c-.048.348-.084.936-.108 1.404-.012.576 0 1.26 0 1.944 0 1.332.228 3.912.228 4.92 0 1.068-.552 2.076-2.556 2.076-1.728 0-3.132-.564-3.132-2.184 0-1.26 1.08-2.244 3.276-2.244 2.508 0 4.752 1.26 5.976 2.388l-.924 1.44c-1.188-1.2-3.096-2.496-5.268-2.496-.936 0-1.5.312-1.5.84 0 .576.6.804 1.44.804.768 0 1.056-.348 1.056-1.14 0-.84-.144-3.264-.144-4.404 0-.72-.012-1.428-.024-1.944-.012-.6-.048-1.116-.12-1.404h1.8zm-.912 2.292c.708 0 2.808-.048 4.152-.192l.06 1.428c-1.356.12-3.468.18-4.212.18v-1.416zm14.292 3.396c0-.792-.612-1.428-1.74-1.428-1.32 0-2.52.396-3.12.576-.348.108-.828.288-1.164.432l-.456-1.728c.408-.024.912-.12 1.308-.204.876-.192 2.22-.54 3.636-.54 1.896 0 3.228 1.08 3.228 2.952 0 2.58-2.388 4.164-5.724 4.632l-.852-1.5c2.976-.336 4.884-1.308 4.884-3.192zm-4.716-5.76c1.404.3 4.128.54 5.388.54l-.228 1.476c-1.404-.096-4.008-.336-5.388-.576l.228-1.44zm13.872 1.296c1.476.204 3.876.144 5.16-.012v1.548c-1.464.144-3.648.144-5.148 0l-.012-1.536zm.96 5.124c-.096.408-.144.696-.144 1.008 0 .54.468.864 1.692.864 1.068 0 1.956-.096 3-.324l.036 1.62c-.78.156-1.752.24-3.108.24-2.064 0-3.06-.744-3.06-1.968 0-.48.072-.948.216-1.56l1.368.12zm-2.808-5.928c-.084.252-.24.864-.288 1.08-.168.792-.588 3.192-.588 4.392 0 .24.012.54.048.78.18-.408.372-.816.552-1.224l.744.588c-.348 1.008-.744 2.304-.864 2.94-.036.18-.072.444-.072.564.012.132.012.336.024.504l-1.38.084c-.24-.816-.468-2.28-.468-3.912 0-1.812.36-3.828.492-4.764.048-.324.108-.78.12-1.164l1.68.132zm13.836-.312h5.868v1.368h-5.868v-1.368zm3.048 3.732h1.476v5.184c0 .768-.156 1.176-.684 1.404-.516.216-1.272.228-2.352.228-.048-.42-.24-1.044-.432-1.464.684.036 1.476.036 1.692.036.228-.012.3-.06.3-.24v-5.148zm-3.564-.408h6.696v1.368h-6.696v-1.368zm-2.688 1.416l1.26-1.26.18.072v7.044h-1.44v-5.856zm1.356-2.808l1.368.516c-.948 1.596-2.424 3.276-3.708 4.332-.204-.3-.696-.948-.984-1.236 1.224-.864 2.532-2.256 3.324-3.612zm-.456-2.616l1.38.564c-.876 1.14-2.172 2.388-3.312 3.18-.192-.324-.564-.888-.804-1.176.996-.648 2.148-1.728 2.736-2.568zm12.06 1.62a9.563 9.563 0 00-.144 1.464c0 .78 0 1.668.072 2.544.168 1.728.528 2.916 1.284 2.916.576 0 1.044-1.416 1.272-2.364l1.212 1.452c-.804 2.1-1.548 2.82-2.508 2.82-1.332 0-2.472-1.176-2.808-4.392-.12-1.104-.132-2.52-.132-3.252 0-.324-.012-.84-.096-1.212l1.848.024zm6 .264c1.14 1.38 2.064 4.38 2.196 6.216l-1.584.624c-.18-1.944-.828-4.848-2.136-6.336l1.524-.504zm10.056-1.392c-.036.24-.072.54-.084.852-.024.612-.036 2.316-.036 3.324 0 1.32.192 3.492.192 4.44 0 1.032-.78 1.824-2.352 1.824-1.92 0-2.928-.732-2.928-2.004 0-1.212 1.116-2.064 2.952-2.064 2.64 0 4.608 1.296 5.604 2.136l-.864 1.344c-1.14-1.08-2.88-2.244-4.932-2.244-.84 0-1.308.324-1.308.744 0 .456.42.732 1.248.732.636 0 1.068-.18 1.068-.876 0-.72-.132-2.868-.132-4.032 0-1.152.012-2.676.012-3.36 0-.216-.024-.588-.072-.816h1.632zm-4.98 1.116c.852.144 2.232.264 2.964.264 1.632 0 3.204-.084 4.956-.36l-.012 1.368c-1.224.168-3.132.312-4.932.312-.768 0-2.16-.108-2.952-.204l-.024-1.38zm-.072 2.592c.792.144 2.256.228 2.892.228 2.22 0 3.768-.144 5.244-.336l-.012 1.416c-1.656.192-2.964.264-5.244.264-.708 0-2.064-.06-2.856-.156l-.024-1.416zm17.724-3.684c-.036.204-.072.84-.084 1.032-.036.792-.012 3.24 0 4.2l-1.5-.504c0-.744 0-3.048-.048-3.684-.036-.48-.084-.888-.108-1.044h1.74zm-6.792 1.5c1.788 0 4.956-.096 6.456-.096 1.224 0 3.048-.012 3.72 0l-.024 1.416a79.942 79.942 0 00-3.732-.072c-2.184 0-4.572.096-6.384.192l-.036-1.44zm6.504 3.552c0 1.956-.72 2.928-2.1 2.928-.924 0-2.076-.732-2.076-2.196 0-1.356 1.104-2.244 2.4-2.244 1.584 0 2.412 1.164 2.412 2.652 0 1.572-.924 3.552-3.852 4.38l-1.272-1.272c2.04-.444 3.636-1.248 3.636-3.348 0-.78-.42-1.152-.948-1.152-.468 0-.936.324-.936.96 0 .54.444.888.936.888.564 0 1.056-.48.672-1.908l1.128.312zm9.984-4.848c-.072.312-.144.696-.216.996-.108.54-.264 1.284-.384 1.896-.396 1.692-1.368 5.112-2.616 7.14l-1.572-.624c1.428-1.92 2.328-5.088 2.664-6.6.228-1.08.36-2.1.348-3l1.776.192zm4.14 1.116c.732 1.044 1.74 3.324 2.112 4.476l-1.524.708c-.312-1.344-1.164-3.504-2.028-4.572l1.44-.612zm-9 1.344c.432.024.84.012 1.284 0 .96-.024 3.228-.288 4.128-.288 1.26 0 2.16.564 2.16 2.304 0 1.416-.168 3.36-.672 4.392-.408.84-1.068 1.104-1.968 1.104a7.076 7.076 0 01-1.452-.168l-.252-1.584c.468.132 1.152.252 1.464.252.408 0 .708-.12.9-.516.336-.672.492-2.136.492-3.312 0-.96-.42-1.104-1.164-1.104-.72 0-2.784.264-3.444.348-.348.048-.972.132-1.332.192l-.144-1.62zm16.404 3.924c-.252-1.884 2.304-2.304 2.304-3.468 0-.732-.576-1.14-1.524-1.14-.732 0-1.332.336-1.92.948l-.984-.9c.768-.888 1.824-1.476 3.108-1.476 1.74 0 3.012.816 3.012 2.412 0 1.752-2.628 1.968-2.436 3.624h-1.56zm.792 3.204c-.624 0-1.068-.444-1.068-1.068 0-.624.456-1.056 1.068-1.056.6 0 1.056.432 1.056 1.056 0 .624-.456 1.068-1.056 1.068zm151.948-3.08h-4.656v4.944h-2.412v-4.944h-4.632v-2.196h4.632v-4.92h2.412v4.92h4.656v2.196z" fill="#000"/><path stroke="#000" stroke-opacity=".3" stroke-dasharray="4 4" d="M0 330.5h340"/><path d="M1.588 293.316h3.828v1.248H1.588v-1.248zm-.276 3.864h4.56v1.272h-4.56v-1.272zm1.788.696h1.38v4.668c0 .66-.108 1.044-.564 1.26-.432.228-1.032.252-1.848.252-.048-.408-.24-.996-.432-1.38.516.012 1.08.012 1.248.012.168 0 .216-.036.216-.18v-4.632zm1.884-4.56h.3l.264-.072.876.624c-.588.948-1.44 2.04-2.208 2.724a6.754 6.754 0 00-.804-.852c.6-.564 1.272-1.524 1.572-2.16v-.264zm.468 3.864h.18l.192-.048.888.204c-.252 1.008-.588 2.136-.852 2.856l-1.068-.24c.216-.648.492-1.728.66-2.604v-.168zm-3.648-1.26l.72-.948c.984.456 2.256 1.188 2.868 1.764l-.78 1.068c-.576-.6-1.812-1.392-2.808-1.884zm4.56-2.64h6.144v1.212H6.364v-1.212zm1.728 4.812v.768h2.676v-.768H8.092zm0 1.752v.768h2.676v-.768H8.092zm0-3.492v.756h2.676v-.756H8.092zm-1.32-1.056h5.376v6.372H6.772v-6.372zm1.932-1.356l1.644.18c-.228.756-.48 1.512-.684 2.028l-1.248-.228c.12-.576.252-1.392.288-1.98zm-.756 7.74l1.176.768c-.66.636-1.8 1.308-2.736 1.668-.228-.264-.648-.696-.96-.936.936-.336 1.992-.984 2.52-1.5zm1.74.804l1.068-.72c.672.432 1.584 1.092 2.052 1.548l-1.128.804c-.42-.444-1.308-1.152-1.992-1.632zm12.648-9.024c-.048.264-.06.552-.06.828-.024.552 0 2.82 0 3.528 0 2.82-.216 4.572-2.604 6.084l-1.392-1.08c.468-.204 1.068-.588 1.404-.96.912-.96 1.116-2.04 1.116-4.056 0-.9-.024-2.844-.084-3.516a6.005 6.005 0 00-.132-.828h1.752zm-4.74 2.352c.588.084 1.176.12 1.824.12 1.548 0 3.468-.108 4.644-.324v1.56c-1.14.132-2.988.228-4.608.228-.528 0-1.26-.036-1.86-.072v-1.512zm-1.236-2.148c-.096.3-.216.732-.276.984-.3 1.332-.732 3.852-.408 5.34.156-.372.384-.96.576-1.392l.756.48a26.524 26.524 0 00-.816 2.916 2.232 2.232 0 00-.072.588c0 .132.012.336.024.504l-1.344.132c-.264-.732-.684-2.4-.684-3.888 0-1.968.24-3.816.396-4.8.048-.324.06-.732.072-1.032l1.776.168zm9.492 1.092a18.65 18.65 0 001.176-.06c1.008-.096 2.976-.264 5.184-.456a80.709 80.709 0 013.396-.216l.012 1.548c-.648 0-1.68.012-2.328.156-1.44.384-2.532 1.944-2.532 3.36 0 1.98 1.848 2.688 3.876 2.796l-.552 1.644c-2.52-.156-4.896-1.512-4.896-4.116 0-1.728.972-3.084 1.788-3.696-1.128.12-3.576.372-4.968.684l-.156-1.644zm19.812.9c0 .42.348.768.768.768.42 0 .756-.348.756-.768a.753.753 0 00-.756-.756.763.763 0 00-.768.756zm-.792 0c0-.864.696-1.56 1.56-1.56.864 0 1.56.696 1.56 1.56 0 .864-.696 1.56-1.56 1.56-.864 0-1.56-.696-1.56-1.56zm-7.452 3.936c.348-.3.612-.552.984-.924.54-.54 1.476-1.716 2.304-2.7.72-.852 1.428-.984 2.352-.108a52.96 52.96 0 012.448 2.496c.804.864 2.04 2.184 2.964 3.168l-1.332 1.428a162.584 162.584 0 00-2.52-3.072 68.013 68.013 0 00-2.196-2.436c-.396-.384-.648-.36-.984.072-.48.612-1.32 1.788-1.812 2.448-.276.372-.552.804-.768 1.116l-1.44-1.488zm17.628-3.708c.228.504.816 2.076.984 2.628l-1.428.492c-.156-.576-.684-2.028-.972-2.652l1.416-.468zm4.428.864c-.132.396-.204.648-.276.888-.312 1.212-.828 2.46-1.644 3.504a9.372 9.372 0 01-4.008 2.988l-1.26-1.284c1.308-.36 2.988-1.272 3.972-2.52.816-1.008 1.404-2.604 1.536-4.116l1.68.54zm-7.212-.24c.3.612.888 2.076 1.116 2.748l-1.464.54c-.192-.636-.804-2.244-1.092-2.76l1.44-.528zm12.492 5.352v-6.9c0-.432-.036-1.02-.12-1.452h1.872c-.048.432-.108.948-.108 1.452 0 1.32.012 6.012.012 6.9 0 .336.048 1.176.108 1.668h-1.884c.084-.468.12-1.2.12-1.668zm1.296-5.244c1.596.444 4.188 1.392 5.364 1.968l-.672 1.668c-1.368-.708-3.384-1.476-4.692-1.908v-1.728zm12.396-3c-.072.312-.144.696-.204.996-.12.54-.264 1.284-.396 1.896-.396 1.692-1.356 5.112-2.616 7.14l-1.572-.624c1.428-1.92 2.328-5.088 2.664-6.6.228-1.08.36-2.1.348-3l1.776.192zm4.14 1.2c.732 1.044 1.74 3.276 2.112 4.416l-1.524.708c-.312-1.332-1.164-3.444-2.028-4.512l1.44-.612zm-9 1.26c.432.024.84.012 1.284 0 .96-.024 3.24-.288 4.128-.288 1.272 0 2.172.564 2.172 2.304 0 1.416-.18 3.36-.684 4.392-.396.84-1.068 1.104-1.968 1.104a6.863 6.863 0 01-1.44-.168l-.264-1.584c.468.132 1.152.252 1.464.252.408 0 .72-.12.9-.516.336-.672.492-2.136.492-3.312 0-.96-.408-1.104-1.164-1.104-.708 0-2.784.264-3.444.348-.348.048-.972.132-1.332.192l-.144-1.62zm8.784-2.916c.3.432.72 1.2.948 1.644l-.96.408c-.252-.492-.624-1.2-.948-1.668l.96-.384zm1.416-.552c.312.456.756 1.224.972 1.644l-.96.408c-.24-.504-.636-1.2-.96-1.656l.948-.396zm5.928.72H94.9v1.248h-5.184v-1.248zm4.872 0h.276l.252-.06.924.384c-.996 3.144-3.384 4.68-6.432 5.424-.144-.36-.444-.912-.708-1.2 2.712-.516 4.932-1.932 5.688-4.344v-.204zm-3.048 1.008c.888 1.716 2.772 2.952 5.244 3.432-.312.288-.708.864-.912 1.248-2.592-.672-4.452-2.112-5.556-4.284l1.224-.396zm-1.824 5.472H96.1v1.272h-6.384v-1.272zm-.528 2.688h7.44v1.296h-7.44v-1.296zm3.024-3.804h1.44v4.536h-1.44v-4.536zm-5.256-5.88h1.38v11.268h-1.38v-11.268zm-1.164 2.376l1.092.144c0 1.08-.192 2.508-.504 3.42l-1.116-.42c.312-.78.492-2.112.528-3.144zm2.244.024l1.032-.432c.324.696.708 1.62.876 2.172l-1.104.528c-.144-.588-.504-1.548-.804-2.268zm17.412-1.332l1.08-.744c.66.564 1.44 1.368 1.8 1.932l-1.164.816c-.312-.576-1.068-1.416-1.716-2.004zm-7.86 2.34h10.836v1.368H97.588v-1.368zm-.228 3.396c1.452-.216 3.732-.612 5.832-.996l.108 1.308c-1.944.408-4.032.828-5.58 1.14l-.36-1.452zm2.508-5.328h1.452v8.112c0 .78-.156 1.176-.648 1.404-.48.228-1.188.276-2.172.276-.06-.408-.3-1.056-.516-1.464.684.036 1.38.036 1.596.024.216 0 .288-.06.288-.264v-8.088zm2.46-1.404l.972 1.224c-1.56.48-3.612.804-5.352.996a5.714 5.714 0 00-.42-1.2c1.692-.228 3.564-.6 4.8-1.02zm1.176.024h1.512c-.084 4.836.996 9.756 2.088 9.756.252 0 .384-.588.456-2.016.3.336.792.672 1.176.828-.228 2.124-.684 2.652-1.776 2.652-2.484 0-3.42-5.832-3.456-11.22zm3.264 5.076l1.272.54c-1.248 2.232-3.204 4.02-5.376 5.172a5.757 5.757 0 00-.972-1.164c2.052-.936 4.008-2.568 5.076-4.548zm8.064-4.608a12.686 12.686 0 01-.588 2.016c-.252.588-.6 1.272-.936 1.752.324-.144.96-.228 1.368-.228.996 0 1.752.588 1.752 1.704 0 .648.036 1.956.048 2.712h-1.44c.048-.564.072-1.584.06-2.232 0-.768-.48-1.02-.984-1.02-.66 0-1.416.396-1.872.828-.36.36-.696.792-1.104 1.32l-1.284-.96c1.536-1.416 2.46-2.712 2.964-4.032.24-.648.396-1.38.432-1.992l1.584.132zm-4.524 1.116c.612.084 1.5.132 2.112.132 1.584 0 3.756-.084 5.496-.396l-.012 1.392c-1.692.24-4.104.348-5.568.348a25.82 25.82 0 01-2.028-.084v-1.392zm9.504 3.408a22.96 22.96 0 00-1.428.504c-.78.3-1.86.732-2.988 1.308-1.092.564-1.68 1.08-1.68 1.74 0 .66.576.84 1.74.84 1.02 0 2.364-.132 3.42-.348l-.048 1.548c-.804.108-2.268.216-3.408.216-1.872 0-3.276-.468-3.276-2.016 0-1.668 1.716-2.652 3.156-3.372 1.104-.576 1.86-.864 2.58-1.2.468-.204.888-.396 1.344-.624l.588 1.404zm5.64-4.416a19.144 19.144 0 00-.156 1.608c-.06 1.296-.144 3.972-.144 5.46 0 1.212.72 1.608 1.656 1.608 1.98 0 3.228-1.14 4.104-2.448l1.092 1.332c-.78 1.152-2.484 2.748-5.22 2.748-1.968 0-3.228-.864-3.228-2.916 0-1.608.108-4.752.108-5.784 0-.576-.048-1.152-.144-1.62l1.932.012zm13.224-.06c-.084.336-.192.876-.252 1.14-.168.816-.468 2.28-.792 3.504-.432 1.68-1.236 4.128-1.896 5.556l-1.668-.564c.708-1.212 1.62-3.72 2.076-5.4.3-1.128.576-2.448.66-3.156.06-.444.072-.936.036-1.224l1.836.144zm-3.06 1.8c1.464 0 3.156-.228 4.716-.6v1.5c-1.488.348-3.372.552-4.728.552-.588 0-1.032-.024-1.452-.048l-.048-1.5c.624.072 1.02.096 1.512.096zm3.768 1.836c.672-.072 1.536-.12 2.316-.12.684 0 1.404.036 2.1.108l-.024 1.44c-.612-.072-1.344-.156-2.064-.156-.828 0-1.572.036-2.328.132v-1.404zm.648 3.012c-.084.348-.156.732-.156.996 0 .528.348.924 1.644.924.804 0 1.632-.084 2.484-.24l-.06 1.524c-.672.096-1.476.168-2.436.168-2.028 0-3.108-.684-3.108-1.896 0-.564.108-1.14.204-1.608l1.428.132zm9.012-2.424h7.596v1.212h-7.596v-1.212zm1.308 1.788h4.932v1.128h-4.932v-1.128zm.456-1.344l1.236.312a7.915 7.915 0 01-2.832 3.336 6.646 6.646 0 00-.96-.864c1.104-.624 2.064-1.62 2.556-2.784zm4.248 1.344h1.344s-.012.324-.036.492c-.168 2.352-.36 3.324-.684 3.684-.228.264-.492.36-.804.396a9.052 9.052 0 01-1.224.036c-.012-.348-.132-.84-.312-1.14.372.036.696.048.852.048.168 0 .264-.024.36-.144.192-.216.372-1.044.504-3.18v-.192zm-3.684-3.816v.576h3.108v-.576h-3.108zm0-1.512v.576h3.108v-.576h-3.108zm-1.272-.996h5.712v4.08H150.1v-4.08zm-4.572 2.22h3.672v1.368h-3.672v-1.368zm1.212-2.376h1.344v7.464h-1.344v-7.464zm-1.476 7.716c.924-.348 2.388-.96 3.78-1.56l.3 1.236a122.31 122.31 0 01-3.552 1.776l-.528-1.452zm8.424-1.008l.972.528c-.456 1.44-1.464 3.108-2.532 3.936a4.652 4.652 0 00-1.032-.804c1.164-.72 2.148-2.268 2.592-3.66zm-1.824.012l.948.564c-.6 1.236-1.86 2.628-3 3.36a3.798 3.798 0 00-.948-.852c1.188-.6 2.424-1.896 3-3.072zm8.136-2.988h6.024v1.26H160v-1.26zm-.144 5.7h6.192v1.26h-6.192v-1.26zm-.636-3.24h7.644v4.956h-1.476v-3.684h-4.752v3.684h-1.416v-4.956zm3.732-4.908c-.984 1.404-2.832 2.988-4.812 4.044a6.189 6.189 0 00-.9-1.164c2.076-1.008 4.008-2.82 4.896-4.296h1.5c1.308 1.848 3.24 3.372 5.172 4.152-.36.36-.696.852-.948 1.296-1.848-.972-3.864-2.604-4.908-4.032zm15.324 2.124c-.372.216-.756.42-1.188.636-.756.384-1.884.9-2.976 1.62-.996.648-1.668 1.344-1.668 2.172 0 .864.828 1.332 2.496 1.332 1.236 0 2.856-.192 3.924-.444l-.024 1.728c-1.02.18-2.292.3-3.852.3-2.4 0-4.2-.672-4.2-2.736 0-1.524 1.104-2.592 2.52-3.528 1.14-.744 2.364-1.344 3.108-1.764.444-.264.792-.468 1.104-.732l.756 1.416zm-5.664-2.748a27.517 27.517 0 001.896 4.032l-1.368.804c-.648-1.092-1.368-2.664-2.04-4.212l1.512-.624zm5.808-.18c.3.444.72 1.2.948 1.644l-.96.42c-.252-.492-.612-1.212-.948-1.668l.96-.396zm1.416-.54c.312.444.756 1.212.972 1.632l-.948.408c-.252-.492-.636-1.2-.972-1.656l.948-.384zm9.372 6.18c0-.792-.612-1.428-1.74-1.428-1.32 0-2.52.396-3.12.576-.348.108-.828.288-1.164.432l-.456-1.728c.408-.024.912-.12 1.308-.204.876-.192 2.22-.54 3.636-.54 1.896 0 3.228 1.08 3.228 2.952 0 2.58-2.388 4.164-5.724 4.632l-.852-1.5c2.976-.336 4.884-1.308 4.884-3.192zm-4.716-5.76c1.404.3 4.128.54 5.388.54l-.228 1.476c-1.404-.096-4.008-.336-5.388-.576l.228-1.44zm9.492 1.824c.516.06 1.164.084 1.596.084 1.488 0 3.108-.252 4.272-.624l.036 1.392c-1.032.288-2.76.6-4.296.588-.48 0-.984-.012-1.5-.036l-.108-1.404zm4.668-1.8c-.156.636-.444 1.812-.768 2.832-.552 1.728-1.632 3.96-2.652 5.376l-1.452-.744c1.08-1.32 2.16-3.42 2.628-4.716.288-.864.552-1.98.588-2.904l1.656.156zm2.82 3.744c-.036.504-.024 1.008-.012 1.536.024.708.132 2.496.132 3.168 0 1.116-.6 1.992-2.316 1.992-1.488 0-2.664-.672-2.664-1.992 0-1.164.984-2.076 2.652-2.076 2.1 0 3.756 1.056 4.752 1.956l-.792 1.296c-.864-.804-2.232-2.04-4.044-2.04-.696 0-1.152.3-1.152.72 0 .444.384.756 1.044.756.816 0 1.08-.456 1.08-1.128 0-.72-.132-2.928-.192-4.188h1.512zm2.064.636c-.696-.564-2.064-1.344-2.892-1.716l.78-1.176c.864.372 2.34 1.176 2.964 1.62l-.852 1.272zm5.796-4.356a19.55 19.55 0 00-.492 2.496c.576-.924 1.632-1.944 2.976-1.944 1.668 0 2.964 1.644 2.964 4.284 0 3.396-2.076 5.004-5.256 5.592l-.912-1.392c2.676-.408 4.548-1.296 4.548-4.2 0-1.848-.624-2.88-1.62-2.88-1.416 0-2.664 2.136-2.712 3.708-.024.336-.012.72.048 1.272l-1.476.108c-.072-.468-.144-1.2-.144-2.004 0-1.128.156-2.604.336-3.852.048-.444.084-.924.096-1.248l1.644.06zm14.832-.06c-.036.24-.072.54-.084.852-.024.612-.036 2.316-.036 3.324 0 1.32.192 3.492.192 4.44 0 1.032-.78 1.824-2.352 1.824-1.92 0-2.928-.732-2.928-2.004 0-1.212 1.116-2.064 2.952-2.064 2.64 0 4.608 1.296 5.604 2.136l-.864 1.344c-1.14-1.08-2.88-2.244-4.932-2.244-.84 0-1.308.324-1.308.744 0 .456.42.732 1.248.732.636 0 1.068-.18 1.068-.876 0-.72-.132-2.868-.132-4.032 0-1.152.012-2.676.012-3.36 0-.216-.024-.588-.072-.816h1.632zm-4.98 1.116c.852.144 2.232.264 2.964.264 1.632 0 3.204-.084 4.956-.36l-.012 1.368c-1.224.168-3.132.312-4.932.312-.768 0-2.16-.108-2.952-.204l-.024-1.38zm-.072 2.592c.792.144 2.256.228 2.892.228 2.22 0 3.768-.144 5.244-.336l-.012 1.416c-1.656.192-2.964.264-5.244.264-.708 0-2.064-.06-2.856-.156l-.024-1.416zm17.724-3.684c-.036.204-.072.84-.084 1.032-.036.792-.012 3.24 0 4.2l-1.5-.504c0-.744 0-3.048-.048-3.684-.036-.48-.084-.888-.108-1.044h1.74zm-6.792 1.5c1.788 0 4.956-.096 6.456-.096 1.224 0 3.048-.012 3.72 0l-.024 1.416a79.942 79.942 0 00-3.732-.072c-2.184 0-4.572.096-6.384.192l-.036-1.44zm6.504 3.552c0 1.956-.72 2.928-2.1 2.928-.924 0-2.076-.732-2.076-2.196 0-1.356 1.104-2.244 2.4-2.244 1.584 0 2.412 1.164 2.412 2.652 0 1.572-.924 3.552-3.852 4.38l-1.272-1.272c2.04-.444 3.636-1.248 3.636-3.348 0-.78-.42-1.152-.948-1.152-.468 0-.936.324-.936.96 0 .54.444.888.936.888.564 0 1.056-.48.672-1.908l1.128.312zm9.984-4.848c-.072.312-.144.696-.216.996-.108.54-.264 1.284-.384 1.896-.396 1.692-1.368 5.112-2.616 7.14l-1.572-.624c1.428-1.92 2.328-5.088 2.664-6.6.228-1.08.36-2.1.348-3l1.776.192zm4.14 1.116c.732 1.044 1.74 3.324 2.112 4.476l-1.524.708c-.312-1.344-1.164-3.504-2.028-4.572l1.44-.612zm-9 1.344c.432.024.84.012 1.284 0 .96-.024 3.228-.288 4.128-.288 1.26 0 2.16.564 2.16 2.304 0 1.416-.168 3.36-.672 4.392-.408.84-1.068 1.104-1.968 1.104a7.076 7.076 0 01-1.452-.168l-.252-1.584c.468.132 1.152.252 1.464.252.408 0 .708-.12.9-.516.336-.672.492-2.136.492-3.312 0-.96-.42-1.104-1.164-1.104-.72 0-2.784.264-3.444.348-.348.048-.972.132-1.332.192l-.144-1.62zm16.404 3.924c-.252-1.884 2.304-2.304 2.304-3.468 0-.732-.576-1.14-1.524-1.14-.732 0-1.332.336-1.92.948l-.984-.9c.768-.888 1.824-1.476 3.108-1.476 1.74 0 3.012.816 3.012 2.412 0 1.752-2.628 1.968-2.436 3.624h-1.56zm.792 3.204c-.624 0-1.068-.444-1.068-1.068 0-.624.456-1.056 1.068-1.056.6 0 1.056.432 1.056 1.056 0 .624-.456 1.068-1.056 1.068zm79.948-3.08h-4.656v4.944h-2.412v-4.944h-4.632v-2.196h4.632v-4.92h2.412v4.92h4.656v2.196z" fill="#000"/></svg>